%TF.GenerationSoftware,KiCad,Pcbnew,(5.1.8)-1*%
%TF.CreationDate,2021-01-07T02:27:12+01:00*%
%TF.ProjectId,Space Cowboy - A Jupiter75 Replacement PCB,53706163-6520-4436-9f77-626f79202d20,rev?*%
%TF.SameCoordinates,Original*%
%TF.FileFunction,Soldermask,Bot*%
%TF.FilePolarity,Negative*%
%FSLAX46Y46*%
G04 Gerber Fmt 4.6, Leading zero omitted, Abs format (unit mm)*
G04 Created by KiCad (PCBNEW (5.1.8)-1) date 2021-01-07 02:27:12*
%MOMM*%
%LPD*%
G01*
G04 APERTURE LIST*
%ADD10R,1.300000X0.700000*%
%ADD11R,1.000000X0.300000*%
%ADD12R,0.300000X1.000000*%
%ADD13R,5.080000X5.080000*%
%ADD14C,1.750000*%
%ADD15C,2.250000*%
%ADD16C,3.987800*%
%ADD17R,0.750000X0.800000*%
%ADD18C,3.048000*%
%ADD19R,1.200000X1.400000*%
%ADD20R,0.600000X1.450000*%
%ADD21R,0.300000X1.450000*%
%ADD22C,0.650000*%
%ADD23R,1.800000X1.100000*%
%ADD24R,0.500000X0.900000*%
%ADD25R,0.900000X0.500000*%
%ADD26R,1.820000X1.400000*%
%ADD27R,2.030000X1.140000*%
%ADD28R,1.500000X0.900000*%
%ADD29C,0.100000*%
%ADD30R,0.900000X1.200000*%
%ADD31R,1.200000X0.900000*%
%ADD32R,1.260000X0.590000*%
%ADD33R,1.260000X0.990000*%
%ADD34R,0.800000X0.750000*%
G04 APERTURE END LIST*
D10*
X157962600Y-144147500D03*
X157962600Y-146047500D03*
D11*
X148607400Y-148658200D03*
X148607400Y-149158200D03*
X148607400Y-149658200D03*
X148607400Y-150158200D03*
X148607400Y-150658200D03*
X148607400Y-151158200D03*
X148607400Y-151658200D03*
X148607400Y-152158200D03*
X148607400Y-152658200D03*
X148607400Y-153158200D03*
X148607400Y-153658200D03*
D12*
X149457400Y-154508200D03*
X149957400Y-154508200D03*
X150457400Y-154508200D03*
X150957400Y-154508200D03*
X151457400Y-154508200D03*
X151957400Y-154508200D03*
X152457400Y-154508200D03*
X152957400Y-154508200D03*
X153457400Y-154508200D03*
X153957400Y-154508200D03*
X154457400Y-154508200D03*
D11*
X155307400Y-153658200D03*
X155307400Y-153158200D03*
X155307400Y-152658200D03*
X155307400Y-152158200D03*
X155307400Y-151658200D03*
X155307400Y-151158200D03*
X155307400Y-150658200D03*
X155307400Y-150158200D03*
X155307400Y-149658200D03*
X155307400Y-149158200D03*
X155307400Y-148658200D03*
D12*
X154457400Y-147808200D03*
X153957400Y-147808200D03*
X153457400Y-147808200D03*
X152957400Y-147808200D03*
X152457400Y-147808200D03*
X151957400Y-147808200D03*
X151457400Y-147808200D03*
X150957400Y-147808200D03*
X150457400Y-147808200D03*
X149957400Y-147808200D03*
X149457400Y-147808200D03*
D13*
X151957400Y-151158200D03*
D14*
X307643530Y-152389840D03*
X297483530Y-152389840D03*
D15*
X298753530Y-149849840D03*
D16*
X302563530Y-152389840D03*
D15*
X305103530Y-147309840D03*
D17*
X164795200Y-145098200D03*
X164795200Y-143598200D03*
D15*
X324294500Y-107315000D03*
D16*
X319214500Y-104775000D03*
D15*
X321754500Y-100965000D03*
D14*
X319214500Y-99695000D03*
X319214500Y-109855000D03*
D18*
X326199500Y-92868750D03*
X326199500Y-116681250D03*
D16*
X310959500Y-92868750D03*
X310959500Y-116681250D03*
D15*
X178897280Y-147309840D03*
D16*
X176357280Y-152389840D03*
D15*
X172547280Y-149849840D03*
D14*
X171277280Y-152389840D03*
X181437280Y-152389840D03*
D18*
X126357380Y-159374840D03*
X226357180Y-159374840D03*
D16*
X126357380Y-144134840D03*
X226357180Y-144134840D03*
D19*
X165355800Y-152001400D03*
X165355800Y-149801400D03*
X167055800Y-149801400D03*
X167055800Y-152001400D03*
D20*
X69773000Y-47674600D03*
X63323000Y-47674600D03*
X68998000Y-47674600D03*
X64098000Y-47674600D03*
D21*
X64798000Y-47674600D03*
X68298000Y-47674600D03*
X65298000Y-47674600D03*
X67798000Y-47674600D03*
X65798000Y-47674600D03*
X67298000Y-47674600D03*
X66798000Y-47674600D03*
X66298000Y-47674600D03*
D22*
X69438000Y-46229600D03*
X63658000Y-46229600D03*
D23*
X216587000Y-150105500D03*
X210387000Y-153805500D03*
X216587000Y-153805500D03*
X210387000Y-150105500D03*
D24*
X70612000Y-52628800D03*
X69112000Y-52628800D03*
D25*
X62585600Y-52285200D03*
X62585600Y-53785200D03*
D24*
X159549400Y-147345400D03*
X161049400Y-147345400D03*
D25*
X67767200Y-60186000D03*
X67767200Y-58686000D03*
X69392800Y-58686000D03*
X69392800Y-60186000D03*
D24*
X147116100Y-156667200D03*
X148616100Y-156667200D03*
D14*
X183818530Y-95239840D03*
X173658530Y-95239840D03*
D15*
X174928530Y-92699840D03*
D16*
X178738530Y-95239840D03*
D15*
X181278530Y-90159840D03*
D14*
X102856030Y-133339840D03*
X92696030Y-133339840D03*
D15*
X93966030Y-130799840D03*
D16*
X97776030Y-133339840D03*
D15*
X100316030Y-128259840D03*
D14*
X121906030Y-133339840D03*
X111746030Y-133339840D03*
D15*
X113016030Y-130799840D03*
D16*
X116826030Y-133339840D03*
D15*
X119366030Y-128259840D03*
D14*
X88568530Y-152389840D03*
X78408530Y-152389840D03*
D15*
X79678530Y-149849840D03*
D16*
X83488530Y-152389840D03*
D15*
X86028530Y-147309840D03*
D14*
X86187280Y-152389840D03*
X76027280Y-152389840D03*
D15*
X77297280Y-149849840D03*
D16*
X81107280Y-152389840D03*
D15*
X83647280Y-147309840D03*
D14*
X276687280Y-152389840D03*
X266527280Y-152389840D03*
D15*
X267797280Y-149849840D03*
D16*
X271607280Y-152389840D03*
D15*
X274147280Y-147309840D03*
D14*
X107618530Y-95239840D03*
X97458530Y-95239840D03*
D15*
X98728530Y-92699840D03*
D16*
X102538530Y-95239840D03*
D15*
X105078530Y-90159840D03*
D14*
X160006030Y-133339840D03*
X149846030Y-133339840D03*
D15*
X151116030Y-130799840D03*
D16*
X154926030Y-133339840D03*
D15*
X157466030Y-128259840D03*
D14*
X326693530Y-133339840D03*
X316533530Y-133339840D03*
D15*
X317803530Y-130799840D03*
D16*
X321613530Y-133339840D03*
D15*
X324153530Y-128259840D03*
D14*
X59993530Y-76189840D03*
X49833530Y-76189840D03*
D15*
X51103530Y-73649840D03*
D16*
X54913530Y-76189840D03*
D15*
X57453530Y-71109840D03*
D14*
X279068530Y-95239840D03*
X268908530Y-95239840D03*
D15*
X270178530Y-92699840D03*
D16*
X273988530Y-95239840D03*
D15*
X276528530Y-90159840D03*
D14*
X202868530Y-95239840D03*
X192708530Y-95239840D03*
D15*
X193978530Y-92699840D03*
D16*
X197788530Y-95239840D03*
D15*
X200328530Y-90159840D03*
D14*
X83806030Y-133339840D03*
X73646030Y-133339840D03*
D15*
X74916030Y-130799840D03*
D16*
X78726030Y-133339840D03*
D15*
X81266030Y-128259840D03*
X319391030Y-90159840D03*
D16*
X316851030Y-95239840D03*
D15*
X313041030Y-92699840D03*
D14*
X311771030Y-95239840D03*
X321931030Y-95239840D03*
X307643530Y-76189840D03*
X297483530Y-76189840D03*
D15*
X298753530Y-73649840D03*
D16*
X302563530Y-76189840D03*
D15*
X305103530Y-71109840D03*
D14*
X64756030Y-95239840D03*
X54596030Y-95239840D03*
D15*
X55866030Y-92699840D03*
D16*
X59676030Y-95239840D03*
D15*
X62216030Y-90159840D03*
D14*
X164768530Y-95239840D03*
X154608530Y-95239840D03*
D15*
X155878530Y-92699840D03*
D16*
X159688530Y-95239840D03*
D15*
X162228530Y-90159840D03*
D14*
X269543530Y-76189840D03*
X259383530Y-76189840D03*
D15*
X260653530Y-73649840D03*
D16*
X264463530Y-76189840D03*
D15*
X267003530Y-71109840D03*
X190803530Y-147309840D03*
D16*
X188263530Y-152389840D03*
D15*
X184453530Y-149849840D03*
D14*
X183183530Y-152389840D03*
X193343530Y-152389840D03*
D18*
X131113530Y-159374840D03*
X245413530Y-159374840D03*
D16*
X131113530Y-144134840D03*
X245413530Y-144134840D03*
D14*
X300499780Y-133339840D03*
X290339780Y-133339840D03*
D15*
X291609780Y-130799840D03*
D16*
X295419780Y-133339840D03*
D15*
X297959780Y-128259840D03*
D14*
X326693530Y-57139840D03*
X316533530Y-57139840D03*
D15*
X317803530Y-54599840D03*
D16*
X321613530Y-57139840D03*
D15*
X324153530Y-52059840D03*
D14*
X112381030Y-114289840D03*
X102221030Y-114289840D03*
D15*
X103491030Y-111749840D03*
D16*
X107301030Y-114289840D03*
D15*
X109841030Y-109209840D03*
D14*
X345743530Y-152389840D03*
X335583530Y-152389840D03*
D15*
X336853530Y-149849840D03*
D16*
X340663530Y-152389840D03*
D15*
X343203530Y-147309840D03*
D14*
X145718530Y-95239840D03*
X135558530Y-95239840D03*
D15*
X136828530Y-92699840D03*
D16*
X140638530Y-95239840D03*
D15*
X143178530Y-90159840D03*
D14*
X88568530Y-95239840D03*
X78408530Y-95239840D03*
D15*
X79678530Y-92699840D03*
D16*
X83488530Y-95239840D03*
D15*
X86028530Y-90159840D03*
D14*
X345743530Y-95239840D03*
X335583530Y-95239840D03*
D15*
X336853530Y-92699840D03*
D16*
X340663530Y-95239840D03*
D15*
X343203530Y-90159840D03*
D14*
X345743530Y-57139840D03*
X335583530Y-57139840D03*
D15*
X336853530Y-54599840D03*
D16*
X340663530Y-57139840D03*
D15*
X343203530Y-52059840D03*
D14*
X260018530Y-95239840D03*
X249858530Y-95239840D03*
D15*
X251128530Y-92699840D03*
D16*
X254938530Y-95239840D03*
D15*
X257478530Y-90159840D03*
D14*
X264781030Y-114289840D03*
X254621030Y-114289840D03*
D15*
X255891030Y-111749840D03*
D16*
X259701030Y-114289840D03*
D15*
X262241030Y-109209840D03*
D14*
X240968530Y-95239840D03*
X230808530Y-95239840D03*
D15*
X232078530Y-92699840D03*
D16*
X235888530Y-95239840D03*
D15*
X238428530Y-90159840D03*
D14*
X288593530Y-76189840D03*
X278433530Y-76189840D03*
D15*
X279703530Y-73649840D03*
D16*
X283513530Y-76189840D03*
D15*
X286053530Y-71109840D03*
D14*
X198106030Y-133339840D03*
X187946030Y-133339840D03*
D15*
X189216030Y-130799840D03*
D16*
X193026030Y-133339840D03*
D15*
X195566030Y-128259840D03*
D14*
X217156030Y-133339840D03*
X206996030Y-133339840D03*
D15*
X208266030Y-130799840D03*
D16*
X212076030Y-133339840D03*
D15*
X214616030Y-128259840D03*
D14*
X62374780Y-133339840D03*
X52214780Y-133339840D03*
D15*
X53484780Y-130799840D03*
D16*
X57294780Y-133339840D03*
D15*
X59834780Y-128259840D03*
D16*
X78726030Y-141594840D03*
X54913530Y-141594840D03*
D18*
X78726030Y-126354840D03*
X54913530Y-126354840D03*
D14*
X71899780Y-133339840D03*
X61739780Y-133339840D03*
D15*
X63009780Y-130799840D03*
D16*
X66819780Y-133339840D03*
D15*
X69359780Y-128259840D03*
D14*
X245731030Y-114289840D03*
X235571030Y-114289840D03*
D15*
X236841030Y-111749840D03*
D16*
X240651030Y-114289840D03*
D15*
X243191030Y-109209840D03*
D14*
X226681030Y-114289840D03*
X216521030Y-114289840D03*
D15*
X217791030Y-111749840D03*
D16*
X221601030Y-114289840D03*
D15*
X224141030Y-109209840D03*
D14*
X207631030Y-114289840D03*
X197471030Y-114289840D03*
D15*
X198741030Y-111749840D03*
D16*
X202551030Y-114289840D03*
D15*
X205091030Y-109209840D03*
D14*
X345743530Y-76189840D03*
X335583530Y-76189840D03*
D15*
X336853530Y-73649840D03*
D16*
X340663530Y-76189840D03*
D15*
X343203530Y-71109840D03*
D14*
X221918530Y-95239840D03*
X211758530Y-95239840D03*
D15*
X213028530Y-92699840D03*
D16*
X216838530Y-95239840D03*
D15*
X219378530Y-90159840D03*
D14*
X345743530Y-114289840D03*
X335583530Y-114289840D03*
D15*
X336853530Y-111749840D03*
D16*
X340663530Y-114289840D03*
D15*
X343203530Y-109209840D03*
D14*
X188581030Y-114289840D03*
X178421030Y-114289840D03*
D15*
X179691030Y-111749840D03*
D16*
X183501030Y-114289840D03*
D15*
X186041030Y-109209840D03*
D14*
X169531030Y-114289840D03*
X159371030Y-114289840D03*
D15*
X160641030Y-111749840D03*
D16*
X164451030Y-114289840D03*
D15*
X166991030Y-109209840D03*
D14*
X150481030Y-114289840D03*
X140321030Y-114289840D03*
D15*
X141591030Y-111749840D03*
D16*
X145401030Y-114289840D03*
D15*
X147941030Y-109209840D03*
D14*
X302881030Y-57139840D03*
X292721030Y-57139840D03*
D15*
X293991030Y-54599840D03*
D16*
X297801030Y-57139840D03*
D15*
X300341030Y-52059840D03*
D14*
X283831030Y-57139840D03*
X273671030Y-57139840D03*
D15*
X274941030Y-54599840D03*
D16*
X278751030Y-57139840D03*
D15*
X281291030Y-52059840D03*
D14*
X264781030Y-57139840D03*
X254621030Y-57139840D03*
D15*
X255891030Y-54599840D03*
D16*
X259701030Y-57139840D03*
D15*
X262241030Y-52059840D03*
D14*
X245731030Y-57139840D03*
X235571030Y-57139840D03*
D15*
X236841030Y-54599840D03*
D16*
X240651030Y-57139840D03*
D15*
X243191030Y-52059840D03*
D14*
X221918530Y-57139840D03*
X211758530Y-57139840D03*
D15*
X213028530Y-54599840D03*
D16*
X216838530Y-57139840D03*
D15*
X219378530Y-52059840D03*
D14*
X202868530Y-57139840D03*
X192708530Y-57139840D03*
D15*
X193978530Y-54599840D03*
D16*
X197788530Y-57139840D03*
D15*
X200328530Y-52059840D03*
D14*
X183818530Y-57139840D03*
X173658530Y-57139840D03*
D15*
X174928530Y-54599840D03*
D16*
X178738530Y-57139840D03*
D15*
X181278530Y-52059840D03*
D14*
X164768530Y-57139840D03*
X154608530Y-57139840D03*
D15*
X155878530Y-54599840D03*
D16*
X159688530Y-57139840D03*
D15*
X162228530Y-52059840D03*
D14*
X140956030Y-57139840D03*
X130796030Y-57139840D03*
D15*
X132066030Y-54599840D03*
D16*
X135876030Y-57139840D03*
D15*
X138416030Y-52059840D03*
D14*
X121906030Y-57139840D03*
X111746030Y-57139840D03*
D15*
X113016030Y-54599840D03*
D16*
X116826030Y-57139840D03*
D15*
X119366030Y-52059840D03*
D14*
X102856030Y-57139840D03*
X92696030Y-57139840D03*
D15*
X93966030Y-54599840D03*
D16*
X97776030Y-57139840D03*
D15*
X100316030Y-52059840D03*
D14*
X83806030Y-57139840D03*
X73646030Y-57139840D03*
D15*
X74916030Y-54599840D03*
D16*
X78726030Y-57139840D03*
D15*
X81266030Y-52059840D03*
D14*
X59993530Y-57139840D03*
X49833530Y-57139840D03*
D15*
X51103530Y-54599840D03*
D16*
X54913530Y-57139840D03*
D15*
X57453530Y-52059840D03*
D16*
X321613530Y-122544840D03*
X297801030Y-122544840D03*
D18*
X321613530Y-107304840D03*
X297801030Y-107304840D03*
D14*
X314787280Y-114289840D03*
X304627280Y-114289840D03*
D15*
X305897280Y-111749840D03*
D16*
X309707280Y-114289840D03*
D15*
X312247280Y-109209840D03*
D14*
X345743530Y-133339840D03*
X335583530Y-133339840D03*
D15*
X336853530Y-130799840D03*
D16*
X340663530Y-133339840D03*
D15*
X343203530Y-128259840D03*
D14*
X126668530Y-95239840D03*
X116508530Y-95239840D03*
D15*
X117778530Y-92699840D03*
D16*
X121588530Y-95239840D03*
D15*
X124128530Y-90159840D03*
D14*
X326693530Y-152389840D03*
X316533530Y-152389840D03*
D15*
X317803530Y-149849840D03*
D16*
X321613530Y-152389840D03*
D15*
X324153530Y-147309840D03*
D14*
X326693530Y-76189840D03*
X316533530Y-76189840D03*
D15*
X317803530Y-73649840D03*
D16*
X321613530Y-76189840D03*
D15*
X324153530Y-71109840D03*
D14*
X131431030Y-114289840D03*
X121271030Y-114289840D03*
D15*
X122541030Y-111749840D03*
D16*
X126351030Y-114289840D03*
D15*
X128891030Y-109209840D03*
D14*
X64756030Y-152389840D03*
X54596030Y-152389840D03*
D15*
X55866030Y-149849840D03*
D16*
X59676030Y-152389840D03*
D15*
X62216030Y-147309840D03*
D14*
X62374780Y-152389840D03*
X52214780Y-152389840D03*
D15*
X53484780Y-149849840D03*
D16*
X57294780Y-152389840D03*
D15*
X59834780Y-147309840D03*
D14*
X62230000Y-114300000D03*
X52070000Y-114300000D03*
D15*
X53340000Y-111760000D03*
D16*
X57150000Y-114300000D03*
D15*
X59690000Y-109220000D03*
D14*
X67137280Y-114289840D03*
X56977280Y-114289840D03*
D15*
X58247280Y-111749840D03*
D16*
X62057280Y-114289840D03*
D15*
X64597280Y-109209840D03*
D14*
X140956030Y-133339840D03*
X130796030Y-133339840D03*
D15*
X132066030Y-130799840D03*
D16*
X135876030Y-133339840D03*
D15*
X138416030Y-128259840D03*
D16*
X323994780Y-84444840D03*
X300182280Y-84444840D03*
D18*
X323994780Y-69204840D03*
X300182280Y-69204840D03*
D14*
X317168530Y-76189840D03*
X307008530Y-76189840D03*
D15*
X308278530Y-73649840D03*
D16*
X312088530Y-76189840D03*
D15*
X314628530Y-71109840D03*
D14*
X179056030Y-133339840D03*
X168896030Y-133339840D03*
D15*
X170166030Y-130799840D03*
D16*
X173976030Y-133339840D03*
D15*
X176516030Y-128259840D03*
D14*
X252874780Y-152389840D03*
X242714780Y-152389840D03*
D15*
X243984780Y-149849840D03*
D16*
X247794780Y-152389840D03*
D15*
X250334780Y-147309840D03*
D14*
X274306030Y-152389840D03*
X264146030Y-152389840D03*
D15*
X265416030Y-149849840D03*
D16*
X269226030Y-152389840D03*
D15*
X271766030Y-147309840D03*
D14*
X112381030Y-152389840D03*
X102221030Y-152389840D03*
D15*
X103491030Y-149849840D03*
D16*
X107301030Y-152389840D03*
D15*
X109841030Y-147309840D03*
X107459780Y-147309840D03*
D16*
X104919780Y-152389840D03*
D15*
X101109780Y-149849840D03*
D14*
X99839780Y-152389840D03*
X109999780Y-152389840D03*
X283831030Y-114289840D03*
X273671030Y-114289840D03*
D15*
X274941030Y-111749840D03*
D16*
X278751030Y-114289840D03*
D15*
X281291030Y-109209840D03*
D14*
X93331030Y-114289840D03*
X83171030Y-114289840D03*
D15*
X84441030Y-111749840D03*
D16*
X88251030Y-114289840D03*
D15*
X90791030Y-109209840D03*
D14*
X274306030Y-133339840D03*
X264146030Y-133339840D03*
D15*
X265416030Y-130799840D03*
D16*
X269226030Y-133339840D03*
D15*
X271766030Y-128259840D03*
D14*
X298118530Y-95239840D03*
X287958530Y-95239840D03*
D15*
X289228530Y-92699840D03*
D16*
X293038530Y-95239840D03*
D15*
X295578530Y-90159840D03*
D14*
X302881030Y-114289840D03*
X292721030Y-114289840D03*
D15*
X293991030Y-111749840D03*
D16*
X297801030Y-114289840D03*
D15*
X300341030Y-109209840D03*
D14*
X231443530Y-76189840D03*
X221283530Y-76189840D03*
D15*
X222553530Y-73649840D03*
D16*
X226363530Y-76189840D03*
D15*
X228903530Y-71109840D03*
D14*
X212393530Y-76189840D03*
X202233530Y-76189840D03*
D15*
X203503530Y-73649840D03*
D16*
X207313530Y-76189840D03*
D15*
X209853530Y-71109840D03*
D14*
X193343530Y-76189840D03*
X183183530Y-76189840D03*
D15*
X184453530Y-73649840D03*
D16*
X188263530Y-76189840D03*
D15*
X190803530Y-71109840D03*
D14*
X174293530Y-76189840D03*
X164133530Y-76189840D03*
D15*
X165403530Y-73649840D03*
D16*
X169213530Y-76189840D03*
D15*
X171753530Y-71109840D03*
D14*
X155243530Y-76189840D03*
X145083530Y-76189840D03*
D15*
X146353530Y-73649840D03*
D16*
X150163530Y-76189840D03*
D15*
X152703530Y-71109840D03*
D14*
X136193530Y-76189840D03*
X126033530Y-76189840D03*
D15*
X127303530Y-73649840D03*
D16*
X131113530Y-76189840D03*
D15*
X133653530Y-71109840D03*
D14*
X117143530Y-76189840D03*
X106983530Y-76189840D03*
D15*
X108253530Y-73649840D03*
D16*
X112063530Y-76189840D03*
D15*
X114603530Y-71109840D03*
D14*
X98093530Y-76189840D03*
X87933530Y-76189840D03*
D15*
X89203530Y-73649840D03*
D16*
X93013530Y-76189840D03*
D15*
X95553530Y-71109840D03*
D14*
X79043530Y-76189840D03*
X68883530Y-76189840D03*
D15*
X70153530Y-73649840D03*
D16*
X73963530Y-76189840D03*
D15*
X76503530Y-71109840D03*
D14*
X250493530Y-76189840D03*
X240333530Y-76189840D03*
D15*
X241603530Y-73649840D03*
D16*
X245413530Y-76189840D03*
D15*
X247953530Y-71109840D03*
D14*
X255256030Y-133339840D03*
X245096030Y-133339840D03*
D15*
X246366030Y-130799840D03*
D16*
X250176030Y-133339840D03*
D15*
X252716030Y-128259840D03*
D14*
X236206030Y-133339840D03*
X226046030Y-133339840D03*
D15*
X227316030Y-130799840D03*
D16*
X231126030Y-133339840D03*
D15*
X233666030Y-128259840D03*
D26*
X72542400Y-49643200D03*
X72542400Y-52363200D03*
X63449200Y-57579600D03*
X63449200Y-60299600D03*
D27*
X60401200Y-51886000D03*
X60401200Y-54286000D03*
D28*
X138587500Y-141080000D03*
X138587500Y-137780000D03*
X143487500Y-141080000D03*
X143487500Y-137780000D03*
X181487500Y-137780000D03*
X181487500Y-141080000D03*
X176587500Y-137780000D03*
X176587500Y-141080000D03*
X219487500Y-137780000D03*
X219487500Y-141080000D03*
X214587500Y-137780000D03*
X214587500Y-141080000D03*
X257493000Y-137780000D03*
X257493000Y-141080000D03*
X252593000Y-137780000D03*
X252593000Y-141080000D03*
X295493000Y-137780000D03*
X295493000Y-141080000D03*
X290593000Y-137780000D03*
X290593000Y-141080000D03*
D29*
G36*
X331830317Y-135682334D02*
G01*
X332466713Y-136318730D01*
X331406053Y-137379390D01*
X330769657Y-136742994D01*
X331830317Y-135682334D01*
G37*
G36*
X334163770Y-138015787D02*
G01*
X334800166Y-138652183D01*
X333739506Y-139712843D01*
X333103110Y-139076447D01*
X334163770Y-138015787D01*
G37*
G36*
X328365494Y-139147157D02*
G01*
X329001890Y-139783553D01*
X327941230Y-140844213D01*
X327304834Y-140207817D01*
X328365494Y-139147157D01*
G37*
G36*
X330698947Y-141480610D02*
G01*
X331335343Y-142117006D01*
X330274683Y-143177666D01*
X329638287Y-142541270D01*
X330698947Y-141480610D01*
G37*
D28*
X328512000Y-106425000D03*
X328512000Y-103125000D03*
X333412000Y-106425000D03*
X333412000Y-103125000D03*
D29*
G36*
X327214334Y-69326183D02*
G01*
X327850730Y-68689787D01*
X328911390Y-69750447D01*
X328274994Y-70386843D01*
X327214334Y-69326183D01*
G37*
G36*
X329547787Y-66992730D02*
G01*
X330184183Y-66356334D01*
X331244843Y-67416994D01*
X330608447Y-68053390D01*
X329547787Y-66992730D01*
G37*
G36*
X330679157Y-72791006D02*
G01*
X331315553Y-72154610D01*
X332376213Y-73215270D01*
X331739817Y-73851666D01*
X330679157Y-72791006D01*
G37*
G36*
X333012610Y-70457553D02*
G01*
X333649006Y-69821157D01*
X334709666Y-70881817D01*
X334073270Y-71518213D01*
X333012610Y-70457553D01*
G37*
D28*
X295439000Y-68454000D03*
X295439000Y-71754000D03*
X290539000Y-68454000D03*
X290539000Y-71754000D03*
X252566000Y-71754000D03*
X252566000Y-68454000D03*
X257466000Y-71754000D03*
X257466000Y-68454000D03*
X214593000Y-71754000D03*
X214593000Y-68454000D03*
X219493000Y-71754000D03*
X219493000Y-68454000D03*
X176620000Y-71754000D03*
X176620000Y-68454000D03*
X181520000Y-71754000D03*
X181520000Y-68454000D03*
X138647000Y-71754000D03*
X138647000Y-68454000D03*
X143547000Y-71754000D03*
X143547000Y-68454000D03*
X105472400Y-68454000D03*
X105472400Y-71754000D03*
X100572400Y-68454000D03*
X100572400Y-71754000D03*
D29*
G36*
X65377553Y-68053390D02*
G01*
X64741157Y-67416994D01*
X65801817Y-66356334D01*
X66438213Y-66992730D01*
X65377553Y-68053390D01*
G37*
G36*
X67711006Y-70386843D02*
G01*
X67074610Y-69750447D01*
X68135270Y-68689787D01*
X68771666Y-69326183D01*
X67711006Y-70386843D01*
G37*
G36*
X61912730Y-71518213D02*
G01*
X61276334Y-70881817D01*
X62336994Y-69821157D01*
X62973390Y-70457553D01*
X61912730Y-71518213D01*
G37*
G36*
X64246183Y-73851666D02*
G01*
X63609787Y-73215270D01*
X64670447Y-72154610D01*
X65306843Y-72791006D01*
X64246183Y-73851666D01*
G37*
D28*
X62574000Y-106425000D03*
X62574000Y-103125000D03*
X67474000Y-106425000D03*
X67474000Y-103125000D03*
D29*
G36*
X62986890Y-139076447D02*
G01*
X62350494Y-139712843D01*
X61289834Y-138652183D01*
X61926230Y-138015787D01*
X62986890Y-139076447D01*
G37*
G36*
X65320343Y-136742994D02*
G01*
X64683947Y-137379390D01*
X63623287Y-136318730D01*
X64259683Y-135682334D01*
X65320343Y-136742994D01*
G37*
G36*
X66451713Y-142541270D02*
G01*
X65815317Y-143177666D01*
X64754657Y-142117006D01*
X65391053Y-141480610D01*
X66451713Y-142541270D01*
G37*
G36*
X68785166Y-140207817D02*
G01*
X68148770Y-140844213D01*
X67088110Y-139783553D01*
X67724506Y-139147157D01*
X68785166Y-140207817D01*
G37*
D28*
X100587500Y-141080000D03*
X100587500Y-137780000D03*
X105487500Y-141080000D03*
X105487500Y-137780000D03*
D30*
X340284800Y-156464000D03*
X343584800Y-156464000D03*
D31*
X331673200Y-154050000D03*
X331673200Y-150750000D03*
X312775600Y-154050000D03*
X312775600Y-150750000D03*
X281781250Y-154050000D03*
X281781250Y-150750000D03*
X257962400Y-154050000D03*
X257962400Y-150750000D03*
X196850000Y-144627600D03*
X196850000Y-147927600D03*
X117475000Y-154050000D03*
X117475000Y-150750000D03*
X93624400Y-154074400D03*
X93624400Y-150774400D03*
X69799200Y-154050000D03*
X69799200Y-150750000D03*
X343693750Y-142143750D03*
X343693750Y-138843750D03*
X324643750Y-142143750D03*
X324643750Y-138843750D03*
X298450000Y-142143750D03*
X298450000Y-138843750D03*
X272256250Y-142143750D03*
X272256250Y-138843750D03*
X248412000Y-142143750D03*
X248412000Y-138843750D03*
X234156250Y-142143750D03*
X234156250Y-138843750D03*
X210121500Y-142143750D03*
X210121500Y-138843750D03*
X196056250Y-142143750D03*
X196056250Y-138843750D03*
X172021500Y-142143750D03*
X172021500Y-138843750D03*
X157956250Y-142143750D03*
X157956250Y-138843750D03*
X134175500Y-142143750D03*
X134175500Y-138843750D03*
X119856250Y-142143750D03*
X119856250Y-138843750D03*
X95821500Y-142112000D03*
X95821500Y-138812000D03*
X83439000Y-142143750D03*
X83439000Y-138843750D03*
X70739000Y-142143750D03*
X70739000Y-138843750D03*
X343693750Y-123093750D03*
X343693750Y-119793750D03*
X304800000Y-123093750D03*
X304800000Y-119793750D03*
X281781250Y-123093750D03*
X281781250Y-119793750D03*
X262731250Y-123093750D03*
X262731250Y-119793750D03*
X243681250Y-123093750D03*
X243681250Y-119793750D03*
X224631250Y-123093750D03*
X224631250Y-119793750D03*
X205581250Y-123093750D03*
X205581250Y-119793750D03*
X186531250Y-123093750D03*
X186531250Y-119793750D03*
X167481250Y-123093750D03*
X167481250Y-119793750D03*
X148431250Y-123093750D03*
X148431250Y-119793750D03*
X129381250Y-123093750D03*
X129381250Y-119793750D03*
X110331250Y-123093750D03*
X110331250Y-119793750D03*
X91281250Y-123093750D03*
X91281250Y-119793750D03*
X70643750Y-123093750D03*
X70643750Y-119793750D03*
X343693750Y-104043750D03*
X343693750Y-100743750D03*
X325247000Y-100712000D03*
X325247000Y-104012000D03*
X296068750Y-104043750D03*
X296068750Y-100743750D03*
X277018750Y-104043750D03*
X277018750Y-100743750D03*
X257968750Y-104043750D03*
X257968750Y-100743750D03*
X238918750Y-104043750D03*
X238918750Y-100743750D03*
X219868750Y-104043750D03*
X219868750Y-100743750D03*
X200818750Y-104043750D03*
X200818750Y-100743750D03*
X181768750Y-104043750D03*
X181768750Y-100743750D03*
X162718750Y-104043750D03*
X162718750Y-100743750D03*
X143668750Y-104043750D03*
X143668750Y-100743750D03*
X124618750Y-104043750D03*
X124618750Y-100743750D03*
X105568750Y-104043750D03*
X105568750Y-100743750D03*
X86518750Y-104043750D03*
X86518750Y-100743750D03*
X71628000Y-104043750D03*
X71628000Y-100743750D03*
X343693750Y-84993750D03*
X343693750Y-81693750D03*
X329565000Y-84962000D03*
X329565000Y-81662000D03*
X305593750Y-84993750D03*
X305593750Y-81693750D03*
X286543750Y-84993750D03*
X286543750Y-81693750D03*
X267493750Y-84993750D03*
X267493750Y-81693750D03*
X248443750Y-84993750D03*
X248443750Y-81693750D03*
X229393750Y-84993750D03*
X229393750Y-81693750D03*
X210343750Y-84993750D03*
X210343750Y-81693750D03*
X191293750Y-84993750D03*
X191293750Y-81693750D03*
X172243750Y-84993750D03*
X172243750Y-81693750D03*
X153193750Y-84993750D03*
X153193750Y-81693750D03*
X134143750Y-84993750D03*
X134143750Y-81693750D03*
X115093750Y-84993750D03*
X115093750Y-81693750D03*
X96043750Y-84993750D03*
X96043750Y-81693750D03*
X76993750Y-84993750D03*
X76993750Y-81693750D03*
X57943750Y-84993750D03*
X57943750Y-81693750D03*
X343693750Y-65943750D03*
X343693750Y-62643750D03*
X324643750Y-65943750D03*
X324643750Y-62643750D03*
X300831250Y-65943750D03*
X300831250Y-62643750D03*
X281781250Y-65943750D03*
X281781250Y-62643750D03*
X262731250Y-65943750D03*
X262731250Y-62643750D03*
X243681250Y-65943750D03*
X243681250Y-62643750D03*
X219868750Y-65943750D03*
X219868750Y-62643750D03*
X200818750Y-65943750D03*
X200818750Y-62643750D03*
X181768750Y-65943750D03*
X181768750Y-62643750D03*
X162718750Y-65943750D03*
X162718750Y-62643750D03*
X138906250Y-65943750D03*
X138906250Y-62643750D03*
X119856250Y-65943750D03*
X119856250Y-62643750D03*
X100806250Y-65943750D03*
X100806250Y-62643750D03*
X81756250Y-65943750D03*
X81756250Y-62643750D03*
X57943750Y-65943750D03*
X57943750Y-62643750D03*
D32*
X65568000Y-52948800D03*
X65568000Y-54848800D03*
X67528000Y-54848800D03*
D33*
X67528000Y-53148800D03*
D34*
X141770800Y-135686800D03*
X140270800Y-135686800D03*
X179769200Y-135686800D03*
X178269200Y-135686800D03*
X217767600Y-135686800D03*
X216267600Y-135686800D03*
X255766000Y-135661400D03*
X254266000Y-135661400D03*
X292646800Y-135636000D03*
X291146800Y-135636000D03*
D29*
G36*
X328934652Y-136822078D02*
G01*
X328404322Y-136291748D01*
X328970008Y-135726062D01*
X329500338Y-136256392D01*
X328934652Y-136822078D01*
G37*
G36*
X327873992Y-137882738D02*
G01*
X327343662Y-137352408D01*
X327909348Y-136786722D01*
X328439678Y-137317052D01*
X327873992Y-137882738D01*
G37*
D34*
X331712000Y-108508800D03*
X330212000Y-108508800D03*
D29*
G36*
X328338078Y-72232948D02*
G01*
X327807748Y-72763278D01*
X327242062Y-72197592D01*
X327772392Y-71667262D01*
X328338078Y-72232948D01*
G37*
G36*
X329398738Y-73293608D02*
G01*
X328868408Y-73823938D01*
X328302722Y-73258252D01*
X328833052Y-72727922D01*
X329398738Y-73293608D01*
G37*
D34*
X292239000Y-73812400D03*
X293739000Y-73812400D03*
X254266000Y-73812400D03*
X255766000Y-73812400D03*
X216293000Y-73812400D03*
X217793000Y-73812400D03*
X178320000Y-73812400D03*
X179820000Y-73812400D03*
X141847000Y-73787000D03*
X140347000Y-73787000D03*
X102272400Y-73812400D03*
X103772400Y-73812400D03*
D29*
G36*
X61869748Y-67495522D02*
G01*
X62400078Y-68025852D01*
X61834392Y-68591538D01*
X61304062Y-68061208D01*
X61869748Y-67495522D01*
G37*
G36*
X62930408Y-66434862D02*
G01*
X63460738Y-66965192D01*
X62895052Y-67530878D01*
X62364722Y-67000548D01*
X62930408Y-66434862D01*
G37*
D34*
X65774000Y-101041200D03*
X64274000Y-101041200D03*
D29*
G36*
X62364722Y-142651052D02*
G01*
X62895052Y-142120722D01*
X63460738Y-142686408D01*
X62930408Y-143216738D01*
X62364722Y-142651052D01*
G37*
G36*
X61304062Y-141590392D02*
G01*
X61834392Y-141060062D01*
X62400078Y-141625748D01*
X61869748Y-142156078D01*
X61304062Y-141590392D01*
G37*
D34*
X102272400Y-135686800D03*
X103772400Y-135686800D03*
X165354000Y-147447000D03*
X166854000Y-147447000D03*
X166854000Y-153797000D03*
X165354000Y-153797000D03*
D17*
X141706600Y-148259800D03*
X141706600Y-146759800D03*
X153327100Y-143877600D03*
X153327100Y-145377600D03*
D34*
X155942600Y-156667200D03*
X157442600Y-156667200D03*
D17*
X141706600Y-155207400D03*
X141706600Y-153707400D03*
X151955500Y-145377600D03*
X151955500Y-143877600D03*
M02*
