%TF.GenerationSoftware,KiCad,Pcbnew,(5.1.8)-1*%
%TF.CreationDate,2021-02-05T17:02:16+01:00*%
%TF.ProjectId,Space Cowboy - A Jupiter75 Replacement PCB,53706163-6520-4436-9f77-626f79202d20,rev?*%
%TF.SameCoordinates,Original*%
%TF.FileFunction,Legend,Bot*%
%TF.FilePolarity,Positive*%
%FSLAX46Y46*%
G04 Gerber Fmt 4.6, Leading zero omitted, Abs format (unit mm)*
G04 Created by KiCad (PCBNEW (5.1.8)-1) date 2021-02-05 17:02:16*
%MOMM*%
%LPD*%
G01*
G04 APERTURE LIST*
%ADD10C,0.100000*%
%ADD11C,0.120000*%
%ADD12C,0.010000*%
%ADD13C,0.127000*%
%ADD14C,0.150000*%
%ADD15C,0.200000*%
%ADD16C,0.015000*%
%ADD17R,1.300000X0.700000*%
%ADD18R,1.000000X0.300000*%
%ADD19R,0.300000X1.000000*%
%ADD20R,5.080000X5.080000*%
%ADD21C,1.750000*%
%ADD22C,2.250000*%
%ADD23C,3.987800*%
%ADD24R,0.750000X0.800000*%
%ADD25C,3.048000*%
%ADD26R,1.200000X1.400000*%
%ADD27R,0.600000X1.450000*%
%ADD28R,0.300000X1.450000*%
%ADD29C,0.650000*%
%ADD30R,1.800000X1.100000*%
%ADD31R,0.500000X0.900000*%
%ADD32R,0.900000X0.500000*%
%ADD33R,1.820000X1.400000*%
%ADD34R,2.030000X1.140000*%
%ADD35R,1.500000X0.900000*%
%ADD36R,0.900000X1.200000*%
%ADD37R,1.200000X0.900000*%
%ADD38R,1.260000X0.590000*%
%ADD39R,1.260000X0.990000*%
%ADD40R,0.800000X0.750000*%
G04 APERTURE END LIST*
D10*
X198580238Y-158489790D02*
X198624880Y-158846933D01*
X198657619Y-158918361D01*
X198711190Y-158965980D01*
X198785595Y-158989790D01*
X198833214Y-158989790D01*
X198398690Y-158942171D02*
X198377857Y-158965980D01*
X198404642Y-158989790D01*
X198425476Y-158965980D01*
X198398690Y-158942171D01*
X198404642Y-158989790D01*
X197874880Y-158942171D02*
X197901666Y-158965980D01*
X197976071Y-158989790D01*
X198023690Y-158989790D01*
X198092142Y-158965980D01*
X198133809Y-158918361D01*
X198151666Y-158870742D01*
X198163571Y-158775504D01*
X198154642Y-158704076D01*
X198118928Y-158608838D01*
X198089166Y-158561219D01*
X198035595Y-158513600D01*
X197961190Y-158489790D01*
X197913571Y-158489790D01*
X197845119Y-158513600D01*
X197824285Y-158537409D01*
X197660595Y-158942171D02*
X197639761Y-158965980D01*
X197666547Y-158989790D01*
X197687380Y-158965980D01*
X197660595Y-158942171D01*
X197666547Y-158989790D01*
X197428452Y-158989790D02*
X197365952Y-158489790D01*
X197142738Y-158989790D02*
X197321309Y-158704076D01*
X197080238Y-158489790D02*
X197401666Y-158775504D01*
X196922500Y-158942171D02*
X196901666Y-158965980D01*
X196928452Y-158989790D01*
X196949285Y-158965980D01*
X196922500Y-158942171D01*
X196928452Y-158989790D01*
X199785595Y-159839790D02*
X199922500Y-159601695D01*
X200071309Y-159839790D02*
X200008809Y-159339790D01*
X199818333Y-159339790D01*
X199773690Y-159363600D01*
X199752857Y-159387409D01*
X199735000Y-159435028D01*
X199743928Y-159506457D01*
X199773690Y-159554076D01*
X199800476Y-159577885D01*
X199851071Y-159601695D01*
X200041547Y-159601695D01*
X199377857Y-159815980D02*
X199428452Y-159839790D01*
X199523690Y-159839790D01*
X199568333Y-159815980D01*
X199586190Y-159768361D01*
X199562380Y-159577885D01*
X199532619Y-159530266D01*
X199482023Y-159506457D01*
X199386785Y-159506457D01*
X199342142Y-159530266D01*
X199324285Y-159577885D01*
X199330238Y-159625504D01*
X199574285Y-159673123D01*
X199148690Y-159506457D02*
X199071309Y-159839790D01*
X198910595Y-159506457D01*
X198761785Y-159839790D02*
X198720119Y-159506457D01*
X198699285Y-159339790D02*
X198726071Y-159363600D01*
X198705238Y-159387409D01*
X198678452Y-159363600D01*
X198699285Y-159339790D01*
X198705238Y-159387409D01*
X198544523Y-159815980D02*
X198499880Y-159839790D01*
X198404642Y-159839790D01*
X198354047Y-159815980D01*
X198324285Y-159768361D01*
X198321309Y-159744552D01*
X198339166Y-159696933D01*
X198383809Y-159673123D01*
X198455238Y-159673123D01*
X198499880Y-159649314D01*
X198517738Y-159601695D01*
X198514761Y-159577885D01*
X198485000Y-159530266D01*
X198434404Y-159506457D01*
X198362976Y-159506457D01*
X198318333Y-159530266D01*
X198118928Y-159839790D02*
X198077261Y-159506457D01*
X198056428Y-159339790D02*
X198083214Y-159363600D01*
X198062380Y-159387409D01*
X198035595Y-159363600D01*
X198056428Y-159339790D01*
X198062380Y-159387409D01*
X197809404Y-159839790D02*
X197854047Y-159815980D01*
X197874880Y-159792171D01*
X197892738Y-159744552D01*
X197874880Y-159601695D01*
X197845119Y-159554076D01*
X197818333Y-159530266D01*
X197767738Y-159506457D01*
X197696309Y-159506457D01*
X197651666Y-159530266D01*
X197630833Y-159554076D01*
X197612976Y-159601695D01*
X197630833Y-159744552D01*
X197660595Y-159792171D01*
X197687380Y-159815980D01*
X197737976Y-159839790D01*
X197809404Y-159839790D01*
X197386785Y-159506457D02*
X197428452Y-159839790D01*
X197392738Y-159554076D02*
X197365952Y-159530266D01*
X197315357Y-159506457D01*
X197243928Y-159506457D01*
X197199285Y-159530266D01*
X197181428Y-159577885D01*
X197214166Y-159839790D01*
X196333214Y-159839790D02*
X196618928Y-159839790D01*
X196476071Y-159839790D02*
X196413571Y-159339790D01*
X196470119Y-159411219D01*
X196523690Y-159458838D01*
X196574285Y-159482647D01*
X196112976Y-159792171D02*
X196092142Y-159815980D01*
X196118928Y-159839790D01*
X196139761Y-159815980D01*
X196112976Y-159792171D01*
X196118928Y-159839790D01*
X195618928Y-159839790D02*
X195904642Y-159839790D01*
X195761785Y-159839790D02*
X195699285Y-159339790D01*
X195755833Y-159411219D01*
X195809404Y-159458838D01*
X195860000Y-159482647D01*
X198657619Y-160237409D02*
X198630833Y-160213600D01*
X198580238Y-160189790D01*
X198461190Y-160189790D01*
X198416547Y-160213600D01*
X198395714Y-160237409D01*
X198377857Y-160285028D01*
X198383809Y-160332647D01*
X198416547Y-160404076D01*
X198737976Y-160689790D01*
X198428452Y-160689790D01*
X198056428Y-160189790D02*
X198008809Y-160189790D01*
X197964166Y-160213600D01*
X197943333Y-160237409D01*
X197925476Y-160285028D01*
X197913571Y-160380266D01*
X197928452Y-160499314D01*
X197964166Y-160594552D01*
X197993928Y-160642171D01*
X198020714Y-160665980D01*
X198071309Y-160689790D01*
X198118928Y-160689790D01*
X198163571Y-160665980D01*
X198184404Y-160642171D01*
X198202261Y-160594552D01*
X198214166Y-160499314D01*
X198199285Y-160380266D01*
X198163571Y-160285028D01*
X198133809Y-160237409D01*
X198107023Y-160213600D01*
X198056428Y-160189790D01*
X197705238Y-160237409D02*
X197678452Y-160213600D01*
X197627857Y-160189790D01*
X197508809Y-160189790D01*
X197464166Y-160213600D01*
X197443333Y-160237409D01*
X197425476Y-160285028D01*
X197431428Y-160332647D01*
X197464166Y-160404076D01*
X197785595Y-160689790D01*
X197476071Y-160689790D01*
X196999880Y-160689790D02*
X197285595Y-160689790D01*
X197142738Y-160689790D02*
X197080238Y-160189790D01*
X197136785Y-160261219D01*
X197190357Y-160308838D01*
X197240952Y-160332647D01*
D11*
X157082600Y-144497500D02*
X157082600Y-145697500D01*
X158842600Y-145697500D02*
X158842600Y-144497500D01*
D12*
G36*
X210248881Y-154877605D02*
G01*
X210242933Y-154880615D01*
X210092376Y-154944111D01*
X210002739Y-154946235D01*
X209980796Y-154931415D01*
X209886097Y-154884349D01*
X209827948Y-154876500D01*
X209768313Y-154888331D01*
X209748089Y-154941547D01*
X209759395Y-155062728D01*
X209763948Y-155092400D01*
X209800380Y-155272344D01*
X209854087Y-155482564D01*
X209882020Y-155577225D01*
X209938558Y-155735028D01*
X209990300Y-155813465D01*
X210052146Y-155832845D01*
X210068410Y-155831225D01*
X210147793Y-155785817D01*
X210199682Y-155664859D01*
X210211382Y-155613100D01*
X210269118Y-155377473D01*
X210335996Y-155225216D01*
X210422890Y-155138113D01*
X210516029Y-155102677D01*
X210687442Y-155111062D01*
X210837343Y-155199373D01*
X210948774Y-155346040D01*
X211004774Y-155529490D01*
X210993366Y-155709815D01*
X210947968Y-155801177D01*
X210850841Y-155946350D01*
X210717636Y-156123102D01*
X210606569Y-156259339D01*
X210396341Y-156526169D01*
X210256564Y-156749182D01*
X210177713Y-156947219D01*
X210150260Y-157139122D01*
X210149967Y-157162500D01*
X210199203Y-157465231D01*
X210340674Y-157747819D01*
X210472916Y-157905784D01*
X210737137Y-158103636D01*
X211038984Y-158207692D01*
X211376080Y-158217549D01*
X211746046Y-158132804D01*
X211767878Y-158125185D01*
X211961956Y-158068521D01*
X212089235Y-158063022D01*
X212132838Y-158078097D01*
X212250058Y-158124612D01*
X212321062Y-158108241D01*
X212347778Y-158021445D01*
X212332135Y-157856683D01*
X212276061Y-157606418D01*
X212264697Y-157562615D01*
X212207757Y-157355972D01*
X212162900Y-157229296D01*
X212119666Y-157163486D01*
X212067595Y-157139442D01*
X212031686Y-157137100D01*
X211958074Y-157149167D01*
X211904709Y-157198510D01*
X211860259Y-157304838D01*
X211813389Y-157487863D01*
X211802778Y-157535174D01*
X211717425Y-157734805D01*
X211579276Y-157862290D01*
X211409028Y-157915636D01*
X211227376Y-157892849D01*
X211055018Y-157791935D01*
X210917898Y-157620400D01*
X210848833Y-157459704D01*
X210838319Y-157308643D01*
X210892147Y-157149145D01*
X211016107Y-156963137D01*
X211195158Y-156755143D01*
X211395395Y-156529482D01*
X211532312Y-156349986D01*
X211616569Y-156193187D01*
X211658829Y-156035613D01*
X211669752Y-155853795D01*
X211665518Y-155719692D01*
X211629726Y-155434572D01*
X211545525Y-155221379D01*
X211397818Y-155056054D01*
X211171508Y-154914540D01*
X211155080Y-154906271D01*
X210839720Y-154796261D01*
X210537335Y-154786696D01*
X210248881Y-154877605D01*
G37*
X210248881Y-154877605D02*
X210242933Y-154880615D01*
X210092376Y-154944111D01*
X210002739Y-154946235D01*
X209980796Y-154931415D01*
X209886097Y-154884349D01*
X209827948Y-154876500D01*
X209768313Y-154888331D01*
X209748089Y-154941547D01*
X209759395Y-155062728D01*
X209763948Y-155092400D01*
X209800380Y-155272344D01*
X209854087Y-155482564D01*
X209882020Y-155577225D01*
X209938558Y-155735028D01*
X209990300Y-155813465D01*
X210052146Y-155832845D01*
X210068410Y-155831225D01*
X210147793Y-155785817D01*
X210199682Y-155664859D01*
X210211382Y-155613100D01*
X210269118Y-155377473D01*
X210335996Y-155225216D01*
X210422890Y-155138113D01*
X210516029Y-155102677D01*
X210687442Y-155111062D01*
X210837343Y-155199373D01*
X210948774Y-155346040D01*
X211004774Y-155529490D01*
X210993366Y-155709815D01*
X210947968Y-155801177D01*
X210850841Y-155946350D01*
X210717636Y-156123102D01*
X210606569Y-156259339D01*
X210396341Y-156526169D01*
X210256564Y-156749182D01*
X210177713Y-156947219D01*
X210150260Y-157139122D01*
X210149967Y-157162500D01*
X210199203Y-157465231D01*
X210340674Y-157747819D01*
X210472916Y-157905784D01*
X210737137Y-158103636D01*
X211038984Y-158207692D01*
X211376080Y-158217549D01*
X211746046Y-158132804D01*
X211767878Y-158125185D01*
X211961956Y-158068521D01*
X212089235Y-158063022D01*
X212132838Y-158078097D01*
X212250058Y-158124612D01*
X212321062Y-158108241D01*
X212347778Y-158021445D01*
X212332135Y-157856683D01*
X212276061Y-157606418D01*
X212264697Y-157562615D01*
X212207757Y-157355972D01*
X212162900Y-157229296D01*
X212119666Y-157163486D01*
X212067595Y-157139442D01*
X212031686Y-157137100D01*
X211958074Y-157149167D01*
X211904709Y-157198510D01*
X211860259Y-157304838D01*
X211813389Y-157487863D01*
X211802778Y-157535174D01*
X211717425Y-157734805D01*
X211579276Y-157862290D01*
X211409028Y-157915636D01*
X211227376Y-157892849D01*
X211055018Y-157791935D01*
X210917898Y-157620400D01*
X210848833Y-157459704D01*
X210838319Y-157308643D01*
X210892147Y-157149145D01*
X211016107Y-156963137D01*
X211195158Y-156755143D01*
X211395395Y-156529482D01*
X211532312Y-156349986D01*
X211616569Y-156193187D01*
X211658829Y-156035613D01*
X211669752Y-155853795D01*
X211665518Y-155719692D01*
X211629726Y-155434572D01*
X211545525Y-155221379D01*
X211397818Y-155056054D01*
X211171508Y-154914540D01*
X211155080Y-154906271D01*
X210839720Y-154796261D01*
X210537335Y-154786696D01*
X210248881Y-154877605D01*
G36*
X192977760Y-154736790D02*
G01*
X192702834Y-154816686D01*
X192461983Y-154974467D01*
X192268227Y-155208867D01*
X192168704Y-155414870D01*
X192083551Y-155767024D01*
X192065844Y-156163801D01*
X192112733Y-156576468D01*
X192221367Y-156976294D01*
X192352912Y-157271464D01*
X192528534Y-157536214D01*
X192749887Y-157784948D01*
X192987560Y-157987344D01*
X193136816Y-158079662D01*
X193391047Y-158169896D01*
X193678435Y-158210548D01*
X193955574Y-158198126D01*
X194114117Y-158158295D01*
X194383245Y-158010797D01*
X194583979Y-157792682D01*
X194718179Y-157500953D01*
X194787706Y-157132615D01*
X194791500Y-157084554D01*
X194192321Y-157084554D01*
X194185462Y-157372044D01*
X194138387Y-157612681D01*
X194048457Y-157790385D01*
X193961660Y-157866967D01*
X193774368Y-157921974D01*
X193577722Y-157877485D01*
X193409110Y-157763801D01*
X193227450Y-157553718D01*
X193059051Y-157263691D01*
X192912072Y-156915248D01*
X192794670Y-156529916D01*
X192715002Y-156129222D01*
X192686387Y-155856493D01*
X192680822Y-155556529D01*
X192710656Y-155339177D01*
X192780350Y-155190274D01*
X192894369Y-155095655D01*
X192931572Y-155078303D01*
X193128590Y-155042378D01*
X193322983Y-155102452D01*
X193521925Y-155260870D01*
X193536643Y-155276163D01*
X193715689Y-155507096D01*
X193870346Y-155787656D01*
X193997975Y-156101761D01*
X194095939Y-156433332D01*
X194161600Y-156766290D01*
X194192321Y-157084554D01*
X194791500Y-157084554D01*
X194793039Y-157065060D01*
X194778376Y-156567686D01*
X194671400Y-156093085D01*
X194476832Y-155654960D01*
X194199394Y-155267015D01*
X194157866Y-155221389D01*
X193876816Y-154977080D01*
X193577770Y-154815721D01*
X193273745Y-154736047D01*
X192977760Y-154736790D01*
G37*
X192977760Y-154736790D02*
X192702834Y-154816686D01*
X192461983Y-154974467D01*
X192268227Y-155208867D01*
X192168704Y-155414870D01*
X192083551Y-155767024D01*
X192065844Y-156163801D01*
X192112733Y-156576468D01*
X192221367Y-156976294D01*
X192352912Y-157271464D01*
X192528534Y-157536214D01*
X192749887Y-157784948D01*
X192987560Y-157987344D01*
X193136816Y-158079662D01*
X193391047Y-158169896D01*
X193678435Y-158210548D01*
X193955574Y-158198126D01*
X194114117Y-158158295D01*
X194383245Y-158010797D01*
X194583979Y-157792682D01*
X194718179Y-157500953D01*
X194787706Y-157132615D01*
X194791500Y-157084554D01*
X194192321Y-157084554D01*
X194185462Y-157372044D01*
X194138387Y-157612681D01*
X194048457Y-157790385D01*
X193961660Y-157866967D01*
X193774368Y-157921974D01*
X193577722Y-157877485D01*
X193409110Y-157763801D01*
X193227450Y-157553718D01*
X193059051Y-157263691D01*
X192912072Y-156915248D01*
X192794670Y-156529916D01*
X192715002Y-156129222D01*
X192686387Y-155856493D01*
X192680822Y-155556529D01*
X192710656Y-155339177D01*
X192780350Y-155190274D01*
X192894369Y-155095655D01*
X192931572Y-155078303D01*
X193128590Y-155042378D01*
X193322983Y-155102452D01*
X193521925Y-155260870D01*
X193536643Y-155276163D01*
X193715689Y-155507096D01*
X193870346Y-155787656D01*
X193997975Y-156101761D01*
X194095939Y-156433332D01*
X194161600Y-156766290D01*
X194192321Y-157084554D01*
X194791500Y-157084554D01*
X194793039Y-157065060D01*
X194778376Y-156567686D01*
X194671400Y-156093085D01*
X194476832Y-155654960D01*
X194199394Y-155267015D01*
X194157866Y-155221389D01*
X193876816Y-154977080D01*
X193577770Y-154815721D01*
X193273745Y-154736047D01*
X192977760Y-154736790D01*
G36*
X183408380Y-154751409D02*
G01*
X183130271Y-154851719D01*
X182903355Y-155032587D01*
X182732158Y-155288071D01*
X182621205Y-155612226D01*
X182575023Y-155999106D01*
X182579856Y-156252326D01*
X182605439Y-156518540D01*
X182650622Y-156734075D01*
X182728009Y-156949611D01*
X182785470Y-157079185D01*
X182962437Y-157397294D01*
X183180175Y-157687581D01*
X183418097Y-157926135D01*
X183654456Y-158088457D01*
X183881910Y-158169144D01*
X184146206Y-158209927D01*
X184407021Y-158208244D01*
X184624032Y-158161530D01*
X184647800Y-158151621D01*
X184923210Y-157975986D01*
X185124899Y-157730705D01*
X185252530Y-157416404D01*
X185298617Y-157085070D01*
X184692707Y-157085070D01*
X184685452Y-157372407D01*
X184638286Y-157612936D01*
X184548595Y-157790492D01*
X184462060Y-157866967D01*
X184277932Y-157919946D01*
X184081069Y-157872178D01*
X183920830Y-157766798D01*
X183738191Y-157565324D01*
X183569169Y-157282174D01*
X183421432Y-156937095D01*
X183302645Y-156549838D01*
X183220476Y-156140149D01*
X183191686Y-155888617D01*
X183183454Y-155568931D01*
X183218840Y-155333315D01*
X183300460Y-155172881D01*
X183429822Y-155079194D01*
X183623984Y-155042187D01*
X183814888Y-155098221D01*
X184012293Y-155250537D01*
X184044417Y-155283305D01*
X184221759Y-155512031D01*
X184374868Y-155790937D01*
X184501130Y-156103859D01*
X184597933Y-156434631D01*
X184662663Y-156767090D01*
X184692707Y-157085070D01*
X185298617Y-157085070D01*
X185305762Y-157033704D01*
X185307450Y-156937379D01*
X185260260Y-156439358D01*
X185125077Y-155969382D01*
X184907772Y-155542965D01*
X184657477Y-155220545D01*
X184392630Y-154980003D01*
X184121205Y-154826596D01*
X183818604Y-154747472D01*
X183733155Y-154737604D01*
X183408380Y-154751409D01*
G37*
X183408380Y-154751409D02*
X183130271Y-154851719D01*
X182903355Y-155032587D01*
X182732158Y-155288071D01*
X182621205Y-155612226D01*
X182575023Y-155999106D01*
X182579856Y-156252326D01*
X182605439Y-156518540D01*
X182650622Y-156734075D01*
X182728009Y-156949611D01*
X182785470Y-157079185D01*
X182962437Y-157397294D01*
X183180175Y-157687581D01*
X183418097Y-157926135D01*
X183654456Y-158088457D01*
X183881910Y-158169144D01*
X184146206Y-158209927D01*
X184407021Y-158208244D01*
X184624032Y-158161530D01*
X184647800Y-158151621D01*
X184923210Y-157975986D01*
X185124899Y-157730705D01*
X185252530Y-157416404D01*
X185298617Y-157085070D01*
X184692707Y-157085070D01*
X184685452Y-157372407D01*
X184638286Y-157612936D01*
X184548595Y-157790492D01*
X184462060Y-157866967D01*
X184277932Y-157919946D01*
X184081069Y-157872178D01*
X183920830Y-157766798D01*
X183738191Y-157565324D01*
X183569169Y-157282174D01*
X183421432Y-156937095D01*
X183302645Y-156549838D01*
X183220476Y-156140149D01*
X183191686Y-155888617D01*
X183183454Y-155568931D01*
X183218840Y-155333315D01*
X183300460Y-155172881D01*
X183429822Y-155079194D01*
X183623984Y-155042187D01*
X183814888Y-155098221D01*
X184012293Y-155250537D01*
X184044417Y-155283305D01*
X184221759Y-155512031D01*
X184374868Y-155790937D01*
X184501130Y-156103859D01*
X184597933Y-156434631D01*
X184662663Y-156767090D01*
X184692707Y-157085070D01*
X185298617Y-157085070D01*
X185305762Y-157033704D01*
X185307450Y-156937379D01*
X185260260Y-156439358D01*
X185125077Y-155969382D01*
X184907772Y-155542965D01*
X184657477Y-155220545D01*
X184392630Y-154980003D01*
X184121205Y-154826596D01*
X183818604Y-154747472D01*
X183733155Y-154737604D01*
X183408380Y-154751409D01*
G36*
X201853161Y-154726977D02*
G01*
X201751228Y-154765584D01*
X201508050Y-154841111D01*
X201336158Y-154841349D01*
X201219723Y-154833388D01*
X201160677Y-154850776D01*
X201158819Y-154857153D01*
X201172168Y-154936384D01*
X201205795Y-155081298D01*
X201252636Y-155265715D01*
X201305629Y-155463460D01*
X201357711Y-155648353D01*
X201401820Y-155794217D01*
X201430892Y-155874874D01*
X201435372Y-155882205D01*
X201498415Y-155885284D01*
X201553937Y-155859895D01*
X201619265Y-155765440D01*
X201664842Y-155575100D01*
X201675090Y-155496425D01*
X201714575Y-155247208D01*
X201771406Y-155082543D01*
X201853156Y-154985855D01*
X201924163Y-154951315D01*
X202136117Y-154935705D01*
X202354030Y-155021284D01*
X202577394Y-155207845D01*
X202589433Y-155220610D01*
X202752237Y-155415401D01*
X202885175Y-155626482D01*
X203000453Y-155878326D01*
X203110278Y-156195404D01*
X203161804Y-156368082D01*
X203258362Y-156784855D01*
X203286433Y-157131529D01*
X203245402Y-157413612D01*
X203134655Y-157636609D01*
X203005456Y-157768407D01*
X202825410Y-157850926D01*
X202620321Y-157848705D01*
X202408168Y-157769047D01*
X202206929Y-157619256D01*
X202034582Y-157406633D01*
X202008752Y-157363545D01*
X201911297Y-157220076D01*
X201828957Y-157168735D01*
X201748923Y-157203961D01*
X201717791Y-157237265D01*
X201686952Y-157306662D01*
X201713422Y-157398705D01*
X201759020Y-157478565D01*
X201984315Y-157762519D01*
X202256633Y-157977207D01*
X202559549Y-158116496D01*
X202876639Y-158174255D01*
X203191479Y-158144351D01*
X203373498Y-158081313D01*
X203617689Y-157917402D01*
X203796410Y-157681637D01*
X203907341Y-157381756D01*
X203948163Y-157025494D01*
X203916559Y-156620587D01*
X203874565Y-156409452D01*
X203742288Y-155996990D01*
X203555368Y-155626613D01*
X203323927Y-155306159D01*
X203058087Y-155043463D01*
X202767969Y-154846361D01*
X202463695Y-154722688D01*
X202155385Y-154680282D01*
X201853161Y-154726977D01*
G37*
X201853161Y-154726977D02*
X201751228Y-154765584D01*
X201508050Y-154841111D01*
X201336158Y-154841349D01*
X201219723Y-154833388D01*
X201160677Y-154850776D01*
X201158819Y-154857153D01*
X201172168Y-154936384D01*
X201205795Y-155081298D01*
X201252636Y-155265715D01*
X201305629Y-155463460D01*
X201357711Y-155648353D01*
X201401820Y-155794217D01*
X201430892Y-155874874D01*
X201435372Y-155882205D01*
X201498415Y-155885284D01*
X201553937Y-155859895D01*
X201619265Y-155765440D01*
X201664842Y-155575100D01*
X201675090Y-155496425D01*
X201714575Y-155247208D01*
X201771406Y-155082543D01*
X201853156Y-154985855D01*
X201924163Y-154951315D01*
X202136117Y-154935705D01*
X202354030Y-155021284D01*
X202577394Y-155207845D01*
X202589433Y-155220610D01*
X202752237Y-155415401D01*
X202885175Y-155626482D01*
X203000453Y-155878326D01*
X203110278Y-156195404D01*
X203161804Y-156368082D01*
X203258362Y-156784855D01*
X203286433Y-157131529D01*
X203245402Y-157413612D01*
X203134655Y-157636609D01*
X203005456Y-157768407D01*
X202825410Y-157850926D01*
X202620321Y-157848705D01*
X202408168Y-157769047D01*
X202206929Y-157619256D01*
X202034582Y-157406633D01*
X202008752Y-157363545D01*
X201911297Y-157220076D01*
X201828957Y-157168735D01*
X201748923Y-157203961D01*
X201717791Y-157237265D01*
X201686952Y-157306662D01*
X201713422Y-157398705D01*
X201759020Y-157478565D01*
X201984315Y-157762519D01*
X202256633Y-157977207D01*
X202559549Y-158116496D01*
X202876639Y-158174255D01*
X203191479Y-158144351D01*
X203373498Y-158081313D01*
X203617689Y-157917402D01*
X203796410Y-157681637D01*
X203907341Y-157381756D01*
X203948163Y-157025494D01*
X203916559Y-156620587D01*
X203874565Y-156409452D01*
X203742288Y-155996990D01*
X203555368Y-155626613D01*
X203323927Y-155306159D01*
X203058087Y-155043463D01*
X202767969Y-154846361D01*
X202463695Y-154722688D01*
X202155385Y-154680282D01*
X201853161Y-154726977D01*
G36*
X195394213Y-154768687D02*
G01*
X195223003Y-154832024D01*
X195064185Y-154870794D01*
X195004543Y-154876500D01*
X194925820Y-154882598D01*
X194879419Y-154911894D01*
X194863889Y-154980890D01*
X194877777Y-155106090D01*
X194919630Y-155303996D01*
X194954074Y-155449943D01*
X195009896Y-155672708D01*
X195053999Y-155810512D01*
X195095241Y-155877888D01*
X195142480Y-155889371D01*
X195203937Y-155859895D01*
X195269265Y-155765440D01*
X195314842Y-155575100D01*
X195325090Y-155496425D01*
X195364575Y-155247208D01*
X195421406Y-155082543D01*
X195503156Y-154985855D01*
X195574163Y-154951315D01*
X195779390Y-154934209D01*
X195990215Y-155013544D01*
X196211037Y-155191157D01*
X196253334Y-155234932D01*
X196460005Y-155494282D01*
X196625958Y-155794204D01*
X196762458Y-156157695D01*
X196838084Y-156428420D01*
X196918664Y-156837565D01*
X196934315Y-157174535D01*
X196884119Y-157446053D01*
X196767160Y-157658841D01*
X196655456Y-157768407D01*
X196475410Y-157850926D01*
X196270321Y-157848705D01*
X196058168Y-157769047D01*
X195856929Y-157619256D01*
X195684582Y-157406633D01*
X195658752Y-157363545D01*
X195561297Y-157220076D01*
X195478957Y-157168735D01*
X195398923Y-157203961D01*
X195367791Y-157237265D01*
X195336952Y-157306662D01*
X195363422Y-157398705D01*
X195409020Y-157478565D01*
X195634315Y-157762519D01*
X195906633Y-157977207D01*
X196209549Y-158116496D01*
X196526639Y-158174255D01*
X196841479Y-158144351D01*
X197023498Y-158081313D01*
X197271027Y-157916340D01*
X197449954Y-157680669D01*
X197558756Y-157379906D01*
X197595913Y-157019658D01*
X197559905Y-156605531D01*
X197500150Y-156324103D01*
X197369602Y-155924811D01*
X197189591Y-155583996D01*
X196938755Y-155262495D01*
X196895158Y-155215072D01*
X196604972Y-154960703D01*
X196291962Y-154786347D01*
X195970328Y-154696230D01*
X195654274Y-154694576D01*
X195394213Y-154768687D01*
G37*
X195394213Y-154768687D02*
X195223003Y-154832024D01*
X195064185Y-154870794D01*
X195004543Y-154876500D01*
X194925820Y-154882598D01*
X194879419Y-154911894D01*
X194863889Y-154980890D01*
X194877777Y-155106090D01*
X194919630Y-155303996D01*
X194954074Y-155449943D01*
X195009896Y-155672708D01*
X195053999Y-155810512D01*
X195095241Y-155877888D01*
X195142480Y-155889371D01*
X195203937Y-155859895D01*
X195269265Y-155765440D01*
X195314842Y-155575100D01*
X195325090Y-155496425D01*
X195364575Y-155247208D01*
X195421406Y-155082543D01*
X195503156Y-154985855D01*
X195574163Y-154951315D01*
X195779390Y-154934209D01*
X195990215Y-155013544D01*
X196211037Y-155191157D01*
X196253334Y-155234932D01*
X196460005Y-155494282D01*
X196625958Y-155794204D01*
X196762458Y-156157695D01*
X196838084Y-156428420D01*
X196918664Y-156837565D01*
X196934315Y-157174535D01*
X196884119Y-157446053D01*
X196767160Y-157658841D01*
X196655456Y-157768407D01*
X196475410Y-157850926D01*
X196270321Y-157848705D01*
X196058168Y-157769047D01*
X195856929Y-157619256D01*
X195684582Y-157406633D01*
X195658752Y-157363545D01*
X195561297Y-157220076D01*
X195478957Y-157168735D01*
X195398923Y-157203961D01*
X195367791Y-157237265D01*
X195336952Y-157306662D01*
X195363422Y-157398705D01*
X195409020Y-157478565D01*
X195634315Y-157762519D01*
X195906633Y-157977207D01*
X196209549Y-158116496D01*
X196526639Y-158174255D01*
X196841479Y-158144351D01*
X197023498Y-158081313D01*
X197271027Y-157916340D01*
X197449954Y-157680669D01*
X197558756Y-157379906D01*
X197595913Y-157019658D01*
X197559905Y-156605531D01*
X197500150Y-156324103D01*
X197369602Y-155924811D01*
X197189591Y-155583996D01*
X196938755Y-155262495D01*
X196895158Y-155215072D01*
X196604972Y-154960703D01*
X196291962Y-154786347D01*
X195970328Y-154696230D01*
X195654274Y-154694576D01*
X195394213Y-154768687D01*
G36*
X208069948Y-154777208D02*
G01*
X207841527Y-154785025D01*
X207677046Y-154800239D01*
X207557708Y-154824658D01*
X207464718Y-154860089D01*
X207457000Y-154863878D01*
X207264665Y-155010889D01*
X207151433Y-155220708D01*
X207116892Y-155494246D01*
X207122976Y-155601674D01*
X207189419Y-155924507D01*
X207324217Y-156183781D01*
X207532230Y-156383349D01*
X207818317Y-156527066D01*
X208187339Y-156618786D01*
X208444974Y-156649990D01*
X208797948Y-156679900D01*
X208936853Y-157137100D01*
X209016713Y-157414083D01*
X209061661Y-157612373D01*
X209073004Y-157748203D01*
X209052048Y-157837804D01*
X209000100Y-157897410D01*
X208998147Y-157898853D01*
X208940419Y-157988226D01*
X208945752Y-158044153D01*
X208974508Y-158081507D01*
X209038372Y-158106026D01*
X209155084Y-158120212D01*
X209342388Y-158126567D01*
X209538206Y-158127700D01*
X209776967Y-158123525D01*
X209960685Y-158111990D01*
X210072352Y-158094574D01*
X210098600Y-158078902D01*
X210067711Y-158011397D01*
X209966116Y-157919980D01*
X209878031Y-157856534D01*
X209818921Y-157772131D01*
X209743283Y-157590345D01*
X209652139Y-157313868D01*
X209584757Y-157083567D01*
X209445234Y-156588414D01*
X209362287Y-156292806D01*
X208674506Y-156292806D01*
X208634274Y-156338784D01*
X208529535Y-156349232D01*
X208388972Y-156329107D01*
X208241265Y-156283361D01*
X208115095Y-156216949D01*
X208082136Y-156190483D01*
X207922478Y-155986483D01*
X207809684Y-155729769D01*
X207763181Y-155465450D01*
X207762916Y-155449171D01*
X207799658Y-155256607D01*
X207908869Y-155134145D01*
X208085499Y-155086207D01*
X208174124Y-155088913D01*
X208246127Y-155099066D01*
X208299397Y-155124363D01*
X208343807Y-155181899D01*
X208389232Y-155288771D01*
X208445546Y-155462072D01*
X208506225Y-155663900D01*
X208572805Y-155892613D01*
X208627043Y-156089141D01*
X208662913Y-156230966D01*
X208674506Y-156292806D01*
X209362287Y-156292806D01*
X209331139Y-156181802D01*
X209240413Y-155854464D01*
X209170996Y-155597130D01*
X209120827Y-155400533D01*
X209087846Y-155255402D01*
X209069993Y-155152471D01*
X209065207Y-155082469D01*
X209071428Y-155036129D01*
X209086596Y-155004182D01*
X209108650Y-154977359D01*
X209115014Y-154970350D01*
X209165201Y-154900793D01*
X209165220Y-154849519D01*
X209105280Y-154813920D01*
X208975588Y-154791390D01*
X208766353Y-154779322D01*
X208467781Y-154775110D01*
X208381102Y-154774978D01*
X208069948Y-154777208D01*
G37*
X208069948Y-154777208D02*
X207841527Y-154785025D01*
X207677046Y-154800239D01*
X207557708Y-154824658D01*
X207464718Y-154860089D01*
X207457000Y-154863878D01*
X207264665Y-155010889D01*
X207151433Y-155220708D01*
X207116892Y-155494246D01*
X207122976Y-155601674D01*
X207189419Y-155924507D01*
X207324217Y-156183781D01*
X207532230Y-156383349D01*
X207818317Y-156527066D01*
X208187339Y-156618786D01*
X208444974Y-156649990D01*
X208797948Y-156679900D01*
X208936853Y-157137100D01*
X209016713Y-157414083D01*
X209061661Y-157612373D01*
X209073004Y-157748203D01*
X209052048Y-157837804D01*
X209000100Y-157897410D01*
X208998147Y-157898853D01*
X208940419Y-157988226D01*
X208945752Y-158044153D01*
X208974508Y-158081507D01*
X209038372Y-158106026D01*
X209155084Y-158120212D01*
X209342388Y-158126567D01*
X209538206Y-158127700D01*
X209776967Y-158123525D01*
X209960685Y-158111990D01*
X210072352Y-158094574D01*
X210098600Y-158078902D01*
X210067711Y-158011397D01*
X209966116Y-157919980D01*
X209878031Y-157856534D01*
X209818921Y-157772131D01*
X209743283Y-157590345D01*
X209652139Y-157313868D01*
X209584757Y-157083567D01*
X209445234Y-156588414D01*
X209362287Y-156292806D01*
X208674506Y-156292806D01*
X208634274Y-156338784D01*
X208529535Y-156349232D01*
X208388972Y-156329107D01*
X208241265Y-156283361D01*
X208115095Y-156216949D01*
X208082136Y-156190483D01*
X207922478Y-155986483D01*
X207809684Y-155729769D01*
X207763181Y-155465450D01*
X207762916Y-155449171D01*
X207799658Y-155256607D01*
X207908869Y-155134145D01*
X208085499Y-155086207D01*
X208174124Y-155088913D01*
X208246127Y-155099066D01*
X208299397Y-155124363D01*
X208343807Y-155181899D01*
X208389232Y-155288771D01*
X208445546Y-155462072D01*
X208506225Y-155663900D01*
X208572805Y-155892613D01*
X208627043Y-156089141D01*
X208662913Y-156230966D01*
X208674506Y-156292806D01*
X209362287Y-156292806D01*
X209331139Y-156181802D01*
X209240413Y-155854464D01*
X209170996Y-155597130D01*
X209120827Y-155400533D01*
X209087846Y-155255402D01*
X209069993Y-155152471D01*
X209065207Y-155082469D01*
X209071428Y-155036129D01*
X209086596Y-155004182D01*
X209108650Y-154977359D01*
X209115014Y-154970350D01*
X209165201Y-154900793D01*
X209165220Y-154849519D01*
X209105280Y-154813920D01*
X208975588Y-154791390D01*
X208766353Y-154779322D01*
X208467781Y-154775110D01*
X208381102Y-154774978D01*
X208069948Y-154777208D01*
G36*
X205122625Y-154658756D02*
G01*
X205082378Y-154710472D01*
X205051322Y-154810452D01*
X205026202Y-154967986D01*
X205003759Y-155192364D01*
X204980739Y-155492879D01*
X204953883Y-155878820D01*
X204931258Y-156201961D01*
X204896899Y-156670663D01*
X204866840Y-157047112D01*
X204840031Y-157340509D01*
X204815423Y-157560061D01*
X204791966Y-157714971D01*
X204768608Y-157814444D01*
X204744302Y-157867684D01*
X204740758Y-157871978D01*
X204677675Y-157977096D01*
X204663000Y-158042800D01*
X204674726Y-158081056D01*
X204721471Y-158105909D01*
X204820585Y-158120120D01*
X204989419Y-158126451D01*
X205196400Y-158127700D01*
X205435154Y-158126170D01*
X205590097Y-158119505D01*
X205679002Y-158104592D01*
X205719637Y-158078317D01*
X205729774Y-158037569D01*
X205729800Y-158034254D01*
X205687748Y-157946329D01*
X205600267Y-157881789D01*
X205527223Y-157839743D01*
X205490648Y-157779931D01*
X205480877Y-157672664D01*
X205485967Y-157530734D01*
X205501200Y-157238700D01*
X206020154Y-157224242D01*
X206539107Y-157209784D01*
X206671229Y-157470513D01*
X206743730Y-157621542D01*
X206771125Y-157713215D01*
X206757837Y-157774885D01*
X206723775Y-157819170D01*
X206659022Y-157937107D01*
X206644200Y-158017400D01*
X206650494Y-158070900D01*
X206682718Y-158103565D01*
X206760892Y-158120506D01*
X206905033Y-158126837D01*
X207076000Y-158127700D01*
X207286285Y-158122081D01*
X207435200Y-158106629D01*
X207504861Y-158083447D01*
X207507800Y-158076900D01*
X207472592Y-158003877D01*
X207391011Y-157910115D01*
X207299125Y-157834260D01*
X207264821Y-157816550D01*
X207226481Y-157769729D01*
X207143172Y-157646355D01*
X207021733Y-157457277D01*
X206869001Y-157213341D01*
X206691813Y-156925396D01*
X206652164Y-156860040D01*
X206261421Y-156860040D01*
X206260665Y-156861802D01*
X206190172Y-156894976D01*
X206055145Y-156909613D01*
X205890659Y-156907183D01*
X205731791Y-156889156D01*
X205613617Y-156857000D01*
X205578156Y-156833209D01*
X205548006Y-156759357D01*
X205536757Y-156623424D01*
X205543670Y-156409809D01*
X205552282Y-156287109D01*
X205570874Y-156076566D01*
X205590183Y-155904763D01*
X205607204Y-155796693D01*
X205613985Y-155774251D01*
X205647786Y-155798813D01*
X205722018Y-155896185D01*
X205826113Y-156051303D01*
X205949505Y-156249105D01*
X205964301Y-156273654D01*
X206086122Y-156483665D01*
X206182361Y-156663532D01*
X206243851Y-156795056D01*
X206261421Y-156860040D01*
X206652164Y-156860040D01*
X206497007Y-156604288D01*
X206420305Y-156476700D01*
X206174433Y-156063481D01*
X205979557Y-155728359D01*
X205831746Y-155463959D01*
X205727067Y-155262907D01*
X205661587Y-155117828D01*
X205631373Y-155021348D01*
X205628235Y-154991481D01*
X205614063Y-154876772D01*
X205553120Y-154804655D01*
X205440665Y-154748706D01*
X205331084Y-154700277D01*
X205243722Y-154662949D01*
X205175321Y-154646012D01*
X205122625Y-154658756D01*
G37*
X205122625Y-154658756D02*
X205082378Y-154710472D01*
X205051322Y-154810452D01*
X205026202Y-154967986D01*
X205003759Y-155192364D01*
X204980739Y-155492879D01*
X204953883Y-155878820D01*
X204931258Y-156201961D01*
X204896899Y-156670663D01*
X204866840Y-157047112D01*
X204840031Y-157340509D01*
X204815423Y-157560061D01*
X204791966Y-157714971D01*
X204768608Y-157814444D01*
X204744302Y-157867684D01*
X204740758Y-157871978D01*
X204677675Y-157977096D01*
X204663000Y-158042800D01*
X204674726Y-158081056D01*
X204721471Y-158105909D01*
X204820585Y-158120120D01*
X204989419Y-158126451D01*
X205196400Y-158127700D01*
X205435154Y-158126170D01*
X205590097Y-158119505D01*
X205679002Y-158104592D01*
X205719637Y-158078317D01*
X205729774Y-158037569D01*
X205729800Y-158034254D01*
X205687748Y-157946329D01*
X205600267Y-157881789D01*
X205527223Y-157839743D01*
X205490648Y-157779931D01*
X205480877Y-157672664D01*
X205485967Y-157530734D01*
X205501200Y-157238700D01*
X206020154Y-157224242D01*
X206539107Y-157209784D01*
X206671229Y-157470513D01*
X206743730Y-157621542D01*
X206771125Y-157713215D01*
X206757837Y-157774885D01*
X206723775Y-157819170D01*
X206659022Y-157937107D01*
X206644200Y-158017400D01*
X206650494Y-158070900D01*
X206682718Y-158103565D01*
X206760892Y-158120506D01*
X206905033Y-158126837D01*
X207076000Y-158127700D01*
X207286285Y-158122081D01*
X207435200Y-158106629D01*
X207504861Y-158083447D01*
X207507800Y-158076900D01*
X207472592Y-158003877D01*
X207391011Y-157910115D01*
X207299125Y-157834260D01*
X207264821Y-157816550D01*
X207226481Y-157769729D01*
X207143172Y-157646355D01*
X207021733Y-157457277D01*
X206869001Y-157213341D01*
X206691813Y-156925396D01*
X206652164Y-156860040D01*
X206261421Y-156860040D01*
X206260665Y-156861802D01*
X206190172Y-156894976D01*
X206055145Y-156909613D01*
X205890659Y-156907183D01*
X205731791Y-156889156D01*
X205613617Y-156857000D01*
X205578156Y-156833209D01*
X205548006Y-156759357D01*
X205536757Y-156623424D01*
X205543670Y-156409809D01*
X205552282Y-156287109D01*
X205570874Y-156076566D01*
X205590183Y-155904763D01*
X205607204Y-155796693D01*
X205613985Y-155774251D01*
X205647786Y-155798813D01*
X205722018Y-155896185D01*
X205826113Y-156051303D01*
X205949505Y-156249105D01*
X205964301Y-156273654D01*
X206086122Y-156483665D01*
X206182361Y-156663532D01*
X206243851Y-156795056D01*
X206261421Y-156860040D01*
X206652164Y-156860040D01*
X206497007Y-156604288D01*
X206420305Y-156476700D01*
X206174433Y-156063481D01*
X205979557Y-155728359D01*
X205831746Y-155463959D01*
X205727067Y-155262907D01*
X205661587Y-155117828D01*
X205631373Y-155021348D01*
X205628235Y-154991481D01*
X205614063Y-154876772D01*
X205553120Y-154804655D01*
X205440665Y-154748706D01*
X205331084Y-154700277D01*
X205243722Y-154662949D01*
X205175321Y-154646012D01*
X205122625Y-154658756D01*
G36*
X198579218Y-154757201D02*
G01*
X198575636Y-154757737D01*
X198579223Y-154806860D01*
X198604864Y-154927355D01*
X198645657Y-155087998D01*
X198695551Y-155280742D01*
X198737060Y-155454648D01*
X198757680Y-155553634D01*
X198808488Y-155687088D01*
X198886417Y-155735143D01*
X198973501Y-155703450D01*
X199051772Y-155597658D01*
X199099385Y-155446190D01*
X199156562Y-155254117D01*
X199254083Y-155140240D01*
X199412658Y-155088170D01*
X199562476Y-155079700D01*
X199717776Y-155086737D01*
X199826347Y-155104791D01*
X199855984Y-155120117D01*
X199881581Y-155188340D01*
X199924331Y-155327839D01*
X199976722Y-155511330D01*
X200031245Y-155711528D01*
X200080389Y-155901147D01*
X200116643Y-156052902D01*
X200128018Y-156108400D01*
X200137720Y-156190506D01*
X200112396Y-156231822D01*
X200028664Y-156246351D01*
X199894737Y-156248100D01*
X199730112Y-156239944D01*
X199631313Y-156207018D01*
X199563287Y-156136632D01*
X199555724Y-156125365D01*
X199449568Y-156007845D01*
X199342195Y-155960792D01*
X199263852Y-155988128D01*
X199257565Y-156054043D01*
X199279239Y-156188078D01*
X199321103Y-156363248D01*
X199375386Y-156552565D01*
X199434315Y-156729040D01*
X199490120Y-156865687D01*
X199535029Y-156935517D01*
X199537063Y-156936905D01*
X199616302Y-156937134D01*
X199690525Y-156867235D01*
X199732898Y-156756308D01*
X199735400Y-156721825D01*
X199742632Y-156650267D01*
X199781267Y-156615841D01*
X199876718Y-156608182D01*
X200000430Y-156613745D01*
X200156430Y-156626893D01*
X200241261Y-156655529D01*
X200285300Y-156718501D01*
X200311740Y-156806900D01*
X200348927Y-156943050D01*
X200404082Y-157137238D01*
X200466027Y-157350167D01*
X200473373Y-157375070D01*
X200523824Y-157560431D01*
X200555371Y-157706029D01*
X200562818Y-157786738D01*
X200559996Y-157794170D01*
X200497676Y-157809342D01*
X200364866Y-157819681D01*
X200222234Y-157822710D01*
X199940272Y-157794771D01*
X199725202Y-157703752D01*
X199556442Y-157538251D01*
X199474285Y-157408406D01*
X199354534Y-157240059D01*
X199236088Y-157171276D01*
X199234160Y-157170988D01*
X199161231Y-157167678D01*
X199133659Y-157202862D01*
X199140845Y-157301845D01*
X199151602Y-157368078D01*
X199190082Y-157548895D01*
X199245380Y-157757609D01*
X199271079Y-157842189D01*
X199354400Y-158102300D01*
X200459300Y-158115990D01*
X200824539Y-158119807D01*
X201100370Y-158120513D01*
X201298958Y-158117384D01*
X201432467Y-158109695D01*
X201513062Y-158096720D01*
X201552908Y-158077735D01*
X201564168Y-158052013D01*
X201564200Y-158050127D01*
X201523617Y-157973086D01*
X201424648Y-157891460D01*
X201412074Y-157884037D01*
X201367715Y-157859539D01*
X201331151Y-157835315D01*
X201298564Y-157800750D01*
X201266139Y-157745227D01*
X201230059Y-157658130D01*
X201186508Y-157528844D01*
X201131670Y-157346751D01*
X201061729Y-157101237D01*
X200972869Y-156781684D01*
X200861272Y-156377477D01*
X200830701Y-156266759D01*
X200727115Y-155888192D01*
X200649935Y-155595512D01*
X200597029Y-155377096D01*
X200566266Y-155221321D01*
X200555513Y-155116565D01*
X200562639Y-155051204D01*
X200585512Y-155013615D01*
X200599000Y-155003500D01*
X200642242Y-154931579D01*
X200649800Y-154877315D01*
X200644007Y-154845138D01*
X200618001Y-154820805D01*
X200558843Y-154802915D01*
X200453596Y-154790067D01*
X200289320Y-154780861D01*
X200053077Y-154773896D01*
X199731928Y-154767771D01*
X199621100Y-154765952D01*
X199308975Y-154761330D01*
X199033283Y-154758022D01*
X198809467Y-154756151D01*
X198652965Y-154755837D01*
X198579218Y-154757201D01*
G37*
X198579218Y-154757201D02*
X198575636Y-154757737D01*
X198579223Y-154806860D01*
X198604864Y-154927355D01*
X198645657Y-155087998D01*
X198695551Y-155280742D01*
X198737060Y-155454648D01*
X198757680Y-155553634D01*
X198808488Y-155687088D01*
X198886417Y-155735143D01*
X198973501Y-155703450D01*
X199051772Y-155597658D01*
X199099385Y-155446190D01*
X199156562Y-155254117D01*
X199254083Y-155140240D01*
X199412658Y-155088170D01*
X199562476Y-155079700D01*
X199717776Y-155086737D01*
X199826347Y-155104791D01*
X199855984Y-155120117D01*
X199881581Y-155188340D01*
X199924331Y-155327839D01*
X199976722Y-155511330D01*
X200031245Y-155711528D01*
X200080389Y-155901147D01*
X200116643Y-156052902D01*
X200128018Y-156108400D01*
X200137720Y-156190506D01*
X200112396Y-156231822D01*
X200028664Y-156246351D01*
X199894737Y-156248100D01*
X199730112Y-156239944D01*
X199631313Y-156207018D01*
X199563287Y-156136632D01*
X199555724Y-156125365D01*
X199449568Y-156007845D01*
X199342195Y-155960792D01*
X199263852Y-155988128D01*
X199257565Y-156054043D01*
X199279239Y-156188078D01*
X199321103Y-156363248D01*
X199375386Y-156552565D01*
X199434315Y-156729040D01*
X199490120Y-156865687D01*
X199535029Y-156935517D01*
X199537063Y-156936905D01*
X199616302Y-156937134D01*
X199690525Y-156867235D01*
X199732898Y-156756308D01*
X199735400Y-156721825D01*
X199742632Y-156650267D01*
X199781267Y-156615841D01*
X199876718Y-156608182D01*
X200000430Y-156613745D01*
X200156430Y-156626893D01*
X200241261Y-156655529D01*
X200285300Y-156718501D01*
X200311740Y-156806900D01*
X200348927Y-156943050D01*
X200404082Y-157137238D01*
X200466027Y-157350167D01*
X200473373Y-157375070D01*
X200523824Y-157560431D01*
X200555371Y-157706029D01*
X200562818Y-157786738D01*
X200559996Y-157794170D01*
X200497676Y-157809342D01*
X200364866Y-157819681D01*
X200222234Y-157822710D01*
X199940272Y-157794771D01*
X199725202Y-157703752D01*
X199556442Y-157538251D01*
X199474285Y-157408406D01*
X199354534Y-157240059D01*
X199236088Y-157171276D01*
X199234160Y-157170988D01*
X199161231Y-157167678D01*
X199133659Y-157202862D01*
X199140845Y-157301845D01*
X199151602Y-157368078D01*
X199190082Y-157548895D01*
X199245380Y-157757609D01*
X199271079Y-157842189D01*
X199354400Y-158102300D01*
X200459300Y-158115990D01*
X200824539Y-158119807D01*
X201100370Y-158120513D01*
X201298958Y-158117384D01*
X201432467Y-158109695D01*
X201513062Y-158096720D01*
X201552908Y-158077735D01*
X201564168Y-158052013D01*
X201564200Y-158050127D01*
X201523617Y-157973086D01*
X201424648Y-157891460D01*
X201412074Y-157884037D01*
X201367715Y-157859539D01*
X201331151Y-157835315D01*
X201298564Y-157800750D01*
X201266139Y-157745227D01*
X201230059Y-157658130D01*
X201186508Y-157528844D01*
X201131670Y-157346751D01*
X201061729Y-157101237D01*
X200972869Y-156781684D01*
X200861272Y-156377477D01*
X200830701Y-156266759D01*
X200727115Y-155888192D01*
X200649935Y-155595512D01*
X200597029Y-155377096D01*
X200566266Y-155221321D01*
X200555513Y-155116565D01*
X200562639Y-155051204D01*
X200585512Y-155013615D01*
X200599000Y-155003500D01*
X200642242Y-154931579D01*
X200649800Y-154877315D01*
X200644007Y-154845138D01*
X200618001Y-154820805D01*
X200558843Y-154802915D01*
X200453596Y-154790067D01*
X200289320Y-154780861D01*
X200053077Y-154773896D01*
X199731928Y-154767771D01*
X199621100Y-154765952D01*
X199308975Y-154761330D01*
X199033283Y-154758022D01*
X198809467Y-154756151D01*
X198652965Y-154755837D01*
X198579218Y-154757201D01*
G36*
X187926920Y-154778668D02*
G01*
X187799913Y-154788587D01*
X187746879Y-154802572D01*
X187746600Y-154803716D01*
X187776411Y-154856288D01*
X187852163Y-154957361D01*
X187902851Y-155019616D01*
X187973849Y-155118897D01*
X188084322Y-155291093D01*
X188224551Y-155520223D01*
X188384820Y-155790306D01*
X188555410Y-156085360D01*
X188618995Y-156197300D01*
X188789426Y-156498185D01*
X188950475Y-156781296D01*
X189092877Y-157030441D01*
X189207371Y-157229432D01*
X189284692Y-157362079D01*
X189302024Y-157391100D01*
X189398020Y-157557181D01*
X189506851Y-157756346D01*
X189562812Y-157863343D01*
X189645351Y-158014306D01*
X189710091Y-158092862D01*
X189780464Y-158119460D01*
X189853832Y-158117343D01*
X190007200Y-158102300D01*
X189987764Y-157276800D01*
X189982902Y-157000155D01*
X189981883Y-156762936D01*
X189984524Y-156582003D01*
X189990642Y-156474214D01*
X189996743Y-156451300D01*
X190036830Y-156491598D01*
X190093952Y-156588755D01*
X190095079Y-156591000D01*
X190143942Y-156683029D01*
X190232383Y-156844302D01*
X190349815Y-157055711D01*
X190485650Y-157298148D01*
X190559515Y-157429200D01*
X190708619Y-157691852D01*
X190818588Y-157878738D01*
X190899913Y-158002742D01*
X190963090Y-158076752D01*
X191018611Y-158113654D01*
X191076969Y-158126334D01*
X191128316Y-158127700D01*
X191246331Y-158118479D01*
X191293635Y-158074427D01*
X191300895Y-157988000D01*
X191298786Y-157901103D01*
X191293713Y-157727579D01*
X191286143Y-157482342D01*
X191276545Y-157180306D01*
X191265387Y-156836387D01*
X191253515Y-156476920D01*
X191240287Y-156062453D01*
X191231642Y-155737713D01*
X191227846Y-155490920D01*
X191229170Y-155310291D01*
X191235882Y-155184047D01*
X191248251Y-155100405D01*
X191266545Y-155047585D01*
X191286782Y-155018312D01*
X191337544Y-154918831D01*
X191335756Y-154852992D01*
X191301606Y-154815261D01*
X191222180Y-154791498D01*
X191079485Y-154778968D01*
X190855533Y-154774941D01*
X190821595Y-154774900D01*
X190570703Y-154779779D01*
X190413937Y-154798012D01*
X190344134Y-154834993D01*
X190354132Y-154896116D01*
X190436770Y-154986776D01*
X190484338Y-155028900D01*
X190632192Y-155155900D01*
X190656129Y-156083000D01*
X190662081Y-156377012D01*
X190664120Y-156632407D01*
X190662377Y-156833318D01*
X190656985Y-156963879D01*
X190648433Y-157008302D01*
X190614063Y-156965507D01*
X190541320Y-156849202D01*
X190439763Y-156675461D01*
X190318946Y-156460357D01*
X190273900Y-156378315D01*
X190136984Y-156124706D01*
X190042295Y-155937950D01*
X189982094Y-155796438D01*
X189948640Y-155678561D01*
X189934190Y-155562710D01*
X189931003Y-155427276D01*
X189931000Y-155421133D01*
X189941493Y-155203699D01*
X189974711Y-155072400D01*
X190007200Y-155028900D01*
X190072453Y-154927575D01*
X190083400Y-154868440D01*
X190075911Y-154823795D01*
X190041021Y-154796361D01*
X189960097Y-154783001D01*
X189814503Y-154780578D01*
X189592218Y-154785760D01*
X189320247Y-154802112D01*
X189146230Y-154831928D01*
X189070934Y-154874825D01*
X189095123Y-154930420D01*
X189191628Y-154986080D01*
X189298477Y-155065919D01*
X189349823Y-155151909D01*
X189361341Y-155248505D01*
X189367760Y-155410193D01*
X189369624Y-155618528D01*
X189367476Y-155855061D01*
X189361861Y-156101346D01*
X189353322Y-156338937D01*
X189342404Y-156549387D01*
X189329650Y-156714250D01*
X189315605Y-156815078D01*
X189300812Y-156833425D01*
X189300266Y-156832300D01*
X189260961Y-156756625D01*
X189180400Y-156608893D01*
X189067582Y-156405348D01*
X188931505Y-156162234D01*
X188797009Y-155923774D01*
X188632677Y-155630540D01*
X188514843Y-155411809D01*
X188437892Y-155254866D01*
X188396209Y-155146998D01*
X188384179Y-155075491D01*
X188396186Y-155027630D01*
X188399044Y-155022763D01*
X188457768Y-154906320D01*
X188451457Y-154832220D01*
X188369655Y-154791734D01*
X188201909Y-154776132D01*
X188102200Y-154774900D01*
X187926920Y-154778668D01*
G37*
X187926920Y-154778668D02*
X187799913Y-154788587D01*
X187746879Y-154802572D01*
X187746600Y-154803716D01*
X187776411Y-154856288D01*
X187852163Y-154957361D01*
X187902851Y-155019616D01*
X187973849Y-155118897D01*
X188084322Y-155291093D01*
X188224551Y-155520223D01*
X188384820Y-155790306D01*
X188555410Y-156085360D01*
X188618995Y-156197300D01*
X188789426Y-156498185D01*
X188950475Y-156781296D01*
X189092877Y-157030441D01*
X189207371Y-157229432D01*
X189284692Y-157362079D01*
X189302024Y-157391100D01*
X189398020Y-157557181D01*
X189506851Y-157756346D01*
X189562812Y-157863343D01*
X189645351Y-158014306D01*
X189710091Y-158092862D01*
X189780464Y-158119460D01*
X189853832Y-158117343D01*
X190007200Y-158102300D01*
X189987764Y-157276800D01*
X189982902Y-157000155D01*
X189981883Y-156762936D01*
X189984524Y-156582003D01*
X189990642Y-156474214D01*
X189996743Y-156451300D01*
X190036830Y-156491598D01*
X190093952Y-156588755D01*
X190095079Y-156591000D01*
X190143942Y-156683029D01*
X190232383Y-156844302D01*
X190349815Y-157055711D01*
X190485650Y-157298148D01*
X190559515Y-157429200D01*
X190708619Y-157691852D01*
X190818588Y-157878738D01*
X190899913Y-158002742D01*
X190963090Y-158076752D01*
X191018611Y-158113654D01*
X191076969Y-158126334D01*
X191128316Y-158127700D01*
X191246331Y-158118479D01*
X191293635Y-158074427D01*
X191300895Y-157988000D01*
X191298786Y-157901103D01*
X191293713Y-157727579D01*
X191286143Y-157482342D01*
X191276545Y-157180306D01*
X191265387Y-156836387D01*
X191253515Y-156476920D01*
X191240287Y-156062453D01*
X191231642Y-155737713D01*
X191227846Y-155490920D01*
X191229170Y-155310291D01*
X191235882Y-155184047D01*
X191248251Y-155100405D01*
X191266545Y-155047585D01*
X191286782Y-155018312D01*
X191337544Y-154918831D01*
X191335756Y-154852992D01*
X191301606Y-154815261D01*
X191222180Y-154791498D01*
X191079485Y-154778968D01*
X190855533Y-154774941D01*
X190821595Y-154774900D01*
X190570703Y-154779779D01*
X190413937Y-154798012D01*
X190344134Y-154834993D01*
X190354132Y-154896116D01*
X190436770Y-154986776D01*
X190484338Y-155028900D01*
X190632192Y-155155900D01*
X190656129Y-156083000D01*
X190662081Y-156377012D01*
X190664120Y-156632407D01*
X190662377Y-156833318D01*
X190656985Y-156963879D01*
X190648433Y-157008302D01*
X190614063Y-156965507D01*
X190541320Y-156849202D01*
X190439763Y-156675461D01*
X190318946Y-156460357D01*
X190273900Y-156378315D01*
X190136984Y-156124706D01*
X190042295Y-155937950D01*
X189982094Y-155796438D01*
X189948640Y-155678561D01*
X189934190Y-155562710D01*
X189931003Y-155427276D01*
X189931000Y-155421133D01*
X189941493Y-155203699D01*
X189974711Y-155072400D01*
X190007200Y-155028900D01*
X190072453Y-154927575D01*
X190083400Y-154868440D01*
X190075911Y-154823795D01*
X190041021Y-154796361D01*
X189960097Y-154783001D01*
X189814503Y-154780578D01*
X189592218Y-154785760D01*
X189320247Y-154802112D01*
X189146230Y-154831928D01*
X189070934Y-154874825D01*
X189095123Y-154930420D01*
X189191628Y-154986080D01*
X189298477Y-155065919D01*
X189349823Y-155151909D01*
X189361341Y-155248505D01*
X189367760Y-155410193D01*
X189369624Y-155618528D01*
X189367476Y-155855061D01*
X189361861Y-156101346D01*
X189353322Y-156338937D01*
X189342404Y-156549387D01*
X189329650Y-156714250D01*
X189315605Y-156815078D01*
X189300812Y-156833425D01*
X189300266Y-156832300D01*
X189260961Y-156756625D01*
X189180400Y-156608893D01*
X189067582Y-156405348D01*
X188931505Y-156162234D01*
X188797009Y-155923774D01*
X188632677Y-155630540D01*
X188514843Y-155411809D01*
X188437892Y-155254866D01*
X188396209Y-155146998D01*
X188384179Y-155075491D01*
X188396186Y-155027630D01*
X188399044Y-155022763D01*
X188457768Y-154906320D01*
X188451457Y-154832220D01*
X188369655Y-154791734D01*
X188201909Y-154776132D01*
X188102200Y-154774900D01*
X187926920Y-154778668D01*
G36*
X186439300Y-154779650D02*
G01*
X186168635Y-154796673D01*
X185968122Y-154830686D01*
X185822183Y-154886328D01*
X185715241Y-154968240D01*
X185631719Y-155081059D01*
X185604609Y-155129707D01*
X185524136Y-155364065D01*
X185533790Y-155605118D01*
X185608197Y-155821325D01*
X185758353Y-156045945D01*
X185982346Y-156211668D01*
X186189013Y-156297277D01*
X186384026Y-156360557D01*
X186237648Y-156449575D01*
X186106271Y-156549538D01*
X185972917Y-156679972D01*
X185953735Y-156702044D01*
X185867624Y-156826001D01*
X185826551Y-156958963D01*
X185816200Y-157143520D01*
X185843128Y-157414515D01*
X185933892Y-157632279D01*
X186103470Y-157832661D01*
X186104485Y-157833626D01*
X186221520Y-157931148D01*
X186350738Y-158005077D01*
X186507682Y-158058461D01*
X186707898Y-158094348D01*
X186966929Y-158115785D01*
X187300321Y-158125821D01*
X187604312Y-158127700D01*
X187929689Y-158126995D01*
X188166832Y-158124011D01*
X188329102Y-158117437D01*
X188429861Y-158105967D01*
X188482469Y-158088291D01*
X188500289Y-158063101D01*
X188499175Y-158040075D01*
X188444084Y-157953293D01*
X188357079Y-157890022D01*
X188312946Y-157864147D01*
X188272952Y-157826941D01*
X188233273Y-157768024D01*
X188208609Y-157716046D01*
X187488715Y-157716046D01*
X187466802Y-157787401D01*
X187396089Y-157816791D01*
X187269935Y-157822700D01*
X187251300Y-157822710D01*
X187000476Y-157787810D01*
X186841844Y-157719997D01*
X186669375Y-157556590D01*
X186563753Y-157320085D01*
X186527406Y-157015952D01*
X186527400Y-157011731D01*
X186553036Y-156788304D01*
X186636251Y-156644273D01*
X186786506Y-156569554D01*
X186957781Y-156552900D01*
X187184962Y-156552900D01*
X187258889Y-156819600D01*
X187317744Y-157031730D01*
X187383363Y-157267969D01*
X187412709Y-157373518D01*
X187468470Y-157584246D01*
X187488715Y-157716046D01*
X188208609Y-157716046D01*
X188190086Y-157677013D01*
X188139564Y-157543529D01*
X188077886Y-157357189D01*
X188001227Y-157107612D01*
X187905763Y-156784419D01*
X187787669Y-156377226D01*
X187743795Y-156225128D01*
X187741349Y-156216606D01*
X187085677Y-156216606D01*
X187040926Y-156237555D01*
X186926453Y-156240749D01*
X186846793Y-156234328D01*
X186682602Y-156201792D01*
X186553877Y-156132370D01*
X186415611Y-156001751D01*
X186414993Y-156001089D01*
X186301289Y-155868330D01*
X186244017Y-155756009D01*
X186224291Y-155616371D01*
X186222600Y-155514638D01*
X186229117Y-155344509D01*
X186256231Y-155242423D01*
X186315292Y-155175242D01*
X186346317Y-155153379D01*
X186487967Y-155097808D01*
X186608893Y-155088708D01*
X186672162Y-155102965D01*
X186722412Y-155140104D01*
X186769383Y-155217538D01*
X186822817Y-155352679D01*
X186892454Y-155562941D01*
X186916453Y-155638500D01*
X186984791Y-155858279D01*
X187039939Y-156042689D01*
X187075536Y-156170001D01*
X187085677Y-156216606D01*
X187741349Y-156216606D01*
X187641906Y-155870153D01*
X187566112Y-155599702D01*
X187513949Y-155400795D01*
X187482956Y-155260453D01*
X187470672Y-155165694D01*
X187474636Y-155103539D01*
X187492385Y-155061008D01*
X187517123Y-155029869D01*
X187574257Y-154928235D01*
X187576556Y-154852992D01*
X187549932Y-154822045D01*
X187487805Y-154800282D01*
X187375308Y-154786217D01*
X187197576Y-154778364D01*
X186939743Y-154775239D01*
X186795695Y-154774978D01*
X186439300Y-154779650D01*
G37*
X186439300Y-154779650D02*
X186168635Y-154796673D01*
X185968122Y-154830686D01*
X185822183Y-154886328D01*
X185715241Y-154968240D01*
X185631719Y-155081059D01*
X185604609Y-155129707D01*
X185524136Y-155364065D01*
X185533790Y-155605118D01*
X185608197Y-155821325D01*
X185758353Y-156045945D01*
X185982346Y-156211668D01*
X186189013Y-156297277D01*
X186384026Y-156360557D01*
X186237648Y-156449575D01*
X186106271Y-156549538D01*
X185972917Y-156679972D01*
X185953735Y-156702044D01*
X185867624Y-156826001D01*
X185826551Y-156958963D01*
X185816200Y-157143520D01*
X185843128Y-157414515D01*
X185933892Y-157632279D01*
X186103470Y-157832661D01*
X186104485Y-157833626D01*
X186221520Y-157931148D01*
X186350738Y-158005077D01*
X186507682Y-158058461D01*
X186707898Y-158094348D01*
X186966929Y-158115785D01*
X187300321Y-158125821D01*
X187604312Y-158127700D01*
X187929689Y-158126995D01*
X188166832Y-158124011D01*
X188329102Y-158117437D01*
X188429861Y-158105967D01*
X188482469Y-158088291D01*
X188500289Y-158063101D01*
X188499175Y-158040075D01*
X188444084Y-157953293D01*
X188357079Y-157890022D01*
X188312946Y-157864147D01*
X188272952Y-157826941D01*
X188233273Y-157768024D01*
X188208609Y-157716046D01*
X187488715Y-157716046D01*
X187466802Y-157787401D01*
X187396089Y-157816791D01*
X187269935Y-157822700D01*
X187251300Y-157822710D01*
X187000476Y-157787810D01*
X186841844Y-157719997D01*
X186669375Y-157556590D01*
X186563753Y-157320085D01*
X186527406Y-157015952D01*
X186527400Y-157011731D01*
X186553036Y-156788304D01*
X186636251Y-156644273D01*
X186786506Y-156569554D01*
X186957781Y-156552900D01*
X187184962Y-156552900D01*
X187258889Y-156819600D01*
X187317744Y-157031730D01*
X187383363Y-157267969D01*
X187412709Y-157373518D01*
X187468470Y-157584246D01*
X187488715Y-157716046D01*
X188208609Y-157716046D01*
X188190086Y-157677013D01*
X188139564Y-157543529D01*
X188077886Y-157357189D01*
X188001227Y-157107612D01*
X187905763Y-156784419D01*
X187787669Y-156377226D01*
X187743795Y-156225128D01*
X187741349Y-156216606D01*
X187085677Y-156216606D01*
X187040926Y-156237555D01*
X186926453Y-156240749D01*
X186846793Y-156234328D01*
X186682602Y-156201792D01*
X186553877Y-156132370D01*
X186415611Y-156001751D01*
X186414993Y-156001089D01*
X186301289Y-155868330D01*
X186244017Y-155756009D01*
X186224291Y-155616371D01*
X186222600Y-155514638D01*
X186229117Y-155344509D01*
X186256231Y-155242423D01*
X186315292Y-155175242D01*
X186346317Y-155153379D01*
X186487967Y-155097808D01*
X186608893Y-155088708D01*
X186672162Y-155102965D01*
X186722412Y-155140104D01*
X186769383Y-155217538D01*
X186822817Y-155352679D01*
X186892454Y-155562941D01*
X186916453Y-155638500D01*
X186984791Y-155858279D01*
X187039939Y-156042689D01*
X187075536Y-156170001D01*
X187085677Y-156216606D01*
X187741349Y-156216606D01*
X187641906Y-155870153D01*
X187566112Y-155599702D01*
X187513949Y-155400795D01*
X187482956Y-155260453D01*
X187470672Y-155165694D01*
X187474636Y-155103539D01*
X187492385Y-155061008D01*
X187517123Y-155029869D01*
X187574257Y-154928235D01*
X187576556Y-154852992D01*
X187549932Y-154822045D01*
X187487805Y-154800282D01*
X187375308Y-154786217D01*
X187197576Y-154778364D01*
X186939743Y-154775239D01*
X186795695Y-154774978D01*
X186439300Y-154779650D01*
G36*
X181059260Y-154777258D02*
G01*
X180907961Y-154786098D01*
X180824014Y-154804063D01*
X180790332Y-154833799D01*
X180787000Y-154853536D01*
X180822172Y-154940374D01*
X180907094Y-155041239D01*
X180910146Y-155044036D01*
X181033292Y-155155900D01*
X180944479Y-155701533D01*
X180905829Y-155925829D01*
X180869869Y-156111132D01*
X180841101Y-156235552D01*
X180826203Y-156276630D01*
X180789071Y-156248349D01*
X180707928Y-156153884D01*
X180595883Y-156011073D01*
X180466046Y-155837756D01*
X180331524Y-155651772D01*
X180205426Y-155470960D01*
X180100861Y-155313159D01*
X180030937Y-155196209D01*
X180027555Y-155189774D01*
X179993244Y-155084894D01*
X180032808Y-154998499D01*
X180051328Y-154977075D01*
X180104345Y-154886539D01*
X180103179Y-154828901D01*
X180038196Y-154801388D01*
X179905058Y-154783727D01*
X179736511Y-154776199D01*
X179565301Y-154779087D01*
X179424174Y-154792670D01*
X179345874Y-154817232D01*
X179341270Y-154822352D01*
X179359412Y-154879484D01*
X179435061Y-154984015D01*
X179551937Y-155113504D01*
X179554172Y-155115777D01*
X179667285Y-155242098D01*
X179822368Y-155431224D01*
X180003252Y-155662637D01*
X180193768Y-155915819D01*
X180307403Y-156071625D01*
X180496448Y-156336323D01*
X180635969Y-156539974D01*
X180736917Y-156703171D01*
X180810242Y-156846507D01*
X180866895Y-156990578D01*
X180917826Y-157155977D01*
X180953688Y-157287063D01*
X181013835Y-157519284D01*
X181047160Y-157674536D01*
X181055763Y-157773244D01*
X181041744Y-157835834D01*
X181014185Y-157875263D01*
X180952624Y-157980132D01*
X180939400Y-158042800D01*
X180950803Y-158080314D01*
X180996340Y-158104979D01*
X181093006Y-158119377D01*
X181257794Y-158126089D01*
X181498200Y-158127700D01*
X181736501Y-158123514D01*
X181919810Y-158111950D01*
X182031073Y-158094498D01*
X182057000Y-158078902D01*
X182025003Y-158010099D01*
X181920449Y-157916852D01*
X181839001Y-157858413D01*
X181787019Y-157783952D01*
X181720682Y-157635159D01*
X181647864Y-157436843D01*
X181576437Y-157213810D01*
X181514274Y-156990868D01*
X181469248Y-156792826D01*
X181449232Y-156644489D01*
X181448873Y-156629100D01*
X181457733Y-156497351D01*
X181482047Y-156303478D01*
X181517861Y-156069029D01*
X181561223Y-155815550D01*
X181608178Y-155564589D01*
X181654773Y-155337693D01*
X181697056Y-155156411D01*
X181731072Y-155042288D01*
X181744841Y-155015939D01*
X181795962Y-154916849D01*
X181803000Y-154866340D01*
X181793339Y-154824523D01*
X181752285Y-154797730D01*
X181661738Y-154782704D01*
X181503594Y-154776185D01*
X181295000Y-154774900D01*
X181059260Y-154777258D01*
G37*
X181059260Y-154777258D02*
X180907961Y-154786098D01*
X180824014Y-154804063D01*
X180790332Y-154833799D01*
X180787000Y-154853536D01*
X180822172Y-154940374D01*
X180907094Y-155041239D01*
X180910146Y-155044036D01*
X181033292Y-155155900D01*
X180944479Y-155701533D01*
X180905829Y-155925829D01*
X180869869Y-156111132D01*
X180841101Y-156235552D01*
X180826203Y-156276630D01*
X180789071Y-156248349D01*
X180707928Y-156153884D01*
X180595883Y-156011073D01*
X180466046Y-155837756D01*
X180331524Y-155651772D01*
X180205426Y-155470960D01*
X180100861Y-155313159D01*
X180030937Y-155196209D01*
X180027555Y-155189774D01*
X179993244Y-155084894D01*
X180032808Y-154998499D01*
X180051328Y-154977075D01*
X180104345Y-154886539D01*
X180103179Y-154828901D01*
X180038196Y-154801388D01*
X179905058Y-154783727D01*
X179736511Y-154776199D01*
X179565301Y-154779087D01*
X179424174Y-154792670D01*
X179345874Y-154817232D01*
X179341270Y-154822352D01*
X179359412Y-154879484D01*
X179435061Y-154984015D01*
X179551937Y-155113504D01*
X179554172Y-155115777D01*
X179667285Y-155242098D01*
X179822368Y-155431224D01*
X180003252Y-155662637D01*
X180193768Y-155915819D01*
X180307403Y-156071625D01*
X180496448Y-156336323D01*
X180635969Y-156539974D01*
X180736917Y-156703171D01*
X180810242Y-156846507D01*
X180866895Y-156990578D01*
X180917826Y-157155977D01*
X180953688Y-157287063D01*
X181013835Y-157519284D01*
X181047160Y-157674536D01*
X181055763Y-157773244D01*
X181041744Y-157835834D01*
X181014185Y-157875263D01*
X180952624Y-157980132D01*
X180939400Y-158042800D01*
X180950803Y-158080314D01*
X180996340Y-158104979D01*
X181093006Y-158119377D01*
X181257794Y-158126089D01*
X181498200Y-158127700D01*
X181736501Y-158123514D01*
X181919810Y-158111950D01*
X182031073Y-158094498D01*
X182057000Y-158078902D01*
X182025003Y-158010099D01*
X181920449Y-157916852D01*
X181839001Y-157858413D01*
X181787019Y-157783952D01*
X181720682Y-157635159D01*
X181647864Y-157436843D01*
X181576437Y-157213810D01*
X181514274Y-156990868D01*
X181469248Y-156792826D01*
X181449232Y-156644489D01*
X181448873Y-156629100D01*
X181457733Y-156497351D01*
X181482047Y-156303478D01*
X181517861Y-156069029D01*
X181561223Y-155815550D01*
X181608178Y-155564589D01*
X181654773Y-155337693D01*
X181697056Y-155156411D01*
X181731072Y-155042288D01*
X181744841Y-155015939D01*
X181795962Y-154916849D01*
X181803000Y-154866340D01*
X181793339Y-154824523D01*
X181752285Y-154797730D01*
X181661738Y-154782704D01*
X181503594Y-154776185D01*
X181295000Y-154774900D01*
X181059260Y-154777258D01*
D13*
X148457400Y-154658200D02*
X148457400Y-153958200D01*
X149157400Y-154658200D02*
X148457400Y-154658200D01*
X155457400Y-154658200D02*
X154757400Y-154658200D01*
X155457400Y-153958200D02*
X155457400Y-154658200D01*
X155457400Y-147658200D02*
X155457400Y-148358200D01*
X154757400Y-147658200D02*
X155457400Y-147658200D01*
D10*
X149163400Y-147348200D02*
G75*
G03*
X149163400Y-147348200I-381000J0D01*
G01*
D11*
X164195200Y-143998200D02*
X164195200Y-144698200D01*
X165395200Y-144698200D02*
X165395200Y-143998200D01*
X164555800Y-152901400D02*
X164555800Y-148901400D01*
X167855800Y-152901400D02*
X164555800Y-152901400D01*
D14*
X210887000Y-154555500D02*
X216087000Y-154555500D01*
X216087000Y-154555500D02*
X216087000Y-149355500D01*
X216087000Y-149355500D02*
X210887000Y-149355500D01*
X210887000Y-149355500D02*
X210887000Y-154555500D01*
X214487000Y-151955500D02*
G75*
G03*
X214487000Y-151955500I-1000000J0D01*
G01*
D11*
X70362000Y-51948800D02*
X69362000Y-51948800D01*
X69362000Y-53308800D02*
X70362000Y-53308800D01*
X61905600Y-52535200D02*
X61905600Y-53535200D01*
X63265600Y-53535200D02*
X63265600Y-52535200D01*
X159799400Y-148025400D02*
X160799400Y-148025400D01*
X160799400Y-146665400D02*
X159799400Y-146665400D01*
X68447200Y-59936000D02*
X68447200Y-58936000D01*
X67087200Y-58936000D02*
X67087200Y-59936000D01*
X68712800Y-58936000D02*
X68712800Y-59936000D01*
X70072800Y-59936000D02*
X70072800Y-58936000D01*
X147366100Y-157347200D02*
X148366100Y-157347200D01*
X148366100Y-155987200D02*
X147366100Y-155987200D01*
D13*
X73632900Y-51330500D02*
X73632900Y-50650500D01*
X71832900Y-51330500D02*
X71832900Y-50650500D01*
X64349200Y-59279600D02*
X64349200Y-58599600D01*
X62549200Y-59279600D02*
X62549200Y-58599600D01*
D11*
X59331200Y-52086000D02*
X59331200Y-54086000D01*
X61471200Y-54086000D02*
X61471200Y-52086000D01*
D13*
X142737500Y-136230000D02*
X143537500Y-136930000D01*
X142337500Y-136630000D02*
X142737500Y-136230000D01*
X142637500Y-136930000D02*
X142337500Y-136630000D01*
X142757960Y-139430000D02*
G75*
G03*
X142757960Y-139430000I-1720460J0D01*
G01*
X143537500Y-137830000D02*
X142637500Y-136930000D01*
X138537500Y-136930000D02*
X138537500Y-141930000D01*
X142637500Y-136930000D02*
X138537500Y-136930000D01*
X143537500Y-136930000D02*
X142637500Y-136930000D01*
X143537500Y-137830000D02*
X143537500Y-136930000D01*
X143537500Y-141930000D02*
X143537500Y-137830000D01*
X138537500Y-141930000D02*
X143537500Y-141930000D01*
X176537500Y-141930000D02*
X181537500Y-141930000D01*
X181537500Y-141930000D02*
X181537500Y-137830000D01*
X181537500Y-137830000D02*
X181537500Y-136930000D01*
X181537500Y-136930000D02*
X180637500Y-136930000D01*
X180637500Y-136930000D02*
X176537500Y-136930000D01*
X176537500Y-136930000D02*
X176537500Y-141930000D01*
X181537500Y-137830000D02*
X180637500Y-136930000D01*
X180757960Y-139430000D02*
G75*
G03*
X180757960Y-139430000I-1720460J0D01*
G01*
X180637500Y-136930000D02*
X180337500Y-136630000D01*
X180337500Y-136630000D02*
X180737500Y-136230000D01*
X180737500Y-136230000D02*
X181537500Y-136930000D01*
X214537500Y-141930000D02*
X219537500Y-141930000D01*
X219537500Y-141930000D02*
X219537500Y-137830000D01*
X219537500Y-137830000D02*
X219537500Y-136930000D01*
X219537500Y-136930000D02*
X218637500Y-136930000D01*
X218637500Y-136930000D02*
X214537500Y-136930000D01*
X214537500Y-136930000D02*
X214537500Y-141930000D01*
X219537500Y-137830000D02*
X218637500Y-136930000D01*
X218757960Y-139430000D02*
G75*
G03*
X218757960Y-139430000I-1720460J0D01*
G01*
X218637500Y-136930000D02*
X218337500Y-136630000D01*
X218337500Y-136630000D02*
X218737500Y-136230000D01*
X218737500Y-136230000D02*
X219537500Y-136930000D01*
X252543000Y-141930000D02*
X257543000Y-141930000D01*
X257543000Y-141930000D02*
X257543000Y-137830000D01*
X257543000Y-137830000D02*
X257543000Y-136930000D01*
X257543000Y-136930000D02*
X256643000Y-136930000D01*
X256643000Y-136930000D02*
X252543000Y-136930000D01*
X252543000Y-136930000D02*
X252543000Y-141930000D01*
X257543000Y-137830000D02*
X256643000Y-136930000D01*
X256763460Y-139430000D02*
G75*
G03*
X256763460Y-139430000I-1720460J0D01*
G01*
X256643000Y-136930000D02*
X256343000Y-136630000D01*
X256343000Y-136630000D02*
X256743000Y-136230000D01*
X256743000Y-136230000D02*
X257543000Y-136930000D01*
X290543000Y-141930000D02*
X295543000Y-141930000D01*
X295543000Y-141930000D02*
X295543000Y-137830000D01*
X295543000Y-137830000D02*
X295543000Y-136930000D01*
X295543000Y-136930000D02*
X294643000Y-136930000D01*
X294643000Y-136930000D02*
X290543000Y-136930000D01*
X290543000Y-136930000D02*
X290543000Y-141930000D01*
X295543000Y-137830000D02*
X294643000Y-136930000D01*
X294763460Y-139430000D02*
G75*
G03*
X294763460Y-139430000I-1720460J0D01*
G01*
X294643000Y-136930000D02*
X294343000Y-136630000D01*
X294343000Y-136630000D02*
X294743000Y-136230000D01*
X294743000Y-136230000D02*
X295543000Y-136930000D01*
X331052500Y-142965534D02*
X334588034Y-139430000D01*
X334588034Y-139430000D02*
X331688896Y-136530862D01*
X331688896Y-136530862D02*
X331052500Y-135894466D01*
X331052500Y-135894466D02*
X330416104Y-136530862D01*
X330416104Y-136530862D02*
X327516966Y-139430000D01*
X327516966Y-139430000D02*
X331052500Y-142965534D01*
X331688896Y-136530862D02*
X330416104Y-136530862D01*
X332772960Y-139430000D02*
G75*
G03*
X332772960Y-139430000I-1720460J0D01*
G01*
X330416104Y-136530862D02*
X329991840Y-136530862D01*
X329991840Y-136530862D02*
X329991840Y-135965177D01*
X329991840Y-135965177D02*
X331052500Y-135894466D01*
X333462000Y-102275000D02*
X328462000Y-102275000D01*
X328462000Y-102275000D02*
X328462000Y-106375000D01*
X328462000Y-106375000D02*
X328462000Y-107275000D01*
X328462000Y-107275000D02*
X329362000Y-107275000D01*
X329362000Y-107275000D02*
X333462000Y-107275000D01*
X333462000Y-107275000D02*
X333462000Y-102275000D01*
X328462000Y-106375000D02*
X329362000Y-107275000D01*
X332682460Y-104775000D02*
G75*
G03*
X332682460Y-104775000I-1720460J0D01*
G01*
X329362000Y-107275000D02*
X329662000Y-107575000D01*
X329662000Y-107575000D02*
X329262000Y-107975000D01*
X329262000Y-107975000D02*
X328462000Y-107275000D01*
X334497534Y-70104000D02*
X330962000Y-66568466D01*
X330962000Y-66568466D02*
X328062862Y-69467604D01*
X328062862Y-69467604D02*
X327426466Y-70104000D01*
X327426466Y-70104000D02*
X328062862Y-70740396D01*
X328062862Y-70740396D02*
X330962000Y-73639534D01*
X330962000Y-73639534D02*
X334497534Y-70104000D01*
X328062862Y-69467604D02*
X328062862Y-70740396D01*
X332682460Y-70104000D02*
G75*
G03*
X332682460Y-70104000I-1720460J0D01*
G01*
X328062862Y-70740396D02*
X328062862Y-71164660D01*
X328062862Y-71164660D02*
X327497177Y-71164660D01*
X327497177Y-71164660D02*
X327426466Y-70104000D01*
X291289000Y-73304000D02*
X290489000Y-72604000D01*
X291689000Y-72904000D02*
X291289000Y-73304000D01*
X291389000Y-72604000D02*
X291689000Y-72904000D01*
X294709460Y-70104000D02*
G75*
G03*
X294709460Y-70104000I-1720460J0D01*
G01*
X290489000Y-71704000D02*
X291389000Y-72604000D01*
X295489000Y-72604000D02*
X295489000Y-67604000D01*
X291389000Y-72604000D02*
X295489000Y-72604000D01*
X290489000Y-72604000D02*
X291389000Y-72604000D01*
X290489000Y-71704000D02*
X290489000Y-72604000D01*
X290489000Y-67604000D02*
X290489000Y-71704000D01*
X295489000Y-67604000D02*
X290489000Y-67604000D01*
X257516000Y-67604000D02*
X252516000Y-67604000D01*
X252516000Y-67604000D02*
X252516000Y-71704000D01*
X252516000Y-71704000D02*
X252516000Y-72604000D01*
X252516000Y-72604000D02*
X253416000Y-72604000D01*
X253416000Y-72604000D02*
X257516000Y-72604000D01*
X257516000Y-72604000D02*
X257516000Y-67604000D01*
X252516000Y-71704000D02*
X253416000Y-72604000D01*
X256736460Y-70104000D02*
G75*
G03*
X256736460Y-70104000I-1720460J0D01*
G01*
X253416000Y-72604000D02*
X253716000Y-72904000D01*
X253716000Y-72904000D02*
X253316000Y-73304000D01*
X253316000Y-73304000D02*
X252516000Y-72604000D01*
X219543000Y-67604000D02*
X214543000Y-67604000D01*
X214543000Y-67604000D02*
X214543000Y-71704000D01*
X214543000Y-71704000D02*
X214543000Y-72604000D01*
X214543000Y-72604000D02*
X215443000Y-72604000D01*
X215443000Y-72604000D02*
X219543000Y-72604000D01*
X219543000Y-72604000D02*
X219543000Y-67604000D01*
X214543000Y-71704000D02*
X215443000Y-72604000D01*
X218763460Y-70104000D02*
G75*
G03*
X218763460Y-70104000I-1720460J0D01*
G01*
X215443000Y-72604000D02*
X215743000Y-72904000D01*
X215743000Y-72904000D02*
X215343000Y-73304000D01*
X215343000Y-73304000D02*
X214543000Y-72604000D01*
X181570000Y-67604000D02*
X176570000Y-67604000D01*
X176570000Y-67604000D02*
X176570000Y-71704000D01*
X176570000Y-71704000D02*
X176570000Y-72604000D01*
X176570000Y-72604000D02*
X177470000Y-72604000D01*
X177470000Y-72604000D02*
X181570000Y-72604000D01*
X181570000Y-72604000D02*
X181570000Y-67604000D01*
X176570000Y-71704000D02*
X177470000Y-72604000D01*
X180790460Y-70104000D02*
G75*
G03*
X180790460Y-70104000I-1720460J0D01*
G01*
X177470000Y-72604000D02*
X177770000Y-72904000D01*
X177770000Y-72904000D02*
X177370000Y-73304000D01*
X177370000Y-73304000D02*
X176570000Y-72604000D01*
X143597000Y-67604000D02*
X138597000Y-67604000D01*
X138597000Y-67604000D02*
X138597000Y-71704000D01*
X138597000Y-71704000D02*
X138597000Y-72604000D01*
X138597000Y-72604000D02*
X139497000Y-72604000D01*
X139497000Y-72604000D02*
X143597000Y-72604000D01*
X143597000Y-72604000D02*
X143597000Y-67604000D01*
X138597000Y-71704000D02*
X139497000Y-72604000D01*
X142817460Y-70104000D02*
G75*
G03*
X142817460Y-70104000I-1720460J0D01*
G01*
X139497000Y-72604000D02*
X139797000Y-72904000D01*
X139797000Y-72904000D02*
X139397000Y-73304000D01*
X139397000Y-73304000D02*
X138597000Y-72604000D01*
X101322400Y-73304000D02*
X100522400Y-72604000D01*
X101722400Y-72904000D02*
X101322400Y-73304000D01*
X101422400Y-72604000D02*
X101722400Y-72904000D01*
X104742860Y-70104000D02*
G75*
G03*
X104742860Y-70104000I-1720460J0D01*
G01*
X100522400Y-71704000D02*
X101422400Y-72604000D01*
X105522400Y-72604000D02*
X105522400Y-67604000D01*
X101422400Y-72604000D02*
X105522400Y-72604000D01*
X100522400Y-72604000D02*
X101422400Y-72604000D01*
X100522400Y-71704000D02*
X100522400Y-72604000D01*
X100522400Y-67604000D02*
X100522400Y-71704000D01*
X105522400Y-67604000D02*
X100522400Y-67604000D01*
X66084660Y-73568823D02*
X65024000Y-73639534D01*
X66084660Y-73003138D02*
X66084660Y-73568823D01*
X65660396Y-73003138D02*
X66084660Y-73003138D01*
X66744460Y-70104000D02*
G75*
G03*
X66744460Y-70104000I-1720460J0D01*
G01*
X64387604Y-73003138D02*
X65660396Y-73003138D01*
X68559534Y-70104000D02*
X65024000Y-66568466D01*
X65660396Y-73003138D02*
X68559534Y-70104000D01*
X65024000Y-73639534D02*
X65660396Y-73003138D01*
X64387604Y-73003138D02*
X65024000Y-73639534D01*
X61488466Y-70104000D02*
X64387604Y-73003138D01*
X65024000Y-66568466D02*
X61488466Y-70104000D01*
X66724000Y-101575000D02*
X67524000Y-102275000D01*
X66324000Y-101975000D02*
X66724000Y-101575000D01*
X66624000Y-102275000D02*
X66324000Y-101975000D01*
X66744460Y-104775000D02*
G75*
G03*
X66744460Y-104775000I-1720460J0D01*
G01*
X67524000Y-103175000D02*
X66624000Y-102275000D01*
X62524000Y-102275000D02*
X62524000Y-107275000D01*
X66624000Y-102275000D02*
X62524000Y-102275000D01*
X67524000Y-102275000D02*
X66624000Y-102275000D01*
X67524000Y-103175000D02*
X67524000Y-102275000D01*
X67524000Y-107275000D02*
X67524000Y-103175000D01*
X62524000Y-107275000D02*
X67524000Y-107275000D01*
X68502323Y-138369340D02*
X68573034Y-139430000D01*
X67936638Y-138369340D02*
X68502323Y-138369340D01*
X67936638Y-138793604D02*
X67936638Y-138369340D01*
X66757960Y-139430000D02*
G75*
G03*
X66757960Y-139430000I-1720460J0D01*
G01*
X67936638Y-140066396D02*
X67936638Y-138793604D01*
X65037500Y-135894466D02*
X61501966Y-139430000D01*
X67936638Y-138793604D02*
X65037500Y-135894466D01*
X68573034Y-139430000D02*
X67936638Y-138793604D01*
X67936638Y-140066396D02*
X68573034Y-139430000D01*
X65037500Y-142965534D02*
X67936638Y-140066396D01*
X61501966Y-139430000D02*
X65037500Y-142965534D01*
X104737500Y-136230000D02*
X105537500Y-136930000D01*
X104337500Y-136630000D02*
X104737500Y-136230000D01*
X104637500Y-136930000D02*
X104337500Y-136630000D01*
X104757960Y-139430000D02*
G75*
G03*
X104757960Y-139430000I-1720460J0D01*
G01*
X105537500Y-137830000D02*
X104637500Y-136930000D01*
X100537500Y-136930000D02*
X100537500Y-141930000D01*
X104637500Y-136930000D02*
X100537500Y-136930000D01*
X105537500Y-136930000D02*
X104637500Y-136930000D01*
X105537500Y-137830000D02*
X105537500Y-136930000D01*
X105537500Y-141930000D02*
X105537500Y-137830000D01*
X100537500Y-141930000D02*
X105537500Y-141930000D01*
D11*
X339684800Y-157464000D02*
X343584800Y-157464000D01*
X339684800Y-155464000D02*
X343584800Y-155464000D01*
X339684800Y-157464000D02*
X339684800Y-155464000D01*
X332673200Y-154650000D02*
X332673200Y-150750000D01*
X330673200Y-154650000D02*
X330673200Y-150750000D01*
X332673200Y-154650000D02*
X330673200Y-154650000D01*
X313775600Y-154650000D02*
X313775600Y-150750000D01*
X311775600Y-154650000D02*
X311775600Y-150750000D01*
X313775600Y-154650000D02*
X311775600Y-154650000D01*
X282781250Y-154650000D02*
X282781250Y-150750000D01*
X280781250Y-154650000D02*
X280781250Y-150750000D01*
X282781250Y-154650000D02*
X280781250Y-154650000D01*
X258962400Y-154650000D02*
X258962400Y-150750000D01*
X256962400Y-154650000D02*
X256962400Y-150750000D01*
X258962400Y-154650000D02*
X256962400Y-154650000D01*
X195850000Y-144027600D02*
X195850000Y-147927600D01*
X197850000Y-144027600D02*
X197850000Y-147927600D01*
X195850000Y-144027600D02*
X197850000Y-144027600D01*
X118475000Y-154650000D02*
X118475000Y-150750000D01*
X116475000Y-154650000D02*
X116475000Y-150750000D01*
X118475000Y-154650000D02*
X116475000Y-154650000D01*
X94624400Y-154674400D02*
X94624400Y-150774400D01*
X92624400Y-154674400D02*
X92624400Y-150774400D01*
X94624400Y-154674400D02*
X92624400Y-154674400D01*
X70799200Y-154650000D02*
X70799200Y-150750000D01*
X68799200Y-154650000D02*
X68799200Y-150750000D01*
X70799200Y-154650000D02*
X68799200Y-154650000D01*
X344693750Y-142743750D02*
X344693750Y-138843750D01*
X342693750Y-142743750D02*
X342693750Y-138843750D01*
X344693750Y-142743750D02*
X342693750Y-142743750D01*
X325643750Y-142743750D02*
X325643750Y-138843750D01*
X323643750Y-142743750D02*
X323643750Y-138843750D01*
X325643750Y-142743750D02*
X323643750Y-142743750D01*
X299450000Y-142743750D02*
X299450000Y-138843750D01*
X297450000Y-142743750D02*
X297450000Y-138843750D01*
X299450000Y-142743750D02*
X297450000Y-142743750D01*
X273256250Y-142743750D02*
X273256250Y-138843750D01*
X271256250Y-142743750D02*
X271256250Y-138843750D01*
X273256250Y-142743750D02*
X271256250Y-142743750D01*
X249412000Y-142743750D02*
X249412000Y-138843750D01*
X247412000Y-142743750D02*
X247412000Y-138843750D01*
X249412000Y-142743750D02*
X247412000Y-142743750D01*
X235156250Y-142743750D02*
X235156250Y-138843750D01*
X233156250Y-142743750D02*
X233156250Y-138843750D01*
X235156250Y-142743750D02*
X233156250Y-142743750D01*
X211121500Y-142743750D02*
X211121500Y-138843750D01*
X209121500Y-142743750D02*
X209121500Y-138843750D01*
X211121500Y-142743750D02*
X209121500Y-142743750D01*
X197056250Y-142743750D02*
X197056250Y-138843750D01*
X195056250Y-142743750D02*
X195056250Y-138843750D01*
X197056250Y-142743750D02*
X195056250Y-142743750D01*
X173021500Y-142743750D02*
X173021500Y-138843750D01*
X171021500Y-142743750D02*
X171021500Y-138843750D01*
X173021500Y-142743750D02*
X171021500Y-142743750D01*
X158956250Y-142743750D02*
X158956250Y-138843750D01*
X156956250Y-142743750D02*
X156956250Y-138843750D01*
X158956250Y-142743750D02*
X156956250Y-142743750D01*
X135175500Y-142743750D02*
X135175500Y-138843750D01*
X133175500Y-142743750D02*
X133175500Y-138843750D01*
X135175500Y-142743750D02*
X133175500Y-142743750D01*
X120856250Y-142743750D02*
X120856250Y-138843750D01*
X118856250Y-142743750D02*
X118856250Y-138843750D01*
X120856250Y-142743750D02*
X118856250Y-142743750D01*
X96821500Y-142712000D02*
X96821500Y-138812000D01*
X94821500Y-142712000D02*
X94821500Y-138812000D01*
X96821500Y-142712000D02*
X94821500Y-142712000D01*
X84439000Y-142743750D02*
X84439000Y-138843750D01*
X82439000Y-142743750D02*
X82439000Y-138843750D01*
X84439000Y-142743750D02*
X82439000Y-142743750D01*
X71739000Y-142743750D02*
X71739000Y-138843750D01*
X69739000Y-142743750D02*
X69739000Y-138843750D01*
X71739000Y-142743750D02*
X69739000Y-142743750D01*
X344693750Y-123693750D02*
X344693750Y-119793750D01*
X342693750Y-123693750D02*
X342693750Y-119793750D01*
X344693750Y-123693750D02*
X342693750Y-123693750D01*
X305800000Y-123693750D02*
X305800000Y-119793750D01*
X303800000Y-123693750D02*
X303800000Y-119793750D01*
X305800000Y-123693750D02*
X303800000Y-123693750D01*
X282781250Y-123693750D02*
X282781250Y-119793750D01*
X280781250Y-123693750D02*
X280781250Y-119793750D01*
X282781250Y-123693750D02*
X280781250Y-123693750D01*
X263731250Y-123693750D02*
X263731250Y-119793750D01*
X261731250Y-123693750D02*
X261731250Y-119793750D01*
X263731250Y-123693750D02*
X261731250Y-123693750D01*
X244681250Y-123693750D02*
X244681250Y-119793750D01*
X242681250Y-123693750D02*
X242681250Y-119793750D01*
X244681250Y-123693750D02*
X242681250Y-123693750D01*
X225631250Y-123693750D02*
X225631250Y-119793750D01*
X223631250Y-123693750D02*
X223631250Y-119793750D01*
X225631250Y-123693750D02*
X223631250Y-123693750D01*
X206581250Y-123693750D02*
X206581250Y-119793750D01*
X204581250Y-123693750D02*
X204581250Y-119793750D01*
X206581250Y-123693750D02*
X204581250Y-123693750D01*
X187531250Y-123693750D02*
X187531250Y-119793750D01*
X185531250Y-123693750D02*
X185531250Y-119793750D01*
X187531250Y-123693750D02*
X185531250Y-123693750D01*
X168481250Y-123693750D02*
X168481250Y-119793750D01*
X166481250Y-123693750D02*
X166481250Y-119793750D01*
X168481250Y-123693750D02*
X166481250Y-123693750D01*
X149431250Y-123693750D02*
X149431250Y-119793750D01*
X147431250Y-123693750D02*
X147431250Y-119793750D01*
X149431250Y-123693750D02*
X147431250Y-123693750D01*
X130381250Y-123693750D02*
X130381250Y-119793750D01*
X128381250Y-123693750D02*
X128381250Y-119793750D01*
X130381250Y-123693750D02*
X128381250Y-123693750D01*
X111331250Y-123693750D02*
X111331250Y-119793750D01*
X109331250Y-123693750D02*
X109331250Y-119793750D01*
X111331250Y-123693750D02*
X109331250Y-123693750D01*
X92281250Y-123693750D02*
X92281250Y-119793750D01*
X90281250Y-123693750D02*
X90281250Y-119793750D01*
X92281250Y-123693750D02*
X90281250Y-123693750D01*
X71643750Y-123693750D02*
X71643750Y-119793750D01*
X69643750Y-123693750D02*
X69643750Y-119793750D01*
X71643750Y-123693750D02*
X69643750Y-123693750D01*
X344693750Y-104643750D02*
X344693750Y-100743750D01*
X342693750Y-104643750D02*
X342693750Y-100743750D01*
X344693750Y-104643750D02*
X342693750Y-104643750D01*
X324247000Y-100112000D02*
X324247000Y-104012000D01*
X326247000Y-100112000D02*
X326247000Y-104012000D01*
X324247000Y-100112000D02*
X326247000Y-100112000D01*
X297068750Y-104643750D02*
X297068750Y-100743750D01*
X295068750Y-104643750D02*
X295068750Y-100743750D01*
X297068750Y-104643750D02*
X295068750Y-104643750D01*
X278018750Y-104643750D02*
X278018750Y-100743750D01*
X276018750Y-104643750D02*
X276018750Y-100743750D01*
X278018750Y-104643750D02*
X276018750Y-104643750D01*
X258968750Y-104643750D02*
X258968750Y-100743750D01*
X256968750Y-104643750D02*
X256968750Y-100743750D01*
X258968750Y-104643750D02*
X256968750Y-104643750D01*
X239918750Y-104643750D02*
X239918750Y-100743750D01*
X237918750Y-104643750D02*
X237918750Y-100743750D01*
X239918750Y-104643750D02*
X237918750Y-104643750D01*
X220868750Y-104643750D02*
X220868750Y-100743750D01*
X218868750Y-104643750D02*
X218868750Y-100743750D01*
X220868750Y-104643750D02*
X218868750Y-104643750D01*
X201818750Y-104643750D02*
X201818750Y-100743750D01*
X199818750Y-104643750D02*
X199818750Y-100743750D01*
X201818750Y-104643750D02*
X199818750Y-104643750D01*
X182768750Y-104643750D02*
X182768750Y-100743750D01*
X180768750Y-104643750D02*
X180768750Y-100743750D01*
X182768750Y-104643750D02*
X180768750Y-104643750D01*
X163718750Y-104643750D02*
X163718750Y-100743750D01*
X161718750Y-104643750D02*
X161718750Y-100743750D01*
X163718750Y-104643750D02*
X161718750Y-104643750D01*
X144668750Y-104643750D02*
X144668750Y-100743750D01*
X142668750Y-104643750D02*
X142668750Y-100743750D01*
X144668750Y-104643750D02*
X142668750Y-104643750D01*
X125618750Y-104643750D02*
X125618750Y-100743750D01*
X123618750Y-104643750D02*
X123618750Y-100743750D01*
X125618750Y-104643750D02*
X123618750Y-104643750D01*
X106568750Y-104643750D02*
X106568750Y-100743750D01*
X104568750Y-104643750D02*
X104568750Y-100743750D01*
X106568750Y-104643750D02*
X104568750Y-104643750D01*
X87518750Y-104643750D02*
X87518750Y-100743750D01*
X85518750Y-104643750D02*
X85518750Y-100743750D01*
X87518750Y-104643750D02*
X85518750Y-104643750D01*
X72628000Y-104643750D02*
X72628000Y-100743750D01*
X70628000Y-104643750D02*
X70628000Y-100743750D01*
X72628000Y-104643750D02*
X70628000Y-104643750D01*
X344693750Y-85593750D02*
X344693750Y-81693750D01*
X342693750Y-85593750D02*
X342693750Y-81693750D01*
X344693750Y-85593750D02*
X342693750Y-85593750D01*
X330565000Y-85562000D02*
X330565000Y-81662000D01*
X328565000Y-85562000D02*
X328565000Y-81662000D01*
X330565000Y-85562000D02*
X328565000Y-85562000D01*
X306593750Y-85593750D02*
X306593750Y-81693750D01*
X304593750Y-85593750D02*
X304593750Y-81693750D01*
X306593750Y-85593750D02*
X304593750Y-85593750D01*
X287543750Y-85593750D02*
X287543750Y-81693750D01*
X285543750Y-85593750D02*
X285543750Y-81693750D01*
X287543750Y-85593750D02*
X285543750Y-85593750D01*
X268493750Y-85593750D02*
X268493750Y-81693750D01*
X266493750Y-85593750D02*
X266493750Y-81693750D01*
X268493750Y-85593750D02*
X266493750Y-85593750D01*
X249443750Y-85593750D02*
X249443750Y-81693750D01*
X247443750Y-85593750D02*
X247443750Y-81693750D01*
X249443750Y-85593750D02*
X247443750Y-85593750D01*
X230393750Y-85593750D02*
X230393750Y-81693750D01*
X228393750Y-85593750D02*
X228393750Y-81693750D01*
X230393750Y-85593750D02*
X228393750Y-85593750D01*
X211343750Y-85593750D02*
X211343750Y-81693750D01*
X209343750Y-85593750D02*
X209343750Y-81693750D01*
X211343750Y-85593750D02*
X209343750Y-85593750D01*
X192293750Y-85593750D02*
X192293750Y-81693750D01*
X190293750Y-85593750D02*
X190293750Y-81693750D01*
X192293750Y-85593750D02*
X190293750Y-85593750D01*
X173243750Y-85593750D02*
X173243750Y-81693750D01*
X171243750Y-85593750D02*
X171243750Y-81693750D01*
X173243750Y-85593750D02*
X171243750Y-85593750D01*
X154193750Y-85593750D02*
X154193750Y-81693750D01*
X152193750Y-85593750D02*
X152193750Y-81693750D01*
X154193750Y-85593750D02*
X152193750Y-85593750D01*
X135143750Y-85593750D02*
X135143750Y-81693750D01*
X133143750Y-85593750D02*
X133143750Y-81693750D01*
X135143750Y-85593750D02*
X133143750Y-85593750D01*
X116093750Y-85593750D02*
X116093750Y-81693750D01*
X114093750Y-85593750D02*
X114093750Y-81693750D01*
X116093750Y-85593750D02*
X114093750Y-85593750D01*
X97043750Y-85593750D02*
X97043750Y-81693750D01*
X95043750Y-85593750D02*
X95043750Y-81693750D01*
X97043750Y-85593750D02*
X95043750Y-85593750D01*
X77993750Y-85593750D02*
X77993750Y-81693750D01*
X75993750Y-85593750D02*
X75993750Y-81693750D01*
X77993750Y-85593750D02*
X75993750Y-85593750D01*
X58943750Y-85593750D02*
X58943750Y-81693750D01*
X56943750Y-85593750D02*
X56943750Y-81693750D01*
X58943750Y-85593750D02*
X56943750Y-85593750D01*
X344693750Y-66543750D02*
X344693750Y-62643750D01*
X342693750Y-66543750D02*
X342693750Y-62643750D01*
X344693750Y-66543750D02*
X342693750Y-66543750D01*
X325643750Y-66543750D02*
X325643750Y-62643750D01*
X323643750Y-66543750D02*
X323643750Y-62643750D01*
X325643750Y-66543750D02*
X323643750Y-66543750D01*
X301831250Y-66543750D02*
X301831250Y-62643750D01*
X299831250Y-66543750D02*
X299831250Y-62643750D01*
X301831250Y-66543750D02*
X299831250Y-66543750D01*
X282781250Y-66543750D02*
X282781250Y-62643750D01*
X280781250Y-66543750D02*
X280781250Y-62643750D01*
X282781250Y-66543750D02*
X280781250Y-66543750D01*
X263731250Y-66543750D02*
X263731250Y-62643750D01*
X261731250Y-66543750D02*
X261731250Y-62643750D01*
X263731250Y-66543750D02*
X261731250Y-66543750D01*
X244681250Y-66543750D02*
X244681250Y-62643750D01*
X242681250Y-66543750D02*
X242681250Y-62643750D01*
X244681250Y-66543750D02*
X242681250Y-66543750D01*
X220868750Y-66543750D02*
X220868750Y-62643750D01*
X218868750Y-66543750D02*
X218868750Y-62643750D01*
X220868750Y-66543750D02*
X218868750Y-66543750D01*
X201818750Y-66543750D02*
X201818750Y-62643750D01*
X199818750Y-66543750D02*
X199818750Y-62643750D01*
X201818750Y-66543750D02*
X199818750Y-66543750D01*
X182768750Y-66543750D02*
X182768750Y-62643750D01*
X180768750Y-66543750D02*
X180768750Y-62643750D01*
X182768750Y-66543750D02*
X180768750Y-66543750D01*
X163718750Y-66543750D02*
X163718750Y-62643750D01*
X161718750Y-66543750D02*
X161718750Y-62643750D01*
X163718750Y-66543750D02*
X161718750Y-66543750D01*
X139906250Y-66543750D02*
X139906250Y-62643750D01*
X137906250Y-66543750D02*
X137906250Y-62643750D01*
X139906250Y-66543750D02*
X137906250Y-66543750D01*
X120856250Y-66543750D02*
X120856250Y-62643750D01*
X118856250Y-66543750D02*
X118856250Y-62643750D01*
X120856250Y-66543750D02*
X118856250Y-66543750D01*
X101806250Y-66543750D02*
X101806250Y-62643750D01*
X99806250Y-66543750D02*
X99806250Y-62643750D01*
X101806250Y-66543750D02*
X99806250Y-66543750D01*
X82756250Y-66543750D02*
X82756250Y-62643750D01*
X80756250Y-66543750D02*
X80756250Y-62643750D01*
X82756250Y-66543750D02*
X80756250Y-66543750D01*
X58943750Y-66543750D02*
X58943750Y-62643750D01*
X56943750Y-66543750D02*
X56943750Y-62643750D01*
X58943750Y-66543750D02*
X56943750Y-66543750D01*
D13*
X65848000Y-52339800D02*
X67248000Y-52339800D01*
X67248000Y-55457800D02*
X65848000Y-55457800D01*
D15*
X68848000Y-53098800D02*
G75*
G03*
X68848000Y-53098800I-100000J0D01*
G01*
D11*
X140670800Y-136286800D02*
X141370800Y-136286800D01*
X141370800Y-135086800D02*
X140670800Y-135086800D01*
X178669200Y-136286800D02*
X179369200Y-136286800D01*
X179369200Y-135086800D02*
X178669200Y-135086800D01*
X216667600Y-136286800D02*
X217367600Y-136286800D01*
X217367600Y-135086800D02*
X216667600Y-135086800D01*
X254666000Y-136261400D02*
X255366000Y-136261400D01*
X255366000Y-135061400D02*
X254666000Y-135061400D01*
X291546800Y-136236000D02*
X292246800Y-136236000D01*
X292246800Y-135036000D02*
X291546800Y-135036000D01*
X328598777Y-137476151D02*
X329093751Y-136981177D01*
X328245223Y-136132649D02*
X327750249Y-136627623D01*
X330612000Y-109108800D02*
X331312000Y-109108800D01*
X331312000Y-107908800D02*
X330612000Y-107908800D01*
X328992151Y-72568823D02*
X328497177Y-72073849D01*
X327648649Y-72922377D02*
X328143623Y-73417351D01*
X293339000Y-73212400D02*
X292639000Y-73212400D01*
X292639000Y-74412400D02*
X293339000Y-74412400D01*
X255366000Y-73212400D02*
X254666000Y-73212400D01*
X254666000Y-74412400D02*
X255366000Y-74412400D01*
X217393000Y-73212400D02*
X216693000Y-73212400D01*
X216693000Y-74412400D02*
X217393000Y-74412400D01*
X179420000Y-73212400D02*
X178720000Y-73212400D01*
X178720000Y-74412400D02*
X179420000Y-74412400D01*
X140747000Y-74387000D02*
X141447000Y-74387000D01*
X141447000Y-73187000D02*
X140747000Y-73187000D01*
X103372400Y-73212400D02*
X102672400Y-73212400D01*
X102672400Y-74412400D02*
X103372400Y-74412400D01*
X62205623Y-66841449D02*
X61710649Y-67336423D01*
X62559177Y-68184951D02*
X63054151Y-67689977D01*
X64674000Y-101641200D02*
X65374000Y-101641200D01*
X65374000Y-100441200D02*
X64674000Y-100441200D01*
X61710649Y-142315177D02*
X62205623Y-142810151D01*
X63054151Y-141961623D02*
X62559177Y-141466649D01*
X103372400Y-135086800D02*
X102672400Y-135086800D01*
X102672400Y-136286800D02*
X103372400Y-136286800D01*
X166454000Y-146847000D02*
X165754000Y-146847000D01*
X165754000Y-148047000D02*
X166454000Y-148047000D01*
X165754000Y-154397000D02*
X166454000Y-154397000D01*
X166454000Y-153197000D02*
X165754000Y-153197000D01*
X141106600Y-147159800D02*
X141106600Y-147859800D01*
X142306600Y-147859800D02*
X142306600Y-147159800D01*
X153927100Y-144977600D02*
X153927100Y-144277600D01*
X152727100Y-144277600D02*
X152727100Y-144977600D01*
X157042600Y-156067200D02*
X156342600Y-156067200D01*
X156342600Y-157267200D02*
X157042600Y-157267200D01*
X141106600Y-154107400D02*
X141106600Y-154807400D01*
X142306600Y-154807400D02*
X142306600Y-154107400D01*
X151355500Y-144277600D02*
X151355500Y-144977600D01*
X152555500Y-144977600D02*
X152555500Y-144277600D01*
D16*
X146680994Y-150942222D02*
X147248045Y-150942222D01*
X147314757Y-150975578D01*
X147348113Y-151008934D01*
X147381469Y-151075646D01*
X147381469Y-151209070D01*
X147348113Y-151275782D01*
X147314757Y-151309138D01*
X147248045Y-151342494D01*
X146680994Y-151342494D01*
X147381469Y-152042969D02*
X147381469Y-151642697D01*
X147381469Y-151842833D02*
X146680994Y-151842833D01*
X146781062Y-151776121D01*
X146847774Y-151709409D01*
X146881130Y-151642697D01*
D14*
X88971130Y-101179464D02*
X87971130Y-101179464D01*
X87971130Y-101417559D01*
X88018750Y-101560416D01*
X88113988Y-101655654D01*
X88209226Y-101703273D01*
X88399702Y-101750892D01*
X88542559Y-101750892D01*
X88733035Y-101703273D01*
X88828273Y-101655654D01*
X88923511Y-101560416D01*
X88971130Y-101417559D01*
X88971130Y-101179464D01*
X87971130Y-102084226D02*
X87971130Y-102703273D01*
X88352083Y-102369940D01*
X88352083Y-102512797D01*
X88399702Y-102608035D01*
X88447321Y-102655654D01*
X88542559Y-102703273D01*
X88780654Y-102703273D01*
X88875892Y-102655654D01*
X88923511Y-102608035D01*
X88971130Y-102512797D01*
X88971130Y-102227083D01*
X88923511Y-102131845D01*
X88875892Y-102084226D01*
X88304464Y-103560416D02*
X88971130Y-103560416D01*
X87923511Y-103322321D02*
X88637797Y-103084226D01*
X88637797Y-103703273D01*
%LPC*%
D17*
X157962600Y-144147500D03*
X157962600Y-146047500D03*
D18*
X148607400Y-148658200D03*
X148607400Y-149158200D03*
X148607400Y-149658200D03*
X148607400Y-150158200D03*
X148607400Y-150658200D03*
X148607400Y-151158200D03*
X148607400Y-151658200D03*
X148607400Y-152158200D03*
X148607400Y-152658200D03*
X148607400Y-153158200D03*
X148607400Y-153658200D03*
D19*
X149457400Y-154508200D03*
X149957400Y-154508200D03*
X150457400Y-154508200D03*
X150957400Y-154508200D03*
X151457400Y-154508200D03*
X151957400Y-154508200D03*
X152457400Y-154508200D03*
X152957400Y-154508200D03*
X153457400Y-154508200D03*
X153957400Y-154508200D03*
X154457400Y-154508200D03*
D18*
X155307400Y-153658200D03*
X155307400Y-153158200D03*
X155307400Y-152658200D03*
X155307400Y-152158200D03*
X155307400Y-151658200D03*
X155307400Y-151158200D03*
X155307400Y-150658200D03*
X155307400Y-150158200D03*
X155307400Y-149658200D03*
X155307400Y-149158200D03*
X155307400Y-148658200D03*
D19*
X154457400Y-147808200D03*
X153957400Y-147808200D03*
X153457400Y-147808200D03*
X152957400Y-147808200D03*
X152457400Y-147808200D03*
X151957400Y-147808200D03*
X151457400Y-147808200D03*
X150957400Y-147808200D03*
X150457400Y-147808200D03*
X149957400Y-147808200D03*
X149457400Y-147808200D03*
D20*
X151957400Y-151158200D03*
D21*
X307643530Y-152389840D03*
X297483530Y-152389840D03*
D22*
X298753530Y-149849840D03*
D23*
X302563530Y-152389840D03*
D22*
X305103530Y-147309840D03*
D24*
X164795200Y-145098200D03*
X164795200Y-143598200D03*
D22*
X324294500Y-107315000D03*
D23*
X319214500Y-104775000D03*
D22*
X321754500Y-100965000D03*
D21*
X319214500Y-99695000D03*
X319214500Y-109855000D03*
D25*
X326199500Y-92868750D03*
X326199500Y-116681250D03*
D23*
X310959500Y-92868750D03*
X310959500Y-116681250D03*
D22*
X178897280Y-147309840D03*
D23*
X176357280Y-152389840D03*
D22*
X172547280Y-149849840D03*
D21*
X171277280Y-152389840D03*
X181437280Y-152389840D03*
D25*
X126357380Y-159374840D03*
X226357180Y-159374840D03*
D23*
X126357380Y-144134840D03*
X226357180Y-144134840D03*
D26*
X165355800Y-152001400D03*
X165355800Y-149801400D03*
X167055800Y-149801400D03*
X167055800Y-152001400D03*
D27*
X69773000Y-47674600D03*
X63323000Y-47674600D03*
X68998000Y-47674600D03*
X64098000Y-47674600D03*
D28*
X64798000Y-47674600D03*
X68298000Y-47674600D03*
X65298000Y-47674600D03*
X67798000Y-47674600D03*
X65798000Y-47674600D03*
X67298000Y-47674600D03*
X66798000Y-47674600D03*
X66298000Y-47674600D03*
D29*
X69438000Y-46229600D03*
X63658000Y-46229600D03*
D30*
X216587000Y-150105500D03*
X210387000Y-153805500D03*
X216587000Y-153805500D03*
X210387000Y-150105500D03*
D31*
X70612000Y-52628800D03*
X69112000Y-52628800D03*
D32*
X62585600Y-52285200D03*
X62585600Y-53785200D03*
D31*
X159549400Y-147345400D03*
X161049400Y-147345400D03*
D32*
X67767200Y-60186000D03*
X67767200Y-58686000D03*
X69392800Y-58686000D03*
X69392800Y-60186000D03*
D31*
X147116100Y-156667200D03*
X148616100Y-156667200D03*
D21*
X183818530Y-95239840D03*
X173658530Y-95239840D03*
D22*
X174928530Y-92699840D03*
D23*
X178738530Y-95239840D03*
D22*
X181278530Y-90159840D03*
D21*
X102856030Y-133339840D03*
X92696030Y-133339840D03*
D22*
X93966030Y-130799840D03*
D23*
X97776030Y-133339840D03*
D22*
X100316030Y-128259840D03*
D21*
X121906030Y-133339840D03*
X111746030Y-133339840D03*
D22*
X113016030Y-130799840D03*
D23*
X116826030Y-133339840D03*
D22*
X119366030Y-128259840D03*
D21*
X88568530Y-152389840D03*
X78408530Y-152389840D03*
D22*
X79678530Y-149849840D03*
D23*
X83488530Y-152389840D03*
D22*
X86028530Y-147309840D03*
D21*
X86187280Y-152389840D03*
X76027280Y-152389840D03*
D22*
X77297280Y-149849840D03*
D23*
X81107280Y-152389840D03*
D22*
X83647280Y-147309840D03*
D21*
X276687280Y-152389840D03*
X266527280Y-152389840D03*
D22*
X267797280Y-149849840D03*
D23*
X271607280Y-152389840D03*
D22*
X274147280Y-147309840D03*
D21*
X107618530Y-95239840D03*
X97458530Y-95239840D03*
D22*
X98728530Y-92699840D03*
D23*
X102538530Y-95239840D03*
D22*
X105078530Y-90159840D03*
D21*
X160006030Y-133339840D03*
X149846030Y-133339840D03*
D22*
X151116030Y-130799840D03*
D23*
X154926030Y-133339840D03*
D22*
X157466030Y-128259840D03*
D21*
X326693530Y-133339840D03*
X316533530Y-133339840D03*
D22*
X317803530Y-130799840D03*
D23*
X321613530Y-133339840D03*
D22*
X324153530Y-128259840D03*
D21*
X59993530Y-76189840D03*
X49833530Y-76189840D03*
D22*
X51103530Y-73649840D03*
D23*
X54913530Y-76189840D03*
D22*
X57453530Y-71109840D03*
D21*
X279068530Y-95239840D03*
X268908530Y-95239840D03*
D22*
X270178530Y-92699840D03*
D23*
X273988530Y-95239840D03*
D22*
X276528530Y-90159840D03*
D21*
X202868530Y-95239840D03*
X192708530Y-95239840D03*
D22*
X193978530Y-92699840D03*
D23*
X197788530Y-95239840D03*
D22*
X200328530Y-90159840D03*
D21*
X83806030Y-133339840D03*
X73646030Y-133339840D03*
D22*
X74916030Y-130799840D03*
D23*
X78726030Y-133339840D03*
D22*
X81266030Y-128259840D03*
X319391030Y-90159840D03*
D23*
X316851030Y-95239840D03*
D22*
X313041030Y-92699840D03*
D21*
X311771030Y-95239840D03*
X321931030Y-95239840D03*
X307643530Y-76189840D03*
X297483530Y-76189840D03*
D22*
X298753530Y-73649840D03*
D23*
X302563530Y-76189840D03*
D22*
X305103530Y-71109840D03*
D21*
X64756030Y-95239840D03*
X54596030Y-95239840D03*
D22*
X55866030Y-92699840D03*
D23*
X59676030Y-95239840D03*
D22*
X62216030Y-90159840D03*
D21*
X164768530Y-95239840D03*
X154608530Y-95239840D03*
D22*
X155878530Y-92699840D03*
D23*
X159688530Y-95239840D03*
D22*
X162228530Y-90159840D03*
D21*
X269543530Y-76189840D03*
X259383530Y-76189840D03*
D22*
X260653530Y-73649840D03*
D23*
X264463530Y-76189840D03*
D22*
X267003530Y-71109840D03*
X190803530Y-147309840D03*
D23*
X188263530Y-152389840D03*
D22*
X184453530Y-149849840D03*
D21*
X183183530Y-152389840D03*
X193343530Y-152389840D03*
D25*
X131113530Y-159374840D03*
X245413530Y-159374840D03*
D23*
X131113530Y-144134840D03*
X245413530Y-144134840D03*
D21*
X300499780Y-133339840D03*
X290339780Y-133339840D03*
D22*
X291609780Y-130799840D03*
D23*
X295419780Y-133339840D03*
D22*
X297959780Y-128259840D03*
D21*
X326693530Y-57139840D03*
X316533530Y-57139840D03*
D22*
X317803530Y-54599840D03*
D23*
X321613530Y-57139840D03*
D22*
X324153530Y-52059840D03*
D21*
X112381030Y-114289840D03*
X102221030Y-114289840D03*
D22*
X103491030Y-111749840D03*
D23*
X107301030Y-114289840D03*
D22*
X109841030Y-109209840D03*
D21*
X345743530Y-152389840D03*
X335583530Y-152389840D03*
D22*
X336853530Y-149849840D03*
D23*
X340663530Y-152389840D03*
D22*
X343203530Y-147309840D03*
D21*
X145718530Y-95239840D03*
X135558530Y-95239840D03*
D22*
X136828530Y-92699840D03*
D23*
X140638530Y-95239840D03*
D22*
X143178530Y-90159840D03*
D21*
X88568530Y-95239840D03*
X78408530Y-95239840D03*
D22*
X79678530Y-92699840D03*
D23*
X83488530Y-95239840D03*
D22*
X86028530Y-90159840D03*
D21*
X345743530Y-95239840D03*
X335583530Y-95239840D03*
D22*
X336853530Y-92699840D03*
D23*
X340663530Y-95239840D03*
D22*
X343203530Y-90159840D03*
D21*
X345743530Y-57139840D03*
X335583530Y-57139840D03*
D22*
X336853530Y-54599840D03*
D23*
X340663530Y-57139840D03*
D22*
X343203530Y-52059840D03*
D21*
X260018530Y-95239840D03*
X249858530Y-95239840D03*
D22*
X251128530Y-92699840D03*
D23*
X254938530Y-95239840D03*
D22*
X257478530Y-90159840D03*
D21*
X264781030Y-114289840D03*
X254621030Y-114289840D03*
D22*
X255891030Y-111749840D03*
D23*
X259701030Y-114289840D03*
D22*
X262241030Y-109209840D03*
D21*
X240968530Y-95239840D03*
X230808530Y-95239840D03*
D22*
X232078530Y-92699840D03*
D23*
X235888530Y-95239840D03*
D22*
X238428530Y-90159840D03*
D21*
X288593530Y-76189840D03*
X278433530Y-76189840D03*
D22*
X279703530Y-73649840D03*
D23*
X283513530Y-76189840D03*
D22*
X286053530Y-71109840D03*
D21*
X198106030Y-133339840D03*
X187946030Y-133339840D03*
D22*
X189216030Y-130799840D03*
D23*
X193026030Y-133339840D03*
D22*
X195566030Y-128259840D03*
D21*
X217156030Y-133339840D03*
X206996030Y-133339840D03*
D22*
X208266030Y-130799840D03*
D23*
X212076030Y-133339840D03*
D22*
X214616030Y-128259840D03*
D21*
X62374780Y-133339840D03*
X52214780Y-133339840D03*
D22*
X53484780Y-130799840D03*
D23*
X57294780Y-133339840D03*
D22*
X59834780Y-128259840D03*
D23*
X78726030Y-141594840D03*
X54913530Y-141594840D03*
D25*
X78726030Y-126354840D03*
X54913530Y-126354840D03*
D21*
X71899780Y-133339840D03*
X61739780Y-133339840D03*
D22*
X63009780Y-130799840D03*
D23*
X66819780Y-133339840D03*
D22*
X69359780Y-128259840D03*
D21*
X245731030Y-114289840D03*
X235571030Y-114289840D03*
D22*
X236841030Y-111749840D03*
D23*
X240651030Y-114289840D03*
D22*
X243191030Y-109209840D03*
D21*
X226681030Y-114289840D03*
X216521030Y-114289840D03*
D22*
X217791030Y-111749840D03*
D23*
X221601030Y-114289840D03*
D22*
X224141030Y-109209840D03*
D21*
X207631030Y-114289840D03*
X197471030Y-114289840D03*
D22*
X198741030Y-111749840D03*
D23*
X202551030Y-114289840D03*
D22*
X205091030Y-109209840D03*
D21*
X345743530Y-76189840D03*
X335583530Y-76189840D03*
D22*
X336853530Y-73649840D03*
D23*
X340663530Y-76189840D03*
D22*
X343203530Y-71109840D03*
D21*
X221918530Y-95239840D03*
X211758530Y-95239840D03*
D22*
X213028530Y-92699840D03*
D23*
X216838530Y-95239840D03*
D22*
X219378530Y-90159840D03*
D21*
X345743530Y-114289840D03*
X335583530Y-114289840D03*
D22*
X336853530Y-111749840D03*
D23*
X340663530Y-114289840D03*
D22*
X343203530Y-109209840D03*
D21*
X188581030Y-114289840D03*
X178421030Y-114289840D03*
D22*
X179691030Y-111749840D03*
D23*
X183501030Y-114289840D03*
D22*
X186041030Y-109209840D03*
D21*
X169531030Y-114289840D03*
X159371030Y-114289840D03*
D22*
X160641030Y-111749840D03*
D23*
X164451030Y-114289840D03*
D22*
X166991030Y-109209840D03*
D21*
X150481030Y-114289840D03*
X140321030Y-114289840D03*
D22*
X141591030Y-111749840D03*
D23*
X145401030Y-114289840D03*
D22*
X147941030Y-109209840D03*
D21*
X302881030Y-57139840D03*
X292721030Y-57139840D03*
D22*
X293991030Y-54599840D03*
D23*
X297801030Y-57139840D03*
D22*
X300341030Y-52059840D03*
D21*
X283831030Y-57139840D03*
X273671030Y-57139840D03*
D22*
X274941030Y-54599840D03*
D23*
X278751030Y-57139840D03*
D22*
X281291030Y-52059840D03*
D21*
X264781030Y-57139840D03*
X254621030Y-57139840D03*
D22*
X255891030Y-54599840D03*
D23*
X259701030Y-57139840D03*
D22*
X262241030Y-52059840D03*
D21*
X245731030Y-57139840D03*
X235571030Y-57139840D03*
D22*
X236841030Y-54599840D03*
D23*
X240651030Y-57139840D03*
D22*
X243191030Y-52059840D03*
D21*
X221918530Y-57139840D03*
X211758530Y-57139840D03*
D22*
X213028530Y-54599840D03*
D23*
X216838530Y-57139840D03*
D22*
X219378530Y-52059840D03*
D21*
X202868530Y-57139840D03*
X192708530Y-57139840D03*
D22*
X193978530Y-54599840D03*
D23*
X197788530Y-57139840D03*
D22*
X200328530Y-52059840D03*
D21*
X183818530Y-57139840D03*
X173658530Y-57139840D03*
D22*
X174928530Y-54599840D03*
D23*
X178738530Y-57139840D03*
D22*
X181278530Y-52059840D03*
D21*
X164768530Y-57139840D03*
X154608530Y-57139840D03*
D22*
X155878530Y-54599840D03*
D23*
X159688530Y-57139840D03*
D22*
X162228530Y-52059840D03*
D21*
X140956030Y-57139840D03*
X130796030Y-57139840D03*
D22*
X132066030Y-54599840D03*
D23*
X135876030Y-57139840D03*
D22*
X138416030Y-52059840D03*
D21*
X121906030Y-57139840D03*
X111746030Y-57139840D03*
D22*
X113016030Y-54599840D03*
D23*
X116826030Y-57139840D03*
D22*
X119366030Y-52059840D03*
D21*
X102856030Y-57139840D03*
X92696030Y-57139840D03*
D22*
X93966030Y-54599840D03*
D23*
X97776030Y-57139840D03*
D22*
X100316030Y-52059840D03*
D21*
X83806030Y-57139840D03*
X73646030Y-57139840D03*
D22*
X74916030Y-54599840D03*
D23*
X78726030Y-57139840D03*
D22*
X81266030Y-52059840D03*
D21*
X59993530Y-57139840D03*
X49833530Y-57139840D03*
D22*
X51103530Y-54599840D03*
D23*
X54913530Y-57139840D03*
D22*
X57453530Y-52059840D03*
D23*
X321613530Y-122544840D03*
X297801030Y-122544840D03*
D25*
X321613530Y-107304840D03*
X297801030Y-107304840D03*
D21*
X314787280Y-114289840D03*
X304627280Y-114289840D03*
D22*
X305897280Y-111749840D03*
D23*
X309707280Y-114289840D03*
D22*
X312247280Y-109209840D03*
D21*
X345743530Y-133339840D03*
X335583530Y-133339840D03*
D22*
X336853530Y-130799840D03*
D23*
X340663530Y-133339840D03*
D22*
X343203530Y-128259840D03*
D21*
X126668530Y-95239840D03*
X116508530Y-95239840D03*
D22*
X117778530Y-92699840D03*
D23*
X121588530Y-95239840D03*
D22*
X124128530Y-90159840D03*
D21*
X326693530Y-152389840D03*
X316533530Y-152389840D03*
D22*
X317803530Y-149849840D03*
D23*
X321613530Y-152389840D03*
D22*
X324153530Y-147309840D03*
D21*
X326693530Y-76189840D03*
X316533530Y-76189840D03*
D22*
X317803530Y-73649840D03*
D23*
X321613530Y-76189840D03*
D22*
X324153530Y-71109840D03*
D21*
X131431030Y-114289840D03*
X121271030Y-114289840D03*
D22*
X122541030Y-111749840D03*
D23*
X126351030Y-114289840D03*
D22*
X128891030Y-109209840D03*
D21*
X64756030Y-152389840D03*
X54596030Y-152389840D03*
D22*
X55866030Y-149849840D03*
D23*
X59676030Y-152389840D03*
D22*
X62216030Y-147309840D03*
D21*
X62374780Y-152389840D03*
X52214780Y-152389840D03*
D22*
X53484780Y-149849840D03*
D23*
X57294780Y-152389840D03*
D22*
X59834780Y-147309840D03*
D21*
X62230000Y-114300000D03*
X52070000Y-114300000D03*
D22*
X53340000Y-111760000D03*
D23*
X57150000Y-114300000D03*
D22*
X59690000Y-109220000D03*
D21*
X67137280Y-114289840D03*
X56977280Y-114289840D03*
D22*
X58247280Y-111749840D03*
D23*
X62057280Y-114289840D03*
D22*
X64597280Y-109209840D03*
D21*
X140956030Y-133339840D03*
X130796030Y-133339840D03*
D22*
X132066030Y-130799840D03*
D23*
X135876030Y-133339840D03*
D22*
X138416030Y-128259840D03*
D23*
X323994780Y-84444840D03*
X300182280Y-84444840D03*
D25*
X323994780Y-69204840D03*
X300182280Y-69204840D03*
D21*
X317168530Y-76189840D03*
X307008530Y-76189840D03*
D22*
X308278530Y-73649840D03*
D23*
X312088530Y-76189840D03*
D22*
X314628530Y-71109840D03*
D21*
X179056030Y-133339840D03*
X168896030Y-133339840D03*
D22*
X170166030Y-130799840D03*
D23*
X173976030Y-133339840D03*
D22*
X176516030Y-128259840D03*
D21*
X252874780Y-152389840D03*
X242714780Y-152389840D03*
D22*
X243984780Y-149849840D03*
D23*
X247794780Y-152389840D03*
D22*
X250334780Y-147309840D03*
D21*
X274306030Y-152389840D03*
X264146030Y-152389840D03*
D22*
X265416030Y-149849840D03*
D23*
X269226030Y-152389840D03*
D22*
X271766030Y-147309840D03*
D21*
X112381030Y-152389840D03*
X102221030Y-152389840D03*
D22*
X103491030Y-149849840D03*
D23*
X107301030Y-152389840D03*
D22*
X109841030Y-147309840D03*
X107459780Y-147309840D03*
D23*
X104919780Y-152389840D03*
D22*
X101109780Y-149849840D03*
D21*
X99839780Y-152389840D03*
X109999780Y-152389840D03*
X283831030Y-114289840D03*
X273671030Y-114289840D03*
D22*
X274941030Y-111749840D03*
D23*
X278751030Y-114289840D03*
D22*
X281291030Y-109209840D03*
D21*
X93331030Y-114289840D03*
X83171030Y-114289840D03*
D22*
X84441030Y-111749840D03*
D23*
X88251030Y-114289840D03*
D22*
X90791030Y-109209840D03*
D21*
X274306030Y-133339840D03*
X264146030Y-133339840D03*
D22*
X265416030Y-130799840D03*
D23*
X269226030Y-133339840D03*
D22*
X271766030Y-128259840D03*
D21*
X298118530Y-95239840D03*
X287958530Y-95239840D03*
D22*
X289228530Y-92699840D03*
D23*
X293038530Y-95239840D03*
D22*
X295578530Y-90159840D03*
D21*
X302881030Y-114289840D03*
X292721030Y-114289840D03*
D22*
X293991030Y-111749840D03*
D23*
X297801030Y-114289840D03*
D22*
X300341030Y-109209840D03*
D21*
X231443530Y-76189840D03*
X221283530Y-76189840D03*
D22*
X222553530Y-73649840D03*
D23*
X226363530Y-76189840D03*
D22*
X228903530Y-71109840D03*
D21*
X212393530Y-76189840D03*
X202233530Y-76189840D03*
D22*
X203503530Y-73649840D03*
D23*
X207313530Y-76189840D03*
D22*
X209853530Y-71109840D03*
D21*
X193343530Y-76189840D03*
X183183530Y-76189840D03*
D22*
X184453530Y-73649840D03*
D23*
X188263530Y-76189840D03*
D22*
X190803530Y-71109840D03*
D21*
X174293530Y-76189840D03*
X164133530Y-76189840D03*
D22*
X165403530Y-73649840D03*
D23*
X169213530Y-76189840D03*
D22*
X171753530Y-71109840D03*
D21*
X155243530Y-76189840D03*
X145083530Y-76189840D03*
D22*
X146353530Y-73649840D03*
D23*
X150163530Y-76189840D03*
D22*
X152703530Y-71109840D03*
D21*
X136193530Y-76189840D03*
X126033530Y-76189840D03*
D22*
X127303530Y-73649840D03*
D23*
X131113530Y-76189840D03*
D22*
X133653530Y-71109840D03*
D21*
X117143530Y-76189840D03*
X106983530Y-76189840D03*
D22*
X108253530Y-73649840D03*
D23*
X112063530Y-76189840D03*
D22*
X114603530Y-71109840D03*
D21*
X98093530Y-76189840D03*
X87933530Y-76189840D03*
D22*
X89203530Y-73649840D03*
D23*
X93013530Y-76189840D03*
D22*
X95553530Y-71109840D03*
D21*
X79043530Y-76189840D03*
X68883530Y-76189840D03*
D22*
X70153530Y-73649840D03*
D23*
X73963530Y-76189840D03*
D22*
X76503530Y-71109840D03*
D21*
X250493530Y-76189840D03*
X240333530Y-76189840D03*
D22*
X241603530Y-73649840D03*
D23*
X245413530Y-76189840D03*
D22*
X247953530Y-71109840D03*
D21*
X255256030Y-133339840D03*
X245096030Y-133339840D03*
D22*
X246366030Y-130799840D03*
D23*
X250176030Y-133339840D03*
D22*
X252716030Y-128259840D03*
D21*
X236206030Y-133339840D03*
X226046030Y-133339840D03*
D22*
X227316030Y-130799840D03*
D23*
X231126030Y-133339840D03*
D22*
X233666030Y-128259840D03*
D33*
X72732900Y-49630500D03*
X72732900Y-52350500D03*
X63449200Y-57579600D03*
X63449200Y-60299600D03*
D34*
X60401200Y-51886000D03*
X60401200Y-54286000D03*
D35*
X138587500Y-141080000D03*
X138587500Y-137780000D03*
X143487500Y-141080000D03*
X143487500Y-137780000D03*
X181487500Y-137780000D03*
X181487500Y-141080000D03*
X176587500Y-137780000D03*
X176587500Y-141080000D03*
X219487500Y-137780000D03*
X219487500Y-141080000D03*
X214587500Y-137780000D03*
X214587500Y-141080000D03*
X257493000Y-137780000D03*
X257493000Y-141080000D03*
X252593000Y-137780000D03*
X252593000Y-141080000D03*
X295493000Y-137780000D03*
X295493000Y-141080000D03*
X290593000Y-137780000D03*
X290593000Y-141080000D03*
D10*
G36*
X331830317Y-135682334D02*
G01*
X332466713Y-136318730D01*
X331406053Y-137379390D01*
X330769657Y-136742994D01*
X331830317Y-135682334D01*
G37*
G36*
X334163770Y-138015787D02*
G01*
X334800166Y-138652183D01*
X333739506Y-139712843D01*
X333103110Y-139076447D01*
X334163770Y-138015787D01*
G37*
G36*
X328365494Y-139147157D02*
G01*
X329001890Y-139783553D01*
X327941230Y-140844213D01*
X327304834Y-140207817D01*
X328365494Y-139147157D01*
G37*
G36*
X330698947Y-141480610D02*
G01*
X331335343Y-142117006D01*
X330274683Y-143177666D01*
X329638287Y-142541270D01*
X330698947Y-141480610D01*
G37*
D35*
X328512000Y-106425000D03*
X328512000Y-103125000D03*
X333412000Y-106425000D03*
X333412000Y-103125000D03*
D10*
G36*
X327214334Y-69326183D02*
G01*
X327850730Y-68689787D01*
X328911390Y-69750447D01*
X328274994Y-70386843D01*
X327214334Y-69326183D01*
G37*
G36*
X329547787Y-66992730D02*
G01*
X330184183Y-66356334D01*
X331244843Y-67416994D01*
X330608447Y-68053390D01*
X329547787Y-66992730D01*
G37*
G36*
X330679157Y-72791006D02*
G01*
X331315553Y-72154610D01*
X332376213Y-73215270D01*
X331739817Y-73851666D01*
X330679157Y-72791006D01*
G37*
G36*
X333012610Y-70457553D02*
G01*
X333649006Y-69821157D01*
X334709666Y-70881817D01*
X334073270Y-71518213D01*
X333012610Y-70457553D01*
G37*
D35*
X295439000Y-68454000D03*
X295439000Y-71754000D03*
X290539000Y-68454000D03*
X290539000Y-71754000D03*
X252566000Y-71754000D03*
X252566000Y-68454000D03*
X257466000Y-71754000D03*
X257466000Y-68454000D03*
X214593000Y-71754000D03*
X214593000Y-68454000D03*
X219493000Y-71754000D03*
X219493000Y-68454000D03*
X176620000Y-71754000D03*
X176620000Y-68454000D03*
X181520000Y-71754000D03*
X181520000Y-68454000D03*
X138647000Y-71754000D03*
X138647000Y-68454000D03*
X143547000Y-71754000D03*
X143547000Y-68454000D03*
X105472400Y-68454000D03*
X105472400Y-71754000D03*
X100572400Y-68454000D03*
X100572400Y-71754000D03*
D10*
G36*
X65377553Y-68053390D02*
G01*
X64741157Y-67416994D01*
X65801817Y-66356334D01*
X66438213Y-66992730D01*
X65377553Y-68053390D01*
G37*
G36*
X67711006Y-70386843D02*
G01*
X67074610Y-69750447D01*
X68135270Y-68689787D01*
X68771666Y-69326183D01*
X67711006Y-70386843D01*
G37*
G36*
X61912730Y-71518213D02*
G01*
X61276334Y-70881817D01*
X62336994Y-69821157D01*
X62973390Y-70457553D01*
X61912730Y-71518213D01*
G37*
G36*
X64246183Y-73851666D02*
G01*
X63609787Y-73215270D01*
X64670447Y-72154610D01*
X65306843Y-72791006D01*
X64246183Y-73851666D01*
G37*
D35*
X62574000Y-106425000D03*
X62574000Y-103125000D03*
X67474000Y-106425000D03*
X67474000Y-103125000D03*
D10*
G36*
X62986890Y-139076447D02*
G01*
X62350494Y-139712843D01*
X61289834Y-138652183D01*
X61926230Y-138015787D01*
X62986890Y-139076447D01*
G37*
G36*
X65320343Y-136742994D02*
G01*
X64683947Y-137379390D01*
X63623287Y-136318730D01*
X64259683Y-135682334D01*
X65320343Y-136742994D01*
G37*
G36*
X66451713Y-142541270D02*
G01*
X65815317Y-143177666D01*
X64754657Y-142117006D01*
X65391053Y-141480610D01*
X66451713Y-142541270D01*
G37*
G36*
X68785166Y-140207817D02*
G01*
X68148770Y-140844213D01*
X67088110Y-139783553D01*
X67724506Y-139147157D01*
X68785166Y-140207817D01*
G37*
D35*
X100587500Y-141080000D03*
X100587500Y-137780000D03*
X105487500Y-141080000D03*
X105487500Y-137780000D03*
D36*
X340284800Y-156464000D03*
X343584800Y-156464000D03*
D37*
X331673200Y-154050000D03*
X331673200Y-150750000D03*
X312775600Y-154050000D03*
X312775600Y-150750000D03*
X281781250Y-154050000D03*
X281781250Y-150750000D03*
X257962400Y-154050000D03*
X257962400Y-150750000D03*
X196850000Y-144627600D03*
X196850000Y-147927600D03*
X117475000Y-154050000D03*
X117475000Y-150750000D03*
X93624400Y-154074400D03*
X93624400Y-150774400D03*
X69799200Y-154050000D03*
X69799200Y-150750000D03*
X343693750Y-142143750D03*
X343693750Y-138843750D03*
X324643750Y-142143750D03*
X324643750Y-138843750D03*
X298450000Y-142143750D03*
X298450000Y-138843750D03*
X272256250Y-142143750D03*
X272256250Y-138843750D03*
X248412000Y-142143750D03*
X248412000Y-138843750D03*
X234156250Y-142143750D03*
X234156250Y-138843750D03*
X210121500Y-142143750D03*
X210121500Y-138843750D03*
X196056250Y-142143750D03*
X196056250Y-138843750D03*
X172021500Y-142143750D03*
X172021500Y-138843750D03*
X157956250Y-142143750D03*
X157956250Y-138843750D03*
X134175500Y-142143750D03*
X134175500Y-138843750D03*
X119856250Y-142143750D03*
X119856250Y-138843750D03*
X95821500Y-142112000D03*
X95821500Y-138812000D03*
X83439000Y-142143750D03*
X83439000Y-138843750D03*
X70739000Y-142143750D03*
X70739000Y-138843750D03*
X343693750Y-123093750D03*
X343693750Y-119793750D03*
X304800000Y-123093750D03*
X304800000Y-119793750D03*
X281781250Y-123093750D03*
X281781250Y-119793750D03*
X262731250Y-123093750D03*
X262731250Y-119793750D03*
X243681250Y-123093750D03*
X243681250Y-119793750D03*
X224631250Y-123093750D03*
X224631250Y-119793750D03*
X205581250Y-123093750D03*
X205581250Y-119793750D03*
X186531250Y-123093750D03*
X186531250Y-119793750D03*
X167481250Y-123093750D03*
X167481250Y-119793750D03*
X148431250Y-123093750D03*
X148431250Y-119793750D03*
X129381250Y-123093750D03*
X129381250Y-119793750D03*
X110331250Y-123093750D03*
X110331250Y-119793750D03*
X91281250Y-123093750D03*
X91281250Y-119793750D03*
X70643750Y-123093750D03*
X70643750Y-119793750D03*
X343693750Y-104043750D03*
X343693750Y-100743750D03*
X325247000Y-100712000D03*
X325247000Y-104012000D03*
X296068750Y-104043750D03*
X296068750Y-100743750D03*
X277018750Y-104043750D03*
X277018750Y-100743750D03*
X257968750Y-104043750D03*
X257968750Y-100743750D03*
X238918750Y-104043750D03*
X238918750Y-100743750D03*
X219868750Y-104043750D03*
X219868750Y-100743750D03*
X200818750Y-104043750D03*
X200818750Y-100743750D03*
X181768750Y-104043750D03*
X181768750Y-100743750D03*
X162718750Y-104043750D03*
X162718750Y-100743750D03*
X143668750Y-104043750D03*
X143668750Y-100743750D03*
X124618750Y-104043750D03*
X124618750Y-100743750D03*
X105568750Y-104043750D03*
X105568750Y-100743750D03*
X86518750Y-104043750D03*
X86518750Y-100743750D03*
X71628000Y-104043750D03*
X71628000Y-100743750D03*
X343693750Y-84993750D03*
X343693750Y-81693750D03*
X329565000Y-84962000D03*
X329565000Y-81662000D03*
X305593750Y-84993750D03*
X305593750Y-81693750D03*
X286543750Y-84993750D03*
X286543750Y-81693750D03*
X267493750Y-84993750D03*
X267493750Y-81693750D03*
X248443750Y-84993750D03*
X248443750Y-81693750D03*
X229393750Y-84993750D03*
X229393750Y-81693750D03*
X210343750Y-84993750D03*
X210343750Y-81693750D03*
X191293750Y-84993750D03*
X191293750Y-81693750D03*
X172243750Y-84993750D03*
X172243750Y-81693750D03*
X153193750Y-84993750D03*
X153193750Y-81693750D03*
X134143750Y-84993750D03*
X134143750Y-81693750D03*
X115093750Y-84993750D03*
X115093750Y-81693750D03*
X96043750Y-84993750D03*
X96043750Y-81693750D03*
X76993750Y-84993750D03*
X76993750Y-81693750D03*
X57943750Y-84993750D03*
X57943750Y-81693750D03*
X343693750Y-65943750D03*
X343693750Y-62643750D03*
X324643750Y-65943750D03*
X324643750Y-62643750D03*
X300831250Y-65943750D03*
X300831250Y-62643750D03*
X281781250Y-65943750D03*
X281781250Y-62643750D03*
X262731250Y-65943750D03*
X262731250Y-62643750D03*
X243681250Y-65943750D03*
X243681250Y-62643750D03*
X219868750Y-65943750D03*
X219868750Y-62643750D03*
X200818750Y-65943750D03*
X200818750Y-62643750D03*
X181768750Y-65943750D03*
X181768750Y-62643750D03*
X162718750Y-65943750D03*
X162718750Y-62643750D03*
X138906250Y-65943750D03*
X138906250Y-62643750D03*
X119856250Y-65943750D03*
X119856250Y-62643750D03*
X100806250Y-65943750D03*
X100806250Y-62643750D03*
X81756250Y-65943750D03*
X81756250Y-62643750D03*
X57943750Y-65943750D03*
X57943750Y-62643750D03*
D38*
X65568000Y-52948800D03*
X65568000Y-54848800D03*
X67528000Y-54848800D03*
D39*
X67528000Y-53148800D03*
D40*
X141770800Y-135686800D03*
X140270800Y-135686800D03*
X179769200Y-135686800D03*
X178269200Y-135686800D03*
X217767600Y-135686800D03*
X216267600Y-135686800D03*
X255766000Y-135661400D03*
X254266000Y-135661400D03*
X292646800Y-135636000D03*
X291146800Y-135636000D03*
D10*
G36*
X328934652Y-136822078D02*
G01*
X328404322Y-136291748D01*
X328970008Y-135726062D01*
X329500338Y-136256392D01*
X328934652Y-136822078D01*
G37*
G36*
X327873992Y-137882738D02*
G01*
X327343662Y-137352408D01*
X327909348Y-136786722D01*
X328439678Y-137317052D01*
X327873992Y-137882738D01*
G37*
D40*
X331712000Y-108508800D03*
X330212000Y-108508800D03*
D10*
G36*
X328338078Y-72232948D02*
G01*
X327807748Y-72763278D01*
X327242062Y-72197592D01*
X327772392Y-71667262D01*
X328338078Y-72232948D01*
G37*
G36*
X329398738Y-73293608D02*
G01*
X328868408Y-73823938D01*
X328302722Y-73258252D01*
X328833052Y-72727922D01*
X329398738Y-73293608D01*
G37*
D40*
X292239000Y-73812400D03*
X293739000Y-73812400D03*
X254266000Y-73812400D03*
X255766000Y-73812400D03*
X216293000Y-73812400D03*
X217793000Y-73812400D03*
X178320000Y-73812400D03*
X179820000Y-73812400D03*
X141847000Y-73787000D03*
X140347000Y-73787000D03*
X102272400Y-73812400D03*
X103772400Y-73812400D03*
D10*
G36*
X61869748Y-67495522D02*
G01*
X62400078Y-68025852D01*
X61834392Y-68591538D01*
X61304062Y-68061208D01*
X61869748Y-67495522D01*
G37*
G36*
X62930408Y-66434862D02*
G01*
X63460738Y-66965192D01*
X62895052Y-67530878D01*
X62364722Y-67000548D01*
X62930408Y-66434862D01*
G37*
D40*
X65774000Y-101041200D03*
X64274000Y-101041200D03*
D10*
G36*
X62364722Y-142651052D02*
G01*
X62895052Y-142120722D01*
X63460738Y-142686408D01*
X62930408Y-143216738D01*
X62364722Y-142651052D01*
G37*
G36*
X61304062Y-141590392D02*
G01*
X61834392Y-141060062D01*
X62400078Y-141625748D01*
X61869748Y-142156078D01*
X61304062Y-141590392D01*
G37*
D40*
X102272400Y-135686800D03*
X103772400Y-135686800D03*
X165354000Y-147447000D03*
X166854000Y-147447000D03*
X166854000Y-153797000D03*
X165354000Y-153797000D03*
D24*
X141706600Y-148259800D03*
X141706600Y-146759800D03*
X153327100Y-143877600D03*
X153327100Y-145377600D03*
D40*
X155942600Y-156667200D03*
X157442600Y-156667200D03*
D24*
X141706600Y-155207400D03*
X141706600Y-153707400D03*
X151955500Y-145377600D03*
X151955500Y-143877600D03*
M02*
