M48
; DRILL file {KiCad (5.1.8)-1} date 02/05/21 17:02:20
; FORMAT={-:-/ absolute / inch / decimal}
; #@! TF.CreationDate,2021-02-05T17:02:20+01:00
; #@! TF.GenerationSoftware,Kicad,Pcbnew,(5.1.8)-1
; #@! TF.FileFunction,NonPlated,1,2,NPTH
FMAT,2
INCH
T1C0.0256
T2C0.0689
T3C0.1200
T4C0.1570
%
G90
G05
T1
X2.5062Y-1.8201
X2.7338Y-1.8201
T2
X3.4619Y-2.9996
X3.8619Y-2.9996
X3.0869Y-5.9996
X3.4869Y-5.9996
X9.6494Y-5.2496
X10.0495Y-5.2496
X6.7432Y-5.9996
X7.1432Y-5.9996
X3.0869Y-3.7496
X3.4869Y-3.7496
X8.1494Y-5.2496
X8.5495Y-5.2496
X13.2119Y-5.9996
X13.612Y-5.9996
X8.3369Y-3.7496
X8.737Y-3.7496
X2.05Y-4.5
X2.45Y-4.5
X10.3994Y-5.9996
X10.7995Y-5.9996
X4.3994Y-2.2496
X4.7995Y-2.2496
X12.4619Y-5.9996
X12.862Y-5.9996
X3.6494Y-5.2496
X4.0495Y-5.2496
X10.5869Y-3.7496
X10.987Y-3.7496
X9.4619Y-2.9996
X9.862Y-2.9996
X12.4619Y-2.2496
X12.862Y-2.2496
X11.7119Y-5.9996
X12.112Y-5.9996
X2.8994Y-5.2496
X3.2994Y-5.2496
X2.0557Y-5.2496
X2.4557Y-5.2496
X5.3369Y-3.7496
X5.737Y-3.7496
X13.2119Y-2.9996
X13.612Y-2.9996
X3.9307Y-5.9996
X4.3307Y-5.9996
X1.9619Y-2.2496
X2.3619Y-2.2496
X6.4619Y-2.9996
X6.862Y-2.9996
X8.3369Y-2.2496
X8.737Y-2.2496
X11.9932Y-4.4996
X12.3932Y-4.4996
X2.7119Y-2.9996
X3.1119Y-2.9996
X1.9619Y-2.9996
X2.3619Y-2.9996
X4.9619Y-2.9996
X5.362Y-2.9996
X11.4307Y-5.2496
X11.8307Y-5.2496
X5.5244Y-4.4996
X5.9245Y-4.4996
X12.5675Y-3.925
X12.5675Y-4.325
X10.0244Y-4.4996
X10.4245Y-4.4996
X13.2119Y-4.4996
X13.612Y-4.4996
X13.2119Y-2.2496
X13.612Y-2.2496
X7.7744Y-4.4996
X8.1745Y-4.4996
X6.6494Y-5.2496
X7.0495Y-5.2496
X2.8994Y-2.2496
X3.2994Y-2.2496
X7.9619Y-2.9996
X8.362Y-2.9996
X2.0557Y-5.9996
X2.4557Y-5.9996
X9.2744Y-2.2496
X9.6745Y-2.2496
X12.4619Y-5.2496
X12.862Y-5.2496
X5.7119Y-2.9996
X6.112Y-2.9996
X4.2119Y-2.9996
X4.612Y-2.9996
X7.2119Y-5.9996
X7.612Y-5.9996
X6.2744Y-4.4996
X6.6745Y-4.4996
X11.7119Y-2.9996
X12.112Y-2.9996
X2.4307Y-5.2496
X2.8307Y-5.2496
X4.0244Y-4.4996
X4.4245Y-4.4996
X9.2744Y-4.4996
X9.6745Y-4.4996
X10.3994Y-5.2496
X10.7995Y-5.2496
X12.0869Y-2.9996
X12.487Y-2.9996
X6.0869Y-2.2496
X6.487Y-2.2496
X7.2119Y-2.9996
X7.612Y-2.9996
X2.1494Y-5.9996
X2.5494Y-5.9996
X6.8369Y-2.2496
X7.237Y-2.2496
X3.8369Y-3.7496
X4.237Y-3.7496
X12.2744Y-3.7496
X12.6745Y-3.7496
X7.0244Y-4.4996
X7.4245Y-4.4996
X6.0869Y-3.7496
X6.487Y-3.7496
X7.3994Y-5.2496
X7.7995Y-5.2496
X10.2119Y-2.9996
X10.612Y-2.9996
X10.7744Y-2.2496
X11.1745Y-2.2496
X4.0244Y-5.9996
X4.4245Y-5.9996
X2.2432Y-4.4996
X2.6432Y-4.4996
X3.6494Y-2.2496
X4.0495Y-2.2496
X8.7119Y-2.9996
X9.112Y-2.9996
X4.5869Y-3.7496
X4.987Y-3.7496
X13.2119Y-5.2496
X13.612Y-5.2496
X10.4932Y-5.9996
X10.8932Y-5.9996
X6.8369Y-3.7496
X7.237Y-3.7496
X8.8994Y-5.2496
X9.2995Y-5.2496
X2.1494Y-3.7496
X2.5494Y-3.7496
X9.0869Y-3.7496
X9.487Y-3.7496
X13.2119Y-3.7496
X13.612Y-3.7496
X10.9619Y-2.9996
X11.362Y-2.9996
X11.5244Y-2.2496
X11.9245Y-2.2496
X3.2744Y-4.4996
X3.6744Y-4.4996
X5.1494Y-5.2496
X5.5495Y-5.2496
X5.1494Y-2.2496
X5.5495Y-2.2496
X11.5244Y-4.4996
X11.9245Y-4.4996
X4.7744Y-4.4996
X5.1745Y-4.4996
X5.8994Y-5.2496
X6.2995Y-5.2496
X4.3994Y-5.2496
X4.7995Y-5.2496
X2.9932Y-5.9996
X3.3932Y-5.9996
X7.5869Y-3.7496
X7.987Y-3.7496
X8.5244Y-4.4996
X8.9245Y-4.4996
X9.8369Y-3.7496
X10.237Y-3.7496
X10.0244Y-2.2496
X10.4245Y-2.2496
X9.5557Y-5.9996
X9.9557Y-5.9996
X10.7744Y-4.4996
X11.1745Y-4.4996
X7.5869Y-2.2496
X7.987Y-2.2496
X11.3369Y-3.7496
X11.737Y-3.7496
X12.4619Y-2.9996
X12.862Y-2.9996
T3
X4.9747Y-6.2746
X8.9117Y-6.2746
X11.7244Y-4.2246
X12.6619Y-4.2246
X12.8425Y-3.6562
X12.8425Y-4.5938
X5.162Y-6.2746
X9.6619Y-6.2746
X2.162Y-4.9746
X3.0995Y-4.9746
X11.8182Y-2.7246
X12.7557Y-2.7246
T4
X2.912Y-2.9996
X2.162Y-2.9996
X5.162Y-2.9996
X11.6307Y-5.2496
X5.7245Y-4.4996
X12.2425Y-3.6562
X12.2425Y-4.5938
X12.5675Y-4.125
X10.2244Y-4.4996
X13.4119Y-4.4996
X13.4119Y-2.2496
X7.9745Y-4.4996
X6.8495Y-5.2496
X3.0995Y-2.2496
X8.1619Y-2.9996
X2.2557Y-5.9996
X9.4744Y-2.2496
X12.6619Y-5.2496
X5.912Y-2.9996
X4.412Y-2.9996
X5.162Y-5.6746
X7.412Y-5.9996
X9.6619Y-5.6746
X6.4745Y-4.4996
X11.9119Y-2.9996
X2.162Y-5.5746
X2.6307Y-5.2496
X3.0995Y-5.5746
X4.2245Y-4.4996
X9.4744Y-4.4996
X10.5994Y-5.2496
X11.8182Y-3.3246
X12.2869Y-2.9996
X12.7557Y-3.3246
X6.287Y-2.2496
X7.412Y-2.9996
X2.3495Y-5.9996
X7.037Y-2.2496
X4.037Y-3.7496
X12.4744Y-3.7496
X7.2245Y-4.4996
X6.287Y-3.7496
X7.5995Y-5.2496
X10.4119Y-2.9996
X10.9744Y-2.2496
X4.2245Y-5.9996
X2.4432Y-4.4996
X3.8495Y-2.2496
X8.9119Y-2.9996
X4.787Y-3.7496
X13.4119Y-5.2496
X10.6932Y-5.9996
X7.037Y-3.7496
X9.0994Y-5.2496
X2.3495Y-3.7496
X9.2869Y-3.7496
X13.4119Y-3.7496
X11.1619Y-2.9996
X11.7244Y-2.2496
X3.4745Y-4.4996
X5.3495Y-5.2496
X5.3495Y-2.2496
X11.7244Y-4.4996
X4.9745Y-4.4996
X6.0995Y-5.2496
X4.5995Y-5.2496
X3.1932Y-5.9996
X7.787Y-3.7496
X8.7244Y-4.4996
X10.0369Y-3.7496
X10.2244Y-2.2496
X9.7557Y-5.9996
X10.9744Y-4.4996
X7.787Y-2.2496
X11.5369Y-3.7496
X12.6619Y-2.9996
X3.662Y-2.9996
X3.287Y-5.9996
X9.8494Y-5.2496
X4.9747Y-5.6746
X6.9432Y-5.9996
X8.9117Y-5.6746
X3.287Y-3.7496
X8.3494Y-5.2496
X13.4119Y-5.9996
X8.5369Y-3.7496
X2.25Y-4.5
X10.5994Y-5.9996
X4.5995Y-2.2496
X12.6619Y-5.9996
X3.8495Y-5.2496
X10.7869Y-3.7496
X9.6619Y-2.9996
X12.6619Y-2.2496
X11.9119Y-5.9996
X3.0995Y-5.2496
X2.2557Y-5.2496
X5.537Y-3.7496
X13.4119Y-2.9996
X4.1307Y-5.9996
X2.162Y-2.2496
X6.662Y-2.9996
X8.5369Y-2.2496
X11.7244Y-4.8246
X12.1932Y-4.4996
X12.6619Y-4.8246
T0
M30
