M48
; DRILL file {KiCad (5.1.8)-1} date 01/07/21 02:27:42
; FORMAT={-:-/ absolute / inch / decimal}
; #@! TF.CreationDate,2021-01-07T02:27:42+01:00
; #@! TF.GenerationSoftware,Kicad,Pcbnew,(5.1.8)-1
; #@! TF.FileFunction,Plated,1,2,PTH
FMAT,2
INCH
T1C0.0157
T2C0.0236
T3C0.0579
%
G90
G05
T1
X2.224Y-3.395
X2.328Y-2.638
X2.358Y-5.524
X2.359Y-4.06
X2.48Y-3.926
X2.4934Y-1.9324
X2.498Y-2.452
X2.579Y-5.097
X2.648Y-2.029
X2.657Y-4.274
X2.688Y-2.484
X2.702Y-5.458
X2.716Y-2.484
X2.779Y-6.116
X3.016Y-6.258
X3.016Y-6.284
X4.114Y-2.069
X4.114Y-2.631
X4.271Y-5.727
X4.743Y-6.258
X4.743Y-6.2836
X4.845Y-5.696
X4.884Y-5.613
X5.248Y-5.753
X5.278Y-5.753
X5.448Y-4.91
X5.586Y-6.168
X5.61Y-5.132
X5.629Y-5.778
X5.808Y-6.215
X5.911Y-5.532
X5.911Y-5.655
X6.081Y-5.71
X6.095Y-6.168
X6.1047Y-5.6751
X6.1253Y-5.6549
X6.146Y-5.636
X6.25Y-6.168
X6.3525Y-5.555
X6.3875Y-5.6425
X6.388Y-5.673
X6.388Y-5.71
X6.406Y-2.646
X6.406Y-4.144
X6.526Y-4.783
X6.674Y-5.65
X6.708Y-5.628
X6.781Y-3.396
X6.836Y-5.628
X6.836Y-5.673
X6.948Y-4.911
X7.109Y-5.289
X7.1894Y-5.673
X7.371Y-5.824
X7.471Y-5.3
X8.195Y-6.055
X8.196Y-5.728
X8.223Y-5.301
X8.457Y-4.911
X8.5275Y-5.8075
X8.574Y-5.728
X8.608Y-5.289
X8.711Y-5.424
X8.97Y-5.332
X9.958Y-4.911
X10.058Y-6.047
X10.108Y-5.289
X10.22Y-5.9
X11.16Y-6.076
X11.528Y-6.053
X12.247Y-6.098
X12.54Y-4.981
X12.741Y-4.066
X12.895Y-3.215
X12.925Y-5.086
X12.967Y-5.291
X13.008Y-3.991
X13.009Y-2.918
X13.06Y-4.332
X13.126Y-4.332
X13.141Y-5.086
T3
X7.6369Y-2.1496
X7.8869Y-2.0496
X3.887Y-3.6496
X4.1369Y-3.5496
X4.0744Y-4.3996
X4.3244Y-4.2996
X4.2619Y-2.8996
X4.5119Y-2.7996
X10.637Y-3.6496
X10.887Y-3.5496
X3.3245Y-4.3996
X3.5745Y-4.2996
X9.137Y-3.6496
X9.387Y-3.5496
X6.6994Y-5.1496
X6.9494Y-5.0496
X8.387Y-3.6496
X8.637Y-3.5496
X11.762Y-5.8996
X12.012Y-5.7996
X2.2932Y-4.3996
X2.5432Y-4.2996
X13.262Y-2.1496
X13.512Y-2.0496
X6.8869Y-3.6496
X7.1369Y-3.5496
X11.5745Y-2.1496
X11.8245Y-2.0496
X2.012Y-2.1496
X2.262Y-2.0496
X2.9495Y-5.1496
X3.1995Y-5.0496
X7.2619Y-5.8996
X7.5119Y-5.7996
X6.5119Y-2.8996
X6.7619Y-2.7996
X11.762Y-2.8996
X12.012Y-2.7996
X11.387Y-3.6496
X11.637Y-3.5496
X12.512Y-5.8996
X12.762Y-5.7996
X13.262Y-3.6496
X13.512Y-3.5496
X9.6057Y-5.8996
X9.8557Y-5.7996
X13.262Y-2.8996
X13.512Y-2.7996
X12.512Y-2.8996
X12.762Y-2.7996
X2.1057Y-5.1496
X2.3557Y-5.0496
X13.262Y-5.1496
X13.512Y-5.0496
X6.8869Y-2.1496
X7.1369Y-2.0496
X12.512Y-5.1496
X12.762Y-5.0496
X8.762Y-2.8996
X9.012Y-2.7996
X7.6369Y-3.6496
X7.8869Y-3.5496
X8.012Y-2.8996
X8.262Y-2.7996
X12.137Y-2.8996
X12.387Y-2.7996
X5.3869Y-3.6496
X5.6369Y-3.5496
X4.0744Y-5.8996
X4.3244Y-5.7996
X7.8244Y-4.3996
X8.0745Y-4.2996
X2.9495Y-2.1496
X3.1995Y-2.0496
X4.4494Y-2.1496
X4.6994Y-2.0496
X8.387Y-2.1496
X8.637Y-2.0496
X10.5432Y-5.8996
X10.7932Y-5.7996
X8.9495Y-5.1496
X9.1995Y-5.0496
X10.262Y-2.8996
X10.512Y-2.7996
X5.7619Y-2.8996
X6.0119Y-2.7996
X10.8245Y-4.3996
X11.0745Y-4.2996
X2.4807Y-5.1496
X2.7307Y-5.0496
X3.0432Y-5.8996
X3.2932Y-5.7996
X5.1994Y-5.1496
X5.4494Y-5.0496
X3.137Y-3.6496
X3.387Y-3.5496
X12.6675Y-3.975
X12.7675Y-4.225
X6.1369Y-2.1496
X6.3869Y-2.0496
X6.7932Y-5.8996
X7.0432Y-5.7996
X12.0432Y-4.3996
X12.2932Y-4.2996
X10.8245Y-2.1496
X11.0745Y-2.0496
X12.3245Y-3.6496
X12.5745Y-3.5496
X9.512Y-2.8996
X9.762Y-2.7996
X6.1369Y-3.6496
X6.3869Y-3.5496
X9.6995Y-5.1496
X9.9495Y-5.0496
X3.512Y-2.8996
X3.762Y-2.7996
X3.9807Y-5.8996
X4.2307Y-5.7996
X9.887Y-3.6496
X10.137Y-3.5496
X4.4494Y-5.1496
X4.6994Y-5.0496
X2.1Y-4.4
X2.35Y-4.3
X8.5745Y-4.3996
X8.8245Y-4.2996
X3.6995Y-5.1496
X3.9495Y-5.0496
X9.3245Y-2.1496
X9.5745Y-2.0496
X7.0744Y-4.3996
X7.3244Y-4.2996
X6.3244Y-4.3996
X6.5744Y-4.2996
X12.512Y-2.1496
X12.762Y-2.0496
X11.4807Y-5.1496
X11.7307Y-5.0496
X5.0119Y-2.8996
X5.2619Y-2.7996
X5.9494Y-5.1496
X6.1994Y-5.0496
X11.5745Y-4.3996
X11.8245Y-4.2996
X4.8244Y-4.3996
X5.0744Y-4.2996
X8.1995Y-5.1496
X8.4495Y-5.0496
X10.4495Y-5.8996
X10.6995Y-5.7996
X11.012Y-2.8996
X11.262Y-2.7996
X3.137Y-5.8996
X3.387Y-5.7996
X2.1057Y-5.8996
X2.3557Y-5.7996
X9.3245Y-4.3996
X9.5745Y-4.2996
X10.0745Y-2.1496
X10.3245Y-2.0496
X3.6995Y-2.1496
X3.9495Y-2.0496
X5.1994Y-2.1496
X5.4494Y-2.0496
X2.1995Y-3.6496
X2.4495Y-3.5496
X13.262Y-5.8996
X13.512Y-5.7996
X2.762Y-2.8996
X3.012Y-2.7996
X2.012Y-2.8996
X2.262Y-2.7996
X7.2619Y-2.8996
X7.5119Y-2.7996
X10.4495Y-5.1496
X10.6995Y-5.0496
X7.4494Y-5.1496
X7.6994Y-5.0496
X2.1995Y-5.8996
X2.4495Y-5.7996
X13.262Y-4.3996
X13.512Y-4.2996
X4.6369Y-3.6496
X4.8869Y-3.5496
X10.0745Y-4.3996
X10.3245Y-4.2996
X5.5744Y-4.3996
X5.8244Y-4.2996
T2
G00X2.4499Y-1.6646
M15
G01X2.4499Y-1.6882
M16
G05
G00X2.4499Y-1.8193
M15
G01X2.4499Y-1.8626
M16
G05
G00X2.7901Y-1.6646
M15
G01X2.7901Y-1.6882
M16
G05
G00X2.7901Y-1.8193
M15
G01X2.7901Y-1.8626
M16
G05
T0
M30
